<svg xmlns="http://www.w3.org/2000/svg" viewBox="36 127 427 220" xmlns:xlink="http://www.w3.org/1999/xlink"><symbol id="u" viewBox="-50.452 -50.955 100.904 101.91"><path fill="#E65270" d="M14.113-50.012c-1.353.017-2.704.02-4.056.02l-3.49-.002s-9.98.004-14.75.004c-.748 0-1.5-.003-2.25-.005s-1.5-.005-2.25-.005c-.47 0-.94 0-1.408.004-2.84.017-5.56.358-8.07 1.016-10 2.617-17.58 8.55-22.51 17.634-2.37 4.354-3.71 9.225-4 14.473-.13 2.334-.01 4.726.35 7.108.04.284.09.568.14.854l.11.65.19-.2c.1-.1.13-.21.16-.29.09-.32.19-.64.28-.96.19-.67.39-1.35.62-2.01 1.7-4.85 4.28-9.4 7.89-13.9.14-.18.25-.38.31-.57 1.22-3.77 3.35-7.03 6.32-9.69 2.89-2.59 6.36-4.53 10.32-5.77-2.54 1.08-4.89 2.47-7.01 4.14-3.45 2.72-5.94 6.04-7.39 9.89-.15.38-.27.85-.07 1.36.06.17.11.36.16.54.03.12.06.25.1.38.78 2.55 1.97 4.55 3.63 6.12 1.54 1.45 3.51 2.52 6.01 3.25 2.34.68 4.78.99 7.14 1.29l1.01.13c1.32.17 2.66.38 3.95.58l.78.12c.29.04.58.1.88.17l.72.15-.19-.33c-.02-.03-.03-.05-.05-.08-1.23-1.37-2.26-2.9-3.06-4.54-.07-.14-.21-.27-.35-.31l-.52-.17c-.55-.19-1.12-.37-1.7-.49-.62-.13-1.26-.22-1.88-.3-.5-.07-.99-.14-1.48-.23-1.66-.3-2.93-.83-3.9-1.64.21.05.43.08.64.11.3.04.61.09.89.19 1.52.53 3.2.77 5.26.77h.28c.37-.01.74-.02 1.12-.04l.73-.03-.06-.18c-1.49-4.85-1.44-9.6.12-14.16-.66 3.09-.78 5.96-.37 8.74.62 4.24 2.48 7.9 5.55 10.86 2.07 2 4.67 3.68 7.94 5.13 2.84 1.26 5.8 2.02 8.59 2.69l.53.13c1.98.48 4.04.97 6.03 1.56 2.99.88 5.58 2.32 7.72 4.29.32.29.68.63.97 1 2.03 2.64 4.41 4.51 7.25 5.73.08.03.17.12.23.22.93 1.52 2.05 2.64 3.41 3.42.31.17.61.26.91.26.37 0 .75-.14 1.11-.42.14-.11.26-.22.37-.33.48-.48.86-1.07 1.21-1.86.05-.09.08-.12.19-.14.35-.05.7-.1 1.06-.17C42.35 5.02 46.4.55 47.1-5.5c.02-.16.03-.325.046-.487.03-.387.06-.78.175-1.14.15-.45.37-.895.58-1.32.1-.19.19-.38.28-.576l.24-.49c.19-.39.38-.78.53-1.19.24-.62.27-1.26.09-1.905-.08-.28-.24-.32-.34-.32-.07 0-.14.02-.22.07-.16.102-.31.22-.46.334-.07.06-.14.11-.21.167-.08.067-.16.128-.23.19-.18.15-.36.29-.55.398-.07.04-.14.06-.21.06-.07 0-.14-.02-.21-.06l.27-.24c.49-.43.98-.87 1.46-1.31.1-.09.17-.26.16-.4-.06-.91-.37-1.66-.95-2.24-.68-.69-1.39-1.02-2.18-1.02-.17 0-.34.02-.51.05-.03-.3-.09-.42-.35-.55-1.6-.87-3.17-1.29-4.78-1.29h-.26c-1.1 0-2.17-.31-3.37-.98-.41-.23-.78-.38-1.12-.47-1.03-.27-2.07-.38-3.02-.42.41-.06.83-.08 1.28-.08.29 0 .59.02.91.04l.19.02c.14.01.27.03.41.03.18 0 .32-.02.45-.07.84-.34 1.66-.76 2.43-1.15.15-.07.26-.11.36-.11.06 0 .11.02.17.04l.23.09c.42.16.86.32 1.27.51.99.44 1.84.65 2.68.65.23 0 .45-.02.68-.05.58-.08 1.25-.21 1.85-.58.3-.18.7-.49.74-1.06 0-.01.02-.04.07-.09.07-.07.15-.13.23-.2.08-.06.16-.13.24-.2.47-.43.68-.98.62-1.62-.02-.18-.06-.61-.42-.61-.11 0-.24.04-.42.13-.08.04-.15.07-.21.09.18-.11.35-.21.52-.33.4-.27.6-.69.58-1.24-.04-1.2-1.3-2.34-2.6-2.34-.15 0-.31.02-.45.05-.38.09-.86.25-1.15.75-.01.02-.04.04-.05.04l-.22-.01c-.26-.01-.52-.02-.77-.07l-.07-.02c-.42-.1-.86-.19-1.3-.19-.18 0-.34.01-.51.05-.2.03-.39.08-.6.13l-.15.04c-.23-.75-.6-1.45-1.11-2.09-1.13-1.44-2.64-2.45-4.61-3.1-1.42-.47-2.96-.71-4.56-.71-.84 0-1.72.06-2.62.19-3.54.5-6.02 2.43-7.36 5.73-.22.55-.37 1.13-.52 1.7-.07.27-.14.55-.22.83-.42 1.43-.95 2.69-1.62 3.86-1.21 2.12-2.72 3.63-4.59 4.62-1.51.79-3.15 1.19-4.89 1.19-.73 0-1.49-.07-2.26-.21-.16-.03-.32-.06-.47-.1.54-.03 1.06-.06 1.59-.11 2.43-.25 4.64-.99 6.58-2.22 2.63-1.67 4.25-3.75 4.93-6.34.38-1.45.93-2.9 1.63-4.3.4-.81.92-1.75 1.66-2.54 1.05-1.12 2.4-1.88 4.24-2.4.51-.14 1.01-.29 1.51-.45.28-.09.47-.28.59-.59.29-.75.36-1.51.21-2.27-.22-1.11-.75-2.14-1.62-3.14-.68-.79-1.53-1.36-2.36-1.92-.41-.28-.8-.57-1.15-.88-.3-.26-.46-.6-.44-.96.03-.59.07-.61.18-.61.1 0 .24.04.47.11.12.04.23.09.35.14l.69.298c.39.17.78.34 1.18.5.85.35 1.7.54 2.51.54.43 0 .87-.06 1.29-.16 1.52-.36 2.52-1.264 2.965-2.68.12-.39.1-.71-.06-.98-.1-.18-.34-.33-.54-.33-.18 0-.355.16-.49.31-.07.08-.09.18-.105.28 0 .03-.01.06-.01.09-.13.5-.32.83-.6 1.05.504-.68.73-1.415.69-2.23-.043-.805-.65-1.37-1.47-1.37-.036 0-.07 0-.105.006-.31.02-.51.19-.54.468-.02.19-.02.39-.02.58 0 .08 0 .16-.01.24v.31c0 .22 0 .43-.02.64-.06.45-.33.75-.79.89-.04.02-.07.02-.1.03.14-.08.26-.19.34-.35.17-.32.31-.61.39-.91.2-.83 0-1.47-.58-1.86-.3-.2-.69-.28-1.03-.325-.14-.02-.28-.03-.42-.03-.51 0-1.01.12-1.49.23l-.25.06c-.46.1-.863.16-1.25.16-.334 0-.68-.063-1.013-.13l-.15-.03c-2.55-.45-4.83-.67-6.98-.67l-.37-.01z"/><path fill="#430A1D" d="M34.73-20.45s-3.735-4.457-10.078-1.904c-5.81 2.34-3.692 8.784-3.692 8.784s1.03-3.996 4.036-5.51c4.352-2.193 9.734-1.37 9.734-1.37zm-18.403-1.91c.81-.82.824-1.662 1.078-2.687.48-1.928 1.068-3.602 2.296-5.188 1.19-1.524 2.6-2.602 4.42-3.303 1.58-.606 3.62-.427 3.31-2.78L26.9-38.3c-4.04 0-7.823 1.842-9.365 5.852-1.352 3.518.24 7.77-3.857 13.717.328-.41 2.23-3.2 2.65-3.63z" opacity=".2"/><path fill="#2B2B2B" d="M14.727-20.61c.062-.25.118-.505.175-.758-.15.185-.23.42-.175.757z" opacity=".2"/><linearGradient id="a" x1="44097.34" x2="44125.809" y1="69.669" y2="-63.179" gradientUnits="userSpaceOnUse" gradientTransform="matrix(-1 0 0 1 44076.355 0)"><stop offset=".384" stop-color="#FAA100"/><stop offset=".658" stop-color="#BF73F2"/><stop offset=".665" stop-color="#C370E6"/><stop offset=".685" stop-color="#CC68C7"/><stop offset=".708" stop-color="#D461AB"/><stop offset=".734" stop-color="#DB5B95"/><stop offset=".764" stop-color="#E05784"/><stop offset=".802" stop-color="#E35479"/><stop offset=".854" stop-color="#E55272"/><stop offset="1" stop-color="#E65270"/></linearGradient><path fill="url(#a)" d="M-32.35-35.983c-15.24 1.506-17.034 16.677-17.034 16.677s-.828 7.032 1.104 13.93c1.24-12.55 11.31-21.24 11.31-21.24s2.21-7.15 4.62-9.367z"/><path fill="#2B2B2B" d="M-36.15-30.205s-3.196-.304-7.46 4.873c4.11-7.46 9.44-7.613 9.44-7.613l-1.98 2.74z" opacity=".2"/><linearGradient id="b" x1="44081.27" x2="44111.594" y1="71.442" y2="-70.067" gradientUnits="userSpaceOnUse" gradientTransform="matrix(-1 0 0 1 44076.355 0)"><stop offset=".384" stop-color="#FAA100"/><stop offset=".658" stop-color="#BF73F2"/><stop offset=".665" stop-color="#C370E6"/><stop offset=".685" stop-color="#CC68C7"/><stop offset=".708" stop-color="#D461AB"/><stop offset=".734" stop-color="#DB5B95"/><stop offset=".764" stop-color="#E05784"/><stop offset=".802" stop-color="#E35479"/><stop offset=".854" stop-color="#E55272"/><stop offset="1" stop-color="#E65270"/></linearGradient><path fill="url(#b)" d="M-27.912-38.917c-.8 14.03 7.438 7.52 11.69 14.96 1.195 6.51 4.782 10.628 4.782 10.628s-25.506 4.79-25.907-13.81c.888-4.02 4.792-7.92 7.236-10.02-.48 1.08-6.57 17.83 13.71 16.47-7 .6-17.11-6.71-12.29-17.67.48-.35.77-.54.77-.54z"/><path fill="#FFF" d="M-21.017-18.684c-5.272-1.982-14.225-1.973-11.677-15.426-.408-.306-2.446 2.854-1.937 2.547-2.35 12.028 8.18 11.333 13.61 12.88z" opacity=".2"/><path fill="#8B4FBA" d="M-14.34-13.865c5.126 2.028.963-3.722.235-4.642-1.683-2.128-5.94-1.436-8.21-2.146-1.305-.408-6.536-1.175-8.27-6.128-.77-2.2-1.06-5.79.582-10.15-.407-.31-3.104 2.64-2.594 2.34C-36.925-15.26-16.51-22.2-14.34-13.87z" opacity=".6"/><path fill="#F9E0E7" d="M36.63-5.972c.14.384.38.875.68 1.165.07-.033.145-.037.202-.073.5.324 1.29.28 1.918.28.376 0 .924.105 1.287-.036.528-.205.468-.76.69-1.182.413-.786 1.69-.796 1.694-1.907.01-.523.14-1.232.01-1.744-.1-.38-.52-.26-.89-.26-1.11 0-2.21-.03-3.32-.03l-1.54 1.14c-.41-.13-.73.73-.78 1.03-.09.48-.1 1.15.07 1.63z"/><path fill="#FFF" d="M41.756-7.494c.188.077.465.378.58.555.085.13.06.21.24.21.47-.01.474-.64.45-.97-.028-.41-.197-.8-.258-1.21-.152.04-.236.23-.407.28-.13.04-.33.02-.47.02-.21-.01-.49-.15-.68-.07l.55 1.21z"/><linearGradient id="c" x1="44076.297" x2="44078.102" y1="62.464" y2="-21.484" gradientUnits="userSpaceOnUse" gradientTransform="matrix(-1 0 0 1 44076.355 0)"><stop offset="0" stop-color="#FAA7B5"/><stop offset=".384" stop-color="#FAA100"/><stop offset=".732" stop-color="#BF73F2"/></linearGradient><path fill="url(#c)" d="M-18.99 13.068c.07.08.088.105.11.128 2.035 1.9 3.114 4.298 3.694 6.98.38 1.754-.105 3.302-.895 4.815-.02.03-.04.05-.07.09-.16-.49-.3-.98-.47-1.45-.42-1.17-.92-2.31-1.71-3.29-.32-.38-13.62-7.75-12.25-24.06.01-.1.02-.19.04-.31.24.23.46.47.71.66.88.7 1.9 1.14 2.97 1.44 1.95.54 3.91 1.04 5.88 1.53 2.24.55 4.49 1.06 6.65 1.88 1.22.47 2.35 1.08 3.43 1.82 1.61 1.1 3.01 2.43 4.21 3.96.7.89 1.02 1.57 1.34 2.62.2-.54.09-2.04-.21-3-.31-.99-.84-1.85-1.53-2.64.16.05.34.08.49.17 1.9 1.08 3.59 2.42 4.83 4.25.84 1.22 1.35 2.56 1.42 4.05 0 .03.01.05.01.08.39-1.83.34-4.95-1.73-7.17.73.26 1.39.52 2.06.72.56.17.93.5 1.24.99 1.36 2.14 2.48 4.39 3.09 6.87.47 1.92.59 3.84.06 5.77-.59 2.18-1.91 3.85-3.7 5.18-1.24.92-2.61 1.61-4.05 2.17-.08.04-.17.07-.26.11-.02.01-.02.02-.08.08.5-.13.95-.25 1.39-.38 2.06-.61 4.03-1.41 5.78-2.69 1.56-1.14 2.75-2.56 3.35-4.43.53-1.67.49-3.36.1-5.05-.56-2.47-1.71-4.66-3.11-6.75L3.68 8c-.007-.01-.006-.03-.014-.065.06.02.103.04.145.06 2.93 1.5 5.54 3.42 7.62 5.99 2.01 2.5 3.48 5.29 4.18 8.44.88 3.98-.09 7.513-2.66 10.63-1.63 1.973-3.64 3.47-5.87 4.68-2.88 1.57-5.94 2.59-9.18 3.062-1.84.27-3.69.32-5.53-.03-1.01-.19-1.67-.46-2.79-1.107.14.12.28.25.43.356 1 .765 2.17 1.16 3.38 1.41 2.02.41 4.05.4 6.09.16 3.14-.37 6.15-1.24 8.99-2.644.28-.14.55-.28.86-.44 0 .26-.02.484 0 .707.03.34.2.54.47.57.26.03.41-.07.46-.32.04-.21.05-.44.08-.65.07-.49.3-.91.63-1.27.03-.04.08-.07.12-.1.02-.01.05-.01.12-.03v.5c0 .33-.02.66-.01.99 0 .08.06.21.12.23.07.02.21-.02.26-.08.13-.17.27-.35.33-.55.13-.42.18-.87.32-1.3.09-.27.23-.54.4-.77.19-.25.38-.19.46.11.07.29.09.59.13.88.02.1.02.21.05.3.03.08.09.15.13.23.07-.06.16-.11.19-.18.07-.17.13-.35.14-.53.02-.4-.01-.8.02-1.19.02-.21.09-.43.19-.62.12-.21.3-.18.36.05.09.32.14.66.2.99l.15.72c.27-.23.33-.48.36-.72.07-.65.1-1.3.16-1.95.04-.48.21-.91.5-1.32.52-.76.98-1.55 1.45-2.35.24-.41.46-.44.68-.03.26.47.44.98.66 1.48.1.21.18.43.28.65.05.1.13.19.2.3.26-.19.32-.43.27-.67-.07-.36-.2-.71-.3-1.07-.1-.39-.21-.78-.27-1.18-.02-.16.05-.35.13-.51.1-.22.27-.25.44-.08.18.18.32.39.49.58.1.1.24.17.36.25.07-.15.2-.3.19-.44-.02-.3-.09-.6-.2-.88-.22-.56-.52-1.1-.71-1.67-.14-.42-.16-.87-.21-1.31-.01-.11.08-.3.16-.33.09-.03.27.05.35.14.36.4.7.82 1.06 1.23.09.1.2.17.31.26l.11-.05c-.04-.23-.03-.48-.11-.7-.15-.36-.32-.71-.53-1.03-.32-.52-.69-1-1.02-1.51-.62-.94-1.02-1.97-1.27-3.07-.19-.79-.45-1.56-.68-2.33-.03-.1-.06-.19-.07-.3.2.32.39.64.6.96.43.66.93 1.27 1.6 1.71.34.22.7.41 1.07.55 1.94.71 3.89 1.37 5.73 2.3.53.26 1.03.59 1.51.93.61.44.83 1.05.65 1.79l-.38 1.56c-.31-.5-.59-.98-.9-1.43s-.7-.83-1.28-1.09c.06.1.07.14.1.18.817 1.12 1.28 2.39 1.647 3.71.04.14-.006.3-.03.45-.166.96-.086 1.92-.04 2.88.01.19.01.39-.02.58-.01.09-.08.2-.15.23-.05.02-.18-.05-.23-.11-.187-.26-.39-.52-.52-.81-.5-1.17-.98-2.35-1.46-3.53-.6-1.47-1.27-2.9-2.3-4.12-.46-.56-.99-1.04-1.64-1.38-.127-.07-.26-.12-.4-.16 1.006 1.04 1.23 2.35 1.28 3.7.06 1.72.03 3.45.04 5.17.02 1.86.17 3.71.73 5.51.02.07-.02.17-.05.24-.16.3-.36.59-.49.9-.28.66-.5 1.34-.77 2.01-.16.39-.21.42-.63.39-.45-.03-.72.23-.96.55-.19.24-.26.23-.39-.05-.14-.31-.24-.63-.39-.93-.05-.11-.18-.17-.28-.26-.07.11-.19.21-.2.32-.04.37-.03.74-.06 1.11-.01.19-.03.37-.1.55-.03.08-.15.17-.24.18-.06 0-.17-.1-.2-.19-.09-.26-.14-.54-.225-.8-.07-.21-.16-.24-.29-.06-.93 1.26-2.16 2.15-3.48 2.94-.39.24-.77.48-1.16.72l-.08-.03.15-1.28-.11-.05c-.12.1-.26.19-.36.31-.25.3-.49.63-.75.93-.51.6-1.16 1.03-1.78 1.18.2-.68.39-1.32.57-1.96-.02-.02-.06-.03-.09-.04-.06.08-.14.15-.19.24-.15.24-.3.49-.44.74-.59 1.07-1.51 1.69-2.71 1.87-.82.11-1.64.19-2.47.25-.6.04-1.18.13-1.73.39-.39.18-.8.3-1.21.43-.07.03-.16 0-.24-.01 0-.08-.01-.19.02-.26.19-.37.4-.74.59-1.12.07-.13.12-.28.17-.428-.02-.02-.03-.04-.05-.06-.12.04-.25.07-.37.13-.53.25-1.07.5-1.58.79-.52.29-1.1.32-1.66.37-1.78.14-3.53.03-5.247-.49-1.05-.32-2.01-.79-2.86-1.52.1.01.21.01.32.03 1.03.21 2.07.41 3.14.37.72-.03 1.43-.14 2.07-.51.1-.06.16-.18.24-.27-.14-.05-.29-.15-.43-.13-.33.04-.66.16-.99.19-1.06.09-2.08-.15-3.09-.43-2.45-.67-4.66-1.82-6.72-3.29-.51-.35-1.03-.683-1.55-1.02-1.012-.64-1.84-1.48-2.49-2.49-.07-.12-.142-.25-.19-.38-.13-.37-.03-.68.32-.86.25-.13.53-.224.806-.29 3.66-.89 6.38-3.91 6.8-7.64.16-1.4.35-2.8.28-4.22-.16-3.26-1.33-6.095-3.5-8.52-1.29-1.44-2.82-2.59-4.5-3.553-.03-.02-.07-.03-.16-.09z"/><path fill="#8B4FBA" d="M27.897 34.69c-1.554-12.14-6.94-9.392-10.465-16.168-.193.256-.637-1.816.25 2.03.89 3.852 3.437 2.113 5.848 6.517 3.053 5.56 2.443 6.06 4.367 7.62z" opacity=".2"/><path fill="#FFF" d="M11.804 34.46c-.578-3.473-5.49-3.316-9.693-1.842-4.56 1.602-14.05 2.116-14.82.205-.38-.438-1.14 1.363-1.14 1.363s7.21 7.863 19.27-.436c-.49.764 4.34 3 4.34 3s1.45.44 2.05-2.29z" opacity=".3"/><path fill="#8B4FBA" d="M-13.195 1.104c.262-.65 2.396-.212 2.596.803-3.14 3.566 5.14 10.12-2.5 18.672 5-13.2-5.65-13.74-.09-19.48z" opacity=".2"/><path fill="#8B4FBA" d="M-13.195 1.104c.262-.65.215-.464.415.55-3.148 3.568 5.237 8.77-.323 18.925C-8.1 7.38-18.75 6.84-13.195 1.1z" opacity=".6"/><linearGradient id="d" x1="44098.688" x2="44078.422" y1="53.836" y2="18.924" gradientUnits="userSpaceOnUse" gradientTransform="matrix(-1 0 0 1 44076.355 0)"><stop offset="0" stop-color="#F6E8A0"/><stop offset="1" stop-color="#E65271"/></linearGradient><path fill="url(#d)" d="M-1.723 3.708c15.128 15.92-3.997 13.253-10.23 24.058.01.186.024.366.024.557 0 1.502-.36 2.916-.99 4.17C-7.09 23.84 7.7 31.47 4.83 13.78c-.26-.91-2.32-9.873-6.55-10.072z"/><linearGradient id="e" x1="44095.125" x2="44077.648" y1="32.857" y2="2.752" gradientUnits="userSpaceOnUse" gradientTransform="matrix(-1 0 0 1 44076.355 0)"><stop offset="0" stop-color="#F6E8A0"/><stop offset="1" stop-color="#E65271"/></linearGradient><path fill="url(#e)" d="M-1.723 3.708C-7.953.65-13.397.562-13.14 1.468c12.376 8.398 2.386 17.05.057 25.202.16.658 1.154.903 1.154 1.65 0 .08 0 .156-.01.235.18-.81.61-1.09 1.02-1.5 5.75-5.802 24.04-7.74 9.21-23.347z"/><path fill="#E65271" d="M-3.674 3.945c9.58 14.308-8.304 17.026-8.174 21.562-1.425-9.33 15.717-13.324-.39-24.49-.257-.907 2.335-.13 8.564 2.928z"/><linearGradient id="f" x1="44056.074" x2="44058.09" y1="55.106" y2="19.935" gradientUnits="userSpaceOnUse" gradientTransform="matrix(-1 0 0 1 44076.355 0)"><stop offset="0" stop-color="#F6E8A0"/><stop offset="1" stop-color="#E65271"/></linearGradient><path fill="url(#f)" d="M23.094 28.8c.76-1.27-.084-2.77-.97-4.176-.818-1.298-2.793-.873-4.133-4.002l.12 2.438c1.49 2.587-1.02 6.148-1.72 8.555-1.19 4.1-2.48 7.883-.9 12.043.11.28.2.585.31.872.79-.58 1.38-1.16 2.06-2.043.45-.586.29 1.512.88 1.07.43-.318-.02-1.802.39-2.145.46-.39.74 1.868 1.08 1.368.79-1.174 1.23-.43 1.57-.78.3-.32 1.01-2.78 1.29-3.112.28-.323.54-.656.81-.99-.15-1.79-.5-3.803-1.08-5.418-.54-1.526-.57-2.162.34-3.68z"/><path fill="#E65271" d="M1.8 47.49c.046-.017.086-.024.11-.023.42.007-1.13 1.954-.684 1.954.75 0 1.812-.77 2.547-.83 1.552-.12 3.16-.08 4.536-.71 1.31-.6 1.9-2.48 2.19-2.56.29-.08-.72 2.17-.43 2.07.49-.16.88-.41 1.21-.68 1.3-1.86 1.72-11.08-.19-10.84-2.01.25 3.16-.71 3.18-.63 1.73 6.52-2.12 10.53-1.95 10.31.22-.3.41-.53.6-.61.41-.16-.26 1.57.12 1.35 1.19-.73 2.04-1.24 2.73-1.76.02-.03.02-.1.06-.09.51.22 3.67.96 1.27-10.39 3.65 7.39.79 10.29 1.07 9.99 1.3-1.4 1.56-4.81 1.73-6.84.16-1.9-1.04-6.23-2.59-7.66-1.09-1.01-1.07.24-1.48 1.2-.68 1.59-1.91 2.86-3.03 4.17-.84.97-1.85 1.68-2.77 2.55-1 .95-1.53 2.27-2.42 3.31-.8.93-1.78 1.67-2.54 2.64-.85 1.08-1.42 2.32-2.36 3.32-.3.32-.64.56-.96.82z"/><linearGradient id="g" x1="44057.961" x2="44069.578" y1="19.979" y2="71.449" gradientUnits="userSpaceOnUse" gradientTransform="matrix(-1 0 0 1 44076.355 0)"><stop offset="0" stop-color="#E65271"/><stop offset=".384" stop-color="#FAA100"/></linearGradient><path fill="url(#g)" d="M8.803 48.526c2.232.007 3.633-1.062 5.48-2.084 1.53-.85 3.412-.86 4.705-2.03 1.717-1.56 2.46-3.105 2.783-5.387.37-2.598.42-5.91-.07-8.5-.25-1.327-1.19-4.05-2.19-5.02l-1.19.76c-2.35 6.08-9.45 8.576-12.14 14.553-.79 1.76-1.09 4.045-1.11 5.967-.02 2.012 2.12 1.736 3.75 1.74z"/><path fill="#F6E8A0" d="M-13.406 33.33c-1.298 2.017-3.353 3.5-5.767 4.04-.614.136-1.714.518-.625 1.83 1.165 1.817 2.84 2.515 3.74 3.183 3.623 2.69 2.125 2.965 4.24 3.21.825.095.607.167 1.026 0s-.322.117-.587.292c-2.35 1.56-2.18-1.553-1.17-.88 3.02 2.334 9.97 3.972 11.92 3.638.29-.048 2.24-1.18 2.54-1.175.42.007-1.13 1.954-.68 1.954.75 0 1.81-.776 2.55-.833 1.52-.12 6.15-2.24 6.12-7.83-.01-1.71.1-2.9-.13-4.02-1.69-8.17-18.76 3.29-23.16-3.42z"/><path fill="#FFF" d="M7.03 38.365c-.79.988-5.933 2.77-5.933 2.77s-8.54 2.942-16.415-5.44C-11.293 38.89-4.22 37.55.895 36.96c.676-.077-1.46.605-.9.81 1.9.705 3.658-1.265 5.552-.885.883.177 1.414.656 1.483 1.48z"/><path fill="#F6E8A0" d="M.48 39.748c-3.136.826-6.27-.383-6.875-.42.284.427.747 1.412 3.07 1.752.534.08 1.604-.007 2.165-.006 1.004.002 1.627-.24 2.513-.667.565-.272 1.93-.562 2.365-.494 0 0 4.806-.362 3.214-1.992-1.59-1.62-3.912 2.11-9.006.91 0 .17 1.165 1 2.554.92z"/><path fill="#F8D285" d="M-4.274 46.507c-1.982 1.312-5.447.187-5.897.193-.01.046.01.097.09.148 3.02 2.334 7.49 2.126 9.44 1.792l.06-.017.03-.013c.42-.162 1.8-.94 2.3-1.11 2.94-1.665 7.58-5.18 7.99-10.75-1.67.74-2.87 1.464-3.79 2.168-.31.237-7.33 7.576-25.92-1.242 0 0-.52.284-.23.948 4.2 6.744 11.86 8.68 24.06 2.294-1.73 2.062-2.57 3.93-8.16 5.59z"/><linearGradient id="h" x1="44098.273" x2="44055.266" y1="45.738" y2="9.103" gradientUnits="userSpaceOnUse" gradientTransform="matrix(-1 0 0 1 44076.355 0)"><stop offset="0" stop-color="#F6E8A0"/><stop offset="1" stop-color="#E65271"/></linearGradient><path fill="url(#h)" d="M7.606 8.604c6.884 7.04 9.69 12.298 6.357 17.96-5.396 9.18-22.014-.394-29.24 8.866.765-.875 2.393-2.608 3.968-3.46 5.36-3.5 15.44-2.374 18.66-5.08 4.14-3.48 5.19-10.497.26-18.286z"/><linearGradient id="i" x1="44059.477" x2="44101.273" y1="20.133" y2="8.766" gradientUnits="userSpaceOnUse" gradientTransform="matrix(-1 0 0 1 44076.355 0)"><stop offset="0" stop-color="#FAA7B5"/><stop offset=".384" stop-color="#FAA100"/><stop offset=".732" stop-color="#BF73F2"/></linearGradient><path fill="url(#i)" d="M-14.82 23.316c-.007-.472 1.073-3.195.904-3.822-1.45-5.353-7.734-7.98-7.734-7.98s-7.037-2.83-8.155-15.775c-1.284-.93-1.106 1.04-1.066 1.91.79 16.97 14.92 15.08 16.05 25.66z"/><linearGradient id="j" x1="43948.223" x2="44144.539" y1="68.986" y2="-36.272" gradientUnits="userSpaceOnUse" gradientTransform="matrix(-1 0 0 1 44076.355 0)"><stop offset="0" stop-color="#FAA7B5"/><stop offset=".384" stop-color="#FAA100"/><stop offset=".732" stop-color="#BF73F2"/></linearGradient><path fill="url(#j)" d="M9.123-4.735c-.116.053-.227.123-.348.158-.617.172-1.238.33-1.856.506-.2.05-.39.14-.58.21v.12c.22.04.44.11.66.11.88.01 1.77-.01 2.66-.01 1.25-.01 2.51 0 3.72.37.59.18 1.16.45 1.7.75C20.8.66 24.83 5.31 27.26 11.37c.5 1.24.88 2.52 1.17 3.82.02.07.03.144.05.27-.09-.06-.152-.087-.21-.12-3.495-2.398-7.313-4.02-11.48-4.81-1.49-.28-2.994-.42-4.51-.467-.113-.003-.26-.046-.332-.124-2.256-2.3-4.93-4.01-7.82-5.43C1.835 3.39-.6 2.71-3.1 2.22-6.307 1.6-9.522 1.006-12.73.39c-3.94-.758-7.858-1.6-11.666-2.887-2.415-.816-4.756-1.797-6.896-3.202-1.61-1.06-3.045-2.31-4.06-3.97-.355-.59-.608-1.24-.914-1.86-.056-.11-.116-.22-.202-.31-2.124-2.07-2.96-4.6-2.634-7.53.242-2.17 1.018-4.15 2.127-6.02.13-.22.242-.44.344-.64.05.48.09 1.01.16 1.53.47 3.34 2.19 5.83 5.11 7.49 1.7.97 3.53 1.61 5.44 2.03 2.08.46 4.18.85 6.28 1.23 2.55.46 5.11.85 7.59 1.63.48.15.96.33 1.43.51.61.23 1.18.53 1.71.92 1.77 1.29 3.69 2.28 5.72 3.08l.16.07.01.04c-.03.01-.06.01-.09.01-2.27 0-4.55-.01-6.82 0-2.03.01-4.06-.05-6.07-.31-2.79-.37-5.49-1.09-8.12-2.1-3.1-1.18-6.04-2.7-8.89-4.4-.08-.04-.16-.09-.26-.11.05.04.1.09.15.13 3.12 2.36 6.43 4.38 10.1 5.8 2.55.98 5.18 1.63 7.9 1.92 2.4.26 4.79.23 7.19.06 2.07-.15 4.15-.3 6.22-.44.18-.02.37.01.55.06 2.05.62 4.15.99 6.27 1.29 1.25.18 2.49.48 3.73.73.08.02.16.06.24.1l.01.07z"/><path fill="#FFF" d="M-29.06-11.728C-20.938-2.023.14-7.11 9.122-4.736 3.436-8.003-1.19-7.438-1.19-7.438s-19.41 2.143-27.87-4.29z" opacity=".2"/><path fill="#E65271" d="M33.056 25.1c-.275-.046-.478-.06-.664-.12-.732-.228-1.495-.398-2.18-.728-.654-.315-1.26-.762-1.825-1.222-1.097-.892-2.144-1.84-3.226-2.744-.88-.74-1.82-1.4-2.94-1.743-.36-.11-.73-.173-1.11-.235 1.46.735 2.28 2.045 3.13 3.39-.07-.014-.1-.01-.11-.02-2.22-1.09-4.4-2.252-6.38-3.76-.53-.402-.94-.86-1.24-1.485-.47-.994-1.08-1.93-1.62-2.887l-.11-.2c.48.1.9.168 1.32.273 1.75.44 3.37 1.2 4.96 2.02 2.49 1.28 4.86 2.77 7.15 4.37.07.05.14.09.24.12l-.06-.09c-2.72-2.72-5.78-4.96-9.35-6.44-1.54-.65-3.14-1.07-4.81-1.25-.06-.01-.14-.03-.18-.07-.37-.45-.73-.91-1.14-1.41 1.02.21 1.98.41 2.93.63 2.66.61 5.27 1.4 7.76 2.53 1.84.83 3.59 1.82 5.07 3.21 1.95 1.85 3.38 4.03 4.22 6.59.13.37.16.78.25 1.25z"/><path fill="#8B4FBA" d="M-12.963.4c.79.264 1.688.592 2.647.96C.99 4.886 4.726 7.825 4.726 7.825l11.357 8.408s1.856-1.42 4.258.437c-1.63-1.965-6.66-3.494-6.66-3.494s-.23-1.546-1.87-2.747c4.47 1.51 11.98 1.08 17.19 5.77-3.94-11.15-13.72-2.65-23.18-9.58C4.73 5.96-9.7 2.28-2.53 2.53 4.637 2.79 9.36-2.1 15.347-.5 9.727-2.54 4.76.726-3.067 1.275-1.85 1.032-.18.36.53-.555-2.306 1.47-7.86 1.565-9.18 1.1c-1.2-.152-2.458-.38-3.783-.7z" opacity=".6"/><path fill="#2B2B2B" d="M14.155-3.038c-8.237-3.272-37.35 6.206-50.42-8.498 0 0-.98.438 4.225 6.273 20.468 9.784 35.7.532 46.195 2.225z" opacity=".2"/><radialGradient id="k" cx="87651.25" cy="11560.299" r="14.877" gradientTransform="matrix(-.458 .1387 .2675 .883 37062.188 -22360.328)" gradientUnits="userSpaceOnUse"><stop offset=".009" stop-color="#FFF"/><stop offset="1" stop-color="#FFF" stop-opacity="0"/></radialGradient><path fill="url(#k)" d="M26.89 9.996c2.438 1.37.458-1.98-1.978-3.96-9.594-6.7-13.933.925-23.448-2.744 14.56 8.025 15.985-1.976 25.427 6.704z" opacity=".7"/><path fill="#8B4FBA" d="M26.146 8.094c2.438 1.37 1.202-.078-1.234-2.058-9.594-6.7-13.933.924-23.448-2.745C10.83 8.51 16.704-.58 26.146 8.1z" opacity=".2"/><radialGradient id="l" cx="78312.109" cy="34685.199" r="23.256" gradientTransform="matrix(-.4785 0 0 .4785 37453.62 -16583.95)" gradientUnits="userSpaceOnUse"><stop offset=".009" stop-color="#FFF"/><stop offset="1" stop-color="#FFF" stop-opacity="0"/></radialGradient><path fill="url(#l)" d="M-21.22 11.687c-4.438-4.062-.958-12.957-.958-12.957l-3.16-.677s-3.187 8.6 4.118 13.634z" opacity=".7"/><radialGradient id="m" cx="78312.125" cy="34685.195" r="23.246" gradientTransform="matrix(-.4785 0 0 .4785 37453.62 -16583.95)" gradientUnits="userSpaceOnUse"><stop offset=".009" stop-color="#FFF"/><stop offset="1" stop-color="#FFF" stop-opacity="0"/></radialGradient><path fill="url(#m)" d="M-13.56 18.5c3.345-5.952-5.526-14.14-.762-17.04-.076-.39-2.724-1.72-2.6-1.335-5.88 9.02 3.817 11.172 2.544 16.812-6.8-9.275-6.872-11.11-3.57-16.983-.04-.032-.403-.506-.764-.236-5.165 3.873-6.62 8.224 5.152 18.783z" opacity=".7"/><path fill="#8B4FBA" d="M-2.63 6.403c.213-2.788 2.16 1.74 2.455 4.867.254 11.698-11.607 8.87-12.15 18.333-1.153-10.766 11.682-10.53 9.696-23.2z" opacity=".2"/><path fill="#FFF" d="M8.87 11.043c.21-2.788 5.81 4.388 6.105 7.513-1.878 20.07-22.536 7.864-27.937 15.258 4.46-8.1 33.336 3.17 21.833-22.77z" opacity=".3"/><linearGradient id="n" x1="44028.922" x2="44039.934" y1="-21.689" y2="-46.512" gradientUnits="userSpaceOnUse" gradientTransform="matrix(-1 0 0 1 44076.355 0)"><stop offset=".004" stop-color="#FAA7B5"/><stop offset=".384" stop-color="#FAA100"/></linearGradient><path fill="url(#n)" d="M46.67-28.038c-.304-.266-.553-.508-.827-.718-.22-.167-.46-.315-.71-.438-.603-.292-1.21-.33-1.822-.006-.95.504-1.97.542-3.01.428-.3-.032-.5-.176-.64-.46-1.04-2.145-2.78-3.523-4.96-4.395-.24-.1-.36-.216-.41-.487-.11-.683-.15-1.355.01-2.036.27-1.09.94-1.87 1.86-2.47.96-.63 2.02-1.002 3.12-1.278 1.33-.327 2.67-.548 4.03-.544.7 0 1.39.082 2.05.284 1.5.45 2.42 1.448 2.76 2.955.22.98.43 1.968.53 2.963.23 2.28-.38 4.328-1.89 6.084-.03.034-.04.075-.07.118z"/><path fill="#F6E8A0" d="M42.355-28.207c.113-.685 1.4-.87 1.996-.85 1.06.034 1.74.647 2.42 1.443.11.13.2.258.27.39 1.19-.95 1.86-2.235 1.68-3.546-.32-2.31-3.17-3.817-6.35-3.37-2.2.31-3.98 1.475-4.77 2.928.58.744.81 1.69 1.58 2.333.75.63 2.23.72 3.2.68z" opacity=".3"/><linearGradient id="o" x1="44102.258" x2="44111.285" y1="49.986" y2="-18.618" gradientUnits="userSpaceOnUse" gradientTransform="matrix(-1 0 0 1 44076.355 0)"><stop offset="0" stop-color="#FAA7B5"/><stop offset=".384" stop-color="#FAA100"/><stop offset=".732" stop-color="#BF73F2"/></linearGradient><path fill="url(#o)" d="M-35.045-6.486c.69-.34 1.17-.414 1.596-.26-.49 2.5-.74 5.02-.66 7.558.1 2.808.59 5.542 1.82 8.102.16.325.34.64.55.94-.01-.05-.02-.1-.04-.147-.66-1.665-.97-3.403-1.07-5.187-.16-2.78.17-5.516.77-8.225.02-.066.04-.13.06-.226.4.26.78.51 1.15.78.05.03.05.15.04.23-.19 1.64-.17 3.29 0 4.93.26 2.35.84 4.61 1.66 6.82 1.16 3.08 2.72 5.94 4.63 8.61.05.06.09.12.13.18.01.01.01.03.02.08-.28-.1-.54-.19-.8-.28-1.75-.64-3.47-1.36-5.13-2.23-.26-.14-.51-.31-.73-.5-2.33-2.07-3.7-4.68-4.32-7.7-.09-.45-.16-.91-.28-1.36.03.5.04 1 .08 1.5.21 2.39.66 4.73 1.46 7 .21.57.07 1.09-.02 1.63-.03.17-.14.32-.22.48-.13-.13-.28-.23-.38-.38-.66-1.06-1.09-2.21-1.44-3.4-.53-1.82-.85-3.68-1.11-5.56-.24-1.75-.4-3.51-.39-5.28.01-1.79.15-3.56.74-5.27.29-.81.67-1.57 1.22-2.24.2-.24.44-.44.66-.66l.05.01z"/><path fill="#2B2B2B" d="M-26.935 17.654s-4.446-.625-6.32-3.683c-1.877-3.05-2.416-8.31-2.416-8.31s-.96-7.84 2.22-12.4c-2.02 16.74 6.51 24.4 6.51 24.4z" opacity=".2"/><linearGradient id="p" x1="44109.793" x2="44118.82" y1="50.977" y2="-17.628" gradientUnits="userSpaceOnUse" gradientTransform="matrix(-1 0 0 1 44076.355 0)"><stop offset="0" stop-color="#FAA7B5"/><stop offset=".384" stop-color="#FAA100"/><stop offset=".732" stop-color="#BF73F2"/></linearGradient><path fill="url(#p)" d="M-35.045-6.486l-.047-.007c-.917.358-1.634.975-2.22 1.75-.852 1.13-1.3 2.437-1.577 3.804-.41 2.04-.44 4.1-.27 6.16.1 1.18.28 2.35.42 3.52.01.05.01.09.01.17-.07-.06-.12-.09-.16-.14-3.4-3.52-5.95-7.58-7.63-12.19-.04-.12-.03-.28.01-.41 1-3.19 2.45-6.18 4.22-9.01.75-1.19 1.58-2.34 2.37-3.5.07-.09.14-.17.25-.32.03.59.34 1.07.1 1.64-.31.74-.51 1.51-.47 2.32.02.3.09.58.3.86.21-.59.37-1.17.83-1.61.14.24.16.45.08.71-.32.96-.54 1.94-.48 2.96.02.32.09.62.18.94.28-.76.74-1.39 1.28-1.99.03.05.06.08.08.11.71 1.47 1.62 2.81 2.71 4.03.05.06.05.17.07.25z"/><path fill="#2B2B2B" d="M-38.485-10.406s-5 9.785-2.66 18.188c.29.23-.47-.363-1.374-1.404-.13-.158-1.81-11.254 1.59-16.146-4.57 5.426-2.41 15.12-2.6 14.838-.41-.604-.77-1.27-1.02-1.968-2.34-10.956 5.75-17.55 5.75-17.55l.32 4.042z" opacity=".2"/><path fill="#E65270" d="M38.03-45.635c-.206-.314-.445-.63-.635-.978-.175-.316-.21-.676-.094-1.032.15-.44.44-.61.9-.545.37.056.74.112 1.11.124.4.013.42-.04.47-.42.01-.102.03-.206.06-.298.15-.377.37-.702.81-.76.43-.056.73.182.96.51.69.97.12 2.28-1.07 2.438-.36.05-.75-.01-1.13-.02-.07-.004-.14-.017-.22-.023-.01.03-.03.05-.05.07.11.12.18.28.31.35.27.16.56.22.9.18 2.04-.23 3.98.01 5.71 1.23.96.68 1.67 1.57 2.21 2.61l.02.02c.07.19.21.42.03.56-.11.09-.35.05-.52 0-.76-.25-1.5-.56-2.27-.77-1.12-.31-2.29-.32-3.45-.25-1.56.09-3.1.34-4.58.89-1.65.63-3.15 1.5-4.45 2.71-.15.14-.3.28-.46.39-.28.19-.47.1-.48-.24-.01-.24.02-.49.07-.73.56-2.41 2.02-4.11 4.19-5.24.57-.29 1.18-.5 1.73-.74z"/><linearGradient id="q" x1="44123.051" x2="44118.996" y1="21.721" y2="-26.018" gradientUnits="userSpaceOnUse" gradientTransform="matrix(-1 0 0 1 44076.355 0)"><stop offset="0" stop-color="#FAA7B5"/><stop offset=".384" stop-color="#FAA100"/><stop offset=".732" stop-color="#BF73F2"/></linearGradient><path fill="url(#q)" d="M-48.025-.646c-.087-8.72 2.718-16.29 8.558-22.715-.082.59-.19 1.18-.24 1.77-.084 1.01-.137 2.02-.186 3.03-.01.2-.062.37-.178.53-2.19 3.15-4.2 6.42-5.8 9.92-.81 1.77-1.51 3.6-1.88 5.52-.12.62-.19 1.25-.29 1.93z"/><linearGradient id="r" x1="44050.848" x2="44052.652" y1="61.92" y2="-22.035" gradientUnits="userSpaceOnUse" gradientTransform="matrix(-1 0 0 1 44076.355 0)"><stop offset="0" stop-color="#FAA7B5"/><stop offset=".384" stop-color="#FAA100"/><stop offset=".732" stop-color="#BF73F2"/></linearGradient><path fill="url(#r)" d="M23.298 28.03c1.046 1.81 2.125 3.55 2.508 5.602.064.343.044.708.023 1.062-.12 1.978.09 3.91.73 5.793.05.167.12.343.12.513-.01.14-.08.304-.17.415-.12.14-.29.09-.44.003-.5-.28-.85-.69-1.14-1.166-.59-.96-.9-2.02-1.11-3.106-.6-2.975-.69-5.983-.57-9.007 0-.02.01-.03.04-.11z"/><path fill="#8B4FBA" d="M23.914 39.555c.19.404.972 1.288 1.286 1.543l.707.45c-.71-1.81-.965-3.655-.965-5.585 0-1.626.5-3.136.58-4.754.064-1.34-.517-2.01-1.21-3.09-.31-.49-.737-1.55-1.415-1.55-.314.77-.263 1.73-.27 2.56-.01.98-.168 1.95-.13 2.94.075 1.88 1.09 6.78 1.417 7.47z" opacity=".4"/><path fill="#E65270" d="M48.256-38.39c-.03-.024-.04-.028-.043-.034-.77-1.58-2.136-2.27-3.788-2.41-2.73-.232-5.347.28-7.83 1.42-1.048.483-1.944 1.183-2.448 2.26-.218.464-.324.982-.487 1.493-.542 0-1.187-.54-1.23-1.12-.014-.19.065-.4.15-.58.343-.71.894-1.25 1.495-1.73 1.545-1.25 3.314-2.04 5.232-2.5 2.52-.61 5.038-.63 7.53.13.59.18 1.15.48 1.697.77.424.22.64.61.577 1.12-.06.54-.35.93-.85 1.17z"/><path fill="#2B2B2B" d="M48.256-38.39c-.03-.024-.04-.028-.043-.034-.77-1.58-2.136-2.27-3.788-2.41-2.73-.232-5.347.28-7.83 1.42-1.048.483-1.944 1.183-2.448 2.26-.218.464-.324.982-.487 1.493-.542 0-1.187-.54-1.23-1.12-.014-.19.065-.4.15-.58.343-.71.894-1.25 1.495-1.73 1.545-1.25 3.314-2.04 5.232-2.5 2.52-.61 5.038-.63 7.53.13.59.18 1.15.48 1.697.77.424.22.64.61.577 1.12-.06.54-.35.93-.85 1.17z" opacity=".4"/><path fill="#0D0D0D" d="M20.855-13.3c-.02-.976.185-1.895.606-2.767.86-1.75 2.26-2.896 4.02-3.647 1.54-.656 3.15-.88 4.81-.793.02 0 .04.01.12.032-1.16.18-2.24.468-3.28.885-1.81.723-3.4 1.75-4.64 3.284-.66.82-1.17 1.733-1.51 2.735-.03.09-.07.18-.1.27zM34.41.682c1.788 1.09 2.174 3.654 1.03 5.12.268-1.83-.102-3.53-1.03-5.12zm2.948-10.058c.874-.716 1.925-.914 3.022-.895.438.01.874.08 1.312.1.237.01.485-.01.718-.06.442-.1.64-.04.79.39.342.97.503 1.97.388 2.99-.056.49-.158.99-.352 1.44-.763 1.78-3.073 2.51-4.784 1.54-.22-.13-.428-.27-.625-.43-.208-.17-.396-.37-.612-.57.096-.11.176-.22.266-.31.21-.22.29-.47.23-.75-.19-.89.19-1.52.93-1.92.53-.29 1.11-.5 1.68-.69.3-.1.6-.17.91-.24.1 0 .14.02.21.08.46.3.79.69 1 1.2.11-.3.09-.81-.01-1.18-.06-.23-.02-.8.1-.96-.01-.01-.02-.02-.02-.03-.05.02-.11.05-.16.08-.59.36-1.25.47-1.93.56-.83.1-1.64.3-2.36.78-.85.58-1.31 1.38-1.36 2.42 0 .03 0 .06-.01.14-.77-1.52-.54-2.71.7-3.73z"/><linearGradient id="s" x1="44033.848" x2="44038.316" y1="-2.303" y2="-9.677" gradientUnits="userSpaceOnUse" gradientTransform="matrix(-1 0 0 1 44076.355 0)"><stop offset="0" stop-color="#FAA7B5"/><stop offset=".384" stop-color="#FAA100"/><stop offset=".732" stop-color="#BF73F2"/></linearGradient><path fill="url(#s)" d="M38.49-6.12c0-.94.764-1.703 1.703-1.703.942 0 1.705.763 1.705 1.704s-.763 1.71-1.705 1.71c-.94 0-1.702-.76-1.702-1.7z"/><use width="6" height="7" x="-3" y="-3.5" transform="matrix(-.2012 0 0 .2012 39.05 -5.13)" overflow="visible" xlink:href="#t"/><path fill="#FFF" d="M46.108-34.83c.302-.188.773-.108.948.224.726 1.382.66 2.992-.05 4.366-.41.788-1.63.152-1.224-.633.485-.94.584-2.093.1-3.014-.172-.33-.11-.736.226-.943z"/><path fill="#430A1D" d="M-27.877-38.81c-.43 12.32 7.165 8.313 10.544 13.514.276.324.437.688.563.97-3.793-2.088-14.424-.693-11.107-14.483z" opacity=".2"/><path fill="#2B2B2B" d="M-33.66-14.793c10.43 8.98 31.024 8 32.53 7.873-8.637-6.16-34.55-.37-35.5-19.122-1.684 5.326.483 9.108 2.97 11.25z" opacity=".2"/><path fill="#430A1D" d="M-16.988-24.815v-4.645c0-1.922-2.416-.874-3.348 1.765 2.33.913 3.348 2.88 3.348 2.88z" opacity=".2"/><path fill="#430A1D" d="M-18.28-25.728c1.747 3.083-.048 5.75-.327 5.864.993.052 2.9 1.914 3.354 2.534.71.97.753 2.38.813 3.534 1.41.063 2.4.926 3.682 1.232-1.09-1.02-2.57-2.23-3.23-3.605-.59-1.22-1.088-2.62-1.484-3.92-.323-1.06-.624-2.12-.824-3.22-.148-.81-.63-1.92-.543-2.71 0 0-.18-7.17 1.26-10.71-2.72.93-4.15 3.15-4.64 4.01-.56.98-1.62 3.39-.31 4.94.85.31 1.78 1.22 2.26 2.08z" opacity=".2"/><path fill="#0D0D0D" d="M-43.785-35.043c5.482-7.553 12.814-12.407 21.927-14.516 3.036-.7 6.123-.89 9.237-.88 7.61.04 15.23.02 22.85.02 5.12 0 10.25 0 15.37.02 1.22 0 2.43.09 3.6.49 1.14.4 2.03 1.1 2.52 2.23.7 1.64.1 3.7-1.42 4.82-1.12.82-2.4 1.05-3.75.99-.37-.01-.73-.07-1.09-.11-.09-.01-.17-.03-.25-.01-.12.03-.23.09-.34.13.06.1.11.21.19.28 1.39 1.19 2.35 2.65 2.81 4.42.16.65.21 1.3.15 1.96l-.01.16c-.02.34.1.45.44.47.99.05 1.99.09 2.98.17.47.04.94.16 1.48.19-.07-.08-.11-.2-.2-.24-.8-.37-1.32-.98-1.58-1.79-.31-.96-.52-1.95-.48-2.96.07-1.64.71-3.06 1.75-4.31.93-1.12 2.09-1.96 3.39-2.6.17-.08.21-.15.15-.34-.17-.54-.15-1.08.04-1.62.11-.33.32-.57.62-.74.68-.38 1.47-.43 2.22-.12.02-.1.04-.23.07-.33.21-.82.74-1.15 1.54-1.63H41c.023 0 .044.06.07.06 1.404.24 1.995 1.53 1.83 2.74-.04.32-.13.63-.192.91.64.17 1.29.3 1.92.52 2.894 1.01 4.805 2.96 5.615 5.94.32 1.19.12 2.26-.8 3.14-.06.06-.067.2-.05.29.18 1.13.454 2.25.53 3.38.17 2.69-.67 5.04-2.54 7.01-.11.12-.12.22-.09.36.124.6.265 1.2.34 1.81.153 1.23-.316 2.25-1.135 3.13-.07.08-.153.17-.19.27-.23.69-.7 1.15-1.33 1.47-1.26.63-2.59.76-3.97.53-.9-.15-1.723-.53-2.54-.91-.36-.17-.69-.25-1.02.04-.056.05-.145.06-.2.11-.09.09-.245.21-.23.28.027.11.16.24.275.29.63.25 1.29.38 1.97.38.516 0 1.034.02 1.544.08 1.63.2 3.12.78 4.52 1.62.092.06.2.1.3.12 1.81.28 3.266 1.7 3.58 3.5.03.18.03.39.12.53.77 1.19.83 2.45.39 3.74-.28.82-.67 1.61-.98 2.42-.164.44-.333.88-.375 1.34-.11 1.28-.28 2.55-.625 3.79C47 .61 45.69 2.9 43.587 4.7c-2.12 1.815-4.61 2.77-7.37 3.064-.24.03-.37.107-.476.347-.61 1.37-1.6 2.33-3.02 2.83-.37.13-.74.16-1.09 0-.5-.22-1-.45-1.45-.77-1.16-.81-2.08-1.86-2.85-3.06-.06-.09-.13-.2-.21-.23-.12-.04-.3-.05-.39.01-.07.05-.08.24-.06.36.04.14.14.25.22.37 2.03 2.93 3.32 6.15 3.91 9.67.02.11.1.23.18.31.5.51 1.01 1 1.5 1.51.79.81 1.28 1.8 1.54 2.9.07.28.1.58.12.87.01.09-.08.18-.13.28-.1-.05-.22-.09-.28-.17-.13-.18-.23-.39-.35-.58-.08-.12-.19-.23-.28-.35-.03.07-.02.11-.01.15.53 1.35.9 2.74 1.08 4.18.05.4.09.81.1 1.21.01.29-.19.48-.39.4-.1-.04-.19-.13-.27-.21-.79-.78-1.72-1.36-2.67-1.91-.02.03-.04.04-.04.06-.02.14-.05.28-.07.42-.26 1.67-.69 3.29-1.2 4.89-.39 1.23-.61 2.48-.39 3.77.13.77.4 1.47 1.06 1.96.05.04.08.1.14.16-.07.04-.12.08-.17.09-.94.21-1.92.09-2.45-.99-.06-.12-.14-.23-.25-.41-.12.24-.23.39-.27.56-.19.85-.24 1.72-.16 2.6.1 1.08.48 2.07.95 3.03.12.25.24.5.31.77.14.48-.13.83-.63.82-.25 0-.51-.04-.74-.13-1.23-.46-2.17-1.28-2.79-2.44-.05-.09-.1-.19-.15-.3-.49.48-.95.95-1.18 1.59-.15.41-.35.81-.55 1.19-.15.28-.26.27-.44.02-.05-.07-.09-.14-.14-.21-.14-.16-.24-.16-.35.02-.09.17-.17.35-.23.53-.32.87-.85 1.59-1.57 2.17-.05.04-.11.07-.22.14.04-.27.07-.48.1-.7.03-.22.05-.44.08-.67-.07.01-.09.01-.1.02-.07.05-.14.09-.21.14-2.93 2.02-6.12 3.43-9.58 4.25-1.06.25-2.16.34-3.11.94-.02.02-.05.02-.07.04-.19.07-.33.03-.47-.11-.09-.09-.26-.13-.39-.13-.42.01-.84.1-1.26.14-.38.03-.78.12-1.15.21-.63.16-1.25.78-1.88.78H.9c-.147 0-.32-.42-.438-.57-.21-.26-.464-.56-.79-.58-2.152-.13-4.28-.44-6.38-.97-3.19-.79-6.19-2.02-8.874-3.95-1.96-1.41-3.64-3.09-4.84-5.22-.24-.43-.43-.89-.63-1.35-.14-.35-.18-.72-.06-1.09.1-.3.33-.47.64-.42 1.76.27 3.24-.37 4.61-1.36 1.36-.99 2.4-2.26 2.99-3.85.88-2.35.4-4.45-1.24-6.31-.16-.19-.35-.36-.55-.56-.07.29-.14.55-.21.8-.37 1.27-.9 2.46-1.8 3.45-.52.58-.73-.1-.6-1.15.29-2.22-.4-4.13-1.94-5.74-.09-.1-.233-.16-.37-.21-1.63-.58-3.27-1.12-4.89-1.73-2.892-1.07-5.69-2.37-8.334-3.96l-.11-.06c-.25.17-.356.41-.345.68.01.36.07.72.11 1.08 0 .04.01.08.02.12.08.64-.16.84-.75.56-.29-.14-.56-.38-.77-.63-.68-.81-1.09-1.77-1.5-2.72-.21-.51-.38-1.03-.6-1.54-.08-.18-.2-.37-.36-.5-2.29-1.95-4.43-4.04-6.24-6.46-1.55-2.1-2.87-4.3-3.95-6.66l-.09-.18c-.01-.01-.03-.02-.06-.05-.36 2.07-.43 4.12-.22 6.2-.16-.62-.35-1.23-.49-1.85-.59-2.5-.77-5.04-.6-7.6.01-.13-.03-.27-.07-.4-.76-2.4-1.29-4.85-1.51-7.35-.78-8.75 1.34-16.75 6.51-23.87zM-45.865-8.1c1.6-3.498 3.607-6.762 5.794-9.917.11-.166.16-.33.17-.534.05-1.02.1-2.03.18-3.04.05-.6.16-1.19.24-1.78-5.84 6.43-8.64 14-8.55 22.72.1-.68.16-1.31.28-1.93.37-1.93 1.06-3.75 1.88-5.53zm21.462 25.82c-.013-.05-.012-.068-.02-.082l-.132-.187c-1.908-2.67-3.47-5.53-4.622-8.61-.827-2.2-1.407-4.47-1.66-6.82-.178-1.64-.192-3.29 0-4.93.01-.07.008-.2-.037-.23-.373-.27-.757-.52-1.15-.78-.025.1-.046.16-.06.23-.602 2.71-.93 5.45-.77 8.23.1 1.78.406 3.52 1.07 5.19.018.05.026.1.04.15-.213-.3-.394-.61-.55-.94-1.232-2.56-1.72-5.29-1.816-8.1-.087-2.53.17-5.06.66-7.56-.426-.15-.905-.08-1.595.26-.02-.08-.02-.19-.067-.24-1.085-1.22-1.996-2.55-2.707-4.02-.01-.04-.04-.06-.07-.11-.53.61-.99 1.23-1.27 2-.08-.31-.15-.62-.17-.93-.06-1.02.16-2 .49-2.95.09-.26.06-.47-.07-.71-.46.44-.62 1.02-.83 1.61-.21-.28-.28-.56-.29-.86-.04-.81.16-1.58.47-2.31.24-.57-.07-1.05-.1-1.64-.11.15-.18.23-.25.33-.79 1.17-1.61 2.31-2.36 3.51-1.77 2.83-3.21 5.82-4.21 9.01-.03.13-.05.29 0 .41 1.68 4.61 4.23 8.67 7.63 12.2.04.04.1.08.17.14l-.01-.17c-.14-1.17-.32-2.34-.42-3.52-.17-2.06-.14-4.12.27-6.16.28-1.36.73-2.67 1.58-3.8.59-.77 1.3-1.39 2.22-1.75-.22.22-.46.42-.66.66-.55.67-.93 1.43-1.21 2.24-.59 1.71-.73 3.48-.74 5.27-.01 1.77.15 3.53.39 5.28.27 1.88.58 3.74 1.12 5.56.35 1.18.77 2.34 1.44 3.39.09.15.25.25.38.38.08-.16.2-.31.23-.48.09-.54.23-1.06.02-1.64-.8-2.27-1.25-4.61-1.46-7-.04-.5-.06-1-.08-1.51.13.45.19.91.29 1.36.62 3.03 2 5.64 4.33 7.7.22.2.47.36.73.5 1.66.87 3.38 1.59 5.13 2.22l.8.28zM26.684 41c.004-.17-.065-.347-.122-.514-.642-1.884-.847-3.816-.732-5.793.02-.354.04-.72-.023-1.062-.383-2.05-1.462-3.79-2.508-5.6-.03.08-.04.1-.04.11-.12 3.02-.03 6.03.56 9.01.22 1.09.53 2.15 1.11 3.11.28.48.64.89 1.13 1.17.15.09.31.14.43 0 .09-.1.16-.27.17-.41zm1.25-16.02c-.478-.344-.98-.668-1.503-.933-1.84-.927-3.79-1.587-5.73-2.3-.37-.137-.73-.335-1.07-.555-.67-.438-1.16-1.052-1.59-1.716-.2-.314-.4-.638-.6-.957.01.1.04.2.07.29.23.77.49 1.54.67 2.33.26 1.1.66 2.12 1.27 3.07.33.5.7.99 1.03 1.51.21.32.38.67.53 1.03.09.21.08.46.11.69-.03.02-.07.03-.1.05-.1-.09-.22-.16-.3-.26-.35-.41-.69-.83-1.06-1.23-.08-.09-.25-.18-.34-.14-.08.03-.17.22-.16.33.05.44.08.89.21 1.31.19.57.49 1.11.72 1.67.11.27.18.58.21.88.01.14-.12.29-.19.43-.12-.08-.26-.15-.35-.25-.17-.19-.31-.4-.49-.58-.18-.18-.34-.15-.44.08-.07.15-.14.34-.12.5.06.39.17.78.27 1.17.1.35.23.71.3 1.07.05.24-.01.48-.26.66-.07-.11-.15-.19-.19-.3-.1-.22-.18-.44-.27-.66-.21-.49-.4-1.01-.66-1.48-.22-.42-.44-.38-.68.03-.46.79-.92 1.59-1.45 2.34-.29.42-.46.84-.5 1.33-.06.65-.09 1.3-.16 1.95-.03.24-.09.49-.36.72l-.14-.73c-.07-.33-.11-.67-.2-.99-.06-.23-.25-.25-.36-.05-.1.18-.17.4-.19.61-.03.4.01.8-.01 1.19 0 .18-.07.37-.14.54-.03.07-.12.12-.19.18-.04-.08-.1-.15-.13-.23-.03-.1-.03-.2-.05-.3-.04-.29-.06-.59-.13-.88-.07-.31-.27-.36-.46-.11-.17.23-.31.5-.4.77-.13.43-.19.87-.32 1.3-.06.2-.2.38-.33.55-.04.06-.18.1-.26.08-.06-.01-.11-.14-.12-.23 0-.32.01-.65.01-.98v-.5c-.07.01-.1.01-.12.02-.04.02-.08.06-.11.09-.34.36-.56.77-.63 1.27-.03.22-.04.44-.08.65-.05.25-.2.35-.46.32-.27-.03-.44-.23-.47-.58-.02-.23 0-.45 0-.71-.31.16-.58.3-.86.44-2.85 1.42-5.85 2.29-9 2.66-2.03.23-4.07.24-6.08-.17-1.22-.25-2.38-.65-3.39-1.41-.15-.11-.29-.24-.43-.36 1.12.65 1.78.91 2.79 1.1 1.84.36 3.69.3 5.53.04 3.24-.47 6.3-1.5 9.18-3.07 2.23-1.21 4.24-2.7 5.87-4.68.12-.14.24-.3.36-.45-3.34 1.6-7.1-1.4-10.87-.07 5.16-2.66 8.22.77 11.13-1.45.74-.56.88-2.02-.82-1.77-1.61.23 2.44-.57 3.16-4.78-.04-.69-.14-1.39-.29-2.1-.69-3.16-2.16-5.94-4.18-8.44-2.09-2.53-4.7-4.44-7.63-5.94-.04-.01-.08-.03-.14-.05.01.03.01.05.01.06.04.06.08.13.13.19 1.4 2.08 2.55 4.28 3.11 6.74.39 1.69.43 3.38-.1 5.06-.6 1.87-1.79 3.3-3.35 4.44-1.76 1.28-3.73 2.08-5.79 2.69-.44.13-.89.25-1.38.39l.08-.08.26-.1c1.44-.56 2.81-1.25 4.05-2.18 1.79-1.33 3.1-3 3.7-5.18.53-1.92.41-3.85-.06-5.76-.61-2.48-1.73-4.73-3.09-6.88-.31-.5-.68-.83-1.23-1-.68-.18-1.34-.44-2.07-.7C.1 7.74.16 10.86-.24 12.7c-.01-.04-.02-.06-.02-.08-.07-1.49-.58-2.84-1.41-4.06C-2.912 6.73-4.6 5.39-6.5 4.31c-.15-.08-.33-.11-.492-.16.69.79 1.218 1.66 1.527 2.65.3.96.405 2.46.206 3-.31-1.04-.64-1.73-1.34-2.62-1.2-1.53-2.59-2.85-4.21-3.95-1.08-.74-2.21-1.35-3.43-1.82C-16.45.61-18.7.1-20.93-.44c-1.96-.48-3.93-.98-5.88-1.53-1.06-.29-2.09-.73-2.97-1.43-.16.35-.46 1.6-.47 2.59-.13 11.65 9.14 17.87 11.97 21.13.828.95 1.3 2.11 1.71 3.29.17.48.318.96.47 1.46.03-.03.06-.06.07-.08.79-1.51 1.278-3.06.898-4.81-.58-2.68-1.66-5.08-3.69-6.98-.03-.02-.04-.05-.11-.13.09.05.13.07.16.09 1.67.97 3.2 2.11 4.49 3.56 2.17 2.42 3.34 5.26 3.5 8.52.07 1.42-.13 2.82-.288 4.22-.43 3.73-3.15 6.75-6.81 7.64-.278.07-.557.16-.806.29-.35.19-.45.495-.32.865.05.13.12.26.2.38.65 1.01 1.477 1.848 2.49 2.49.52.33 1.04.66 1.54 1.02 2.06 1.47 4.28 2.62 6.73 3.29 1.01.28 2.03.52 3.095.43.33-.03.66-.15.99-.19.13-.02.28.08.43.126-.08.08-.15.21-.25.26-.64.37-1.34.48-2.07.5-1.06.03-2.1-.17-3.14-.38-.11-.02-.22-.02-.32-.03.85.73 1.81 1.21 2.85 1.52 1.71.52 3.47.64 5.24.49.57-.05 1.15-.07 1.67-.37.52-.29 1.06-.53 1.59-.79.11-.06.24-.08.36-.12l.06.06c-.06.14-.11.29-.18.43-.2.37-.4.74-.6 1.12-.04.07-.02.17-.03.26.08 0 .17.03.24.01.4-.14.82-.26 1.21-.44.55-.27 1.13-.36 1.74-.4.82-.06 1.65-.14 2.46-.25 1.2-.18 2.12-.8 2.71-1.87.14-.25.28-.5.44-.74.05-.09.13-.16.19-.24.03.01.06.02.09.04l-.57 1.95c.62-.14 1.27-.58 1.79-1.18.26-.3.49-.63.75-.93.1-.12.24-.21.36-.32l.1.06-.15 1.29c.02.01.05.02.08.03.38-.24.77-.48 1.16-.71 1.31-.79 2.55-1.68 3.47-2.94.12-.17.22-.15.29.06.08.27.13.54.22.8.02.08.14.19.2.18.09-.01.21-.09.24-.17.06-.17.09-.36.1-.54.03-.37.02-.74.06-1.11.01-.11.13-.22.2-.32.1.08.23.15.28.26.15.3.25.62.39.93.12.29.2.29.38.05.24-.32.51-.58.96-.55.42.03.47 0 .63-.39.26-.66.49-1.34.76-2.01.13-.31.33-.6.49-.91.04-.07.07-.17.05-.24-.56-1.8-.71-3.65-.73-5.51-.02-1.73.01-3.45-.04-5.17-.05-1.35-.27-2.66-1.28-3.7.14.04.27.09.4.16.64.33 1.17.81 1.64 1.37 1.02 1.23 1.7 2.65 2.3 4.12.48 1.18.96 2.36 1.46 3.52.12.29.33.55.52.81.04.06.18.13.23.11.07-.04.15-.15.16-.23.02-.19.02-.39.01-.58-.04-.97-.12-1.93.04-2.89.03-.15.07-.31.03-.45-.36-1.31-.83-2.59-1.64-3.7-.03-.03-.04-.08-.1-.18.58.26.96.64 1.28 1.09.31.45.59.93.9 1.43l.38-1.56c.18-.75-.05-1.36-.65-1.8zm.653-7.716c-1.478-1.396-3.23-2.38-5.07-3.217-2.49-1.132-5.1-1.917-7.76-2.535-.95-.22-1.907-.412-2.923-.63.41.507.77.96 1.143 1.41.035.043.115.062.178.07 1.667.174 3.27.605 4.813 1.247 3.57 1.48 6.628 3.72 9.353 6.43.03.02.05.05.07.08-.09-.03-.16-.08-.23-.12-2.3-1.6-4.66-3.09-7.15-4.38-1.59-.82-3.21-1.58-4.96-2.02-.41-.11-.83-.18-1.31-.28l.12.2c.55.95 1.15 1.89 1.63 2.88.3.62.72 1.08 1.25 1.48 1.98 1.5 4.16 2.67 6.39 3.76.02 0 .05 0 .12.01-.84-1.35-1.66-2.65-3.12-3.39.38.06.76.12 1.12.23 1.12.34 2.06 1 2.95 1.74 1.09.9 2.13 1.85 3.23 2.74.57.46 1.17.9 1.83 1.22.69.33 1.45.5 2.18.73.19.06.39.07.67.12-.09-.46-.13-.87-.25-1.25-.84-2.56-2.27-4.74-4.22-6.59zM15.104-2.5c-.54-.302-1.116-.572-1.706-.752-1.21-.366-2.468-.372-3.72-.37-.89.003-1.777.015-2.664.005-.222-.003-.442-.073-.663-.113v-.124c.19-.073.38-.162.57-.218.62-.176 1.24-.334 1.86-.506.12-.035.23-.104.35-.158l-.01-.072c-.08-.032-.16-.077-.24-.096-1.24-.246-2.48-.546-3.73-.723C3.03-5.93.93-6.297-1.12-6.92c-.172-.052-.365-.077-.545-.065-2.073.143-4.146.293-6.22.444-2.4.17-4.797.19-7.19-.06-2.723-.29-5.355-.94-7.903-1.92-3.66-1.42-6.98-3.44-10.097-5.8-.054-.04-.104-.09-.156-.13.1.02.18.06.25.1 2.84 1.7 5.78 3.21 8.88 4.4 2.63 1 5.33 1.72 8.12 2.09 2.02.27 4.04.33 6.07.31 2.27-.01 4.54 0 6.82 0 .03 0 .05 0 .09-.01-.01-.01-.01-.03-.02-.03-.06-.02-.11-.05-.17-.07-2.03-.8-3.96-1.79-5.72-3.08-.53-.4-1.1-.69-1.71-.92-.47-.18-.95-.36-1.43-.51-2.48-.79-5.05-1.17-7.6-1.63-2.11-.38-4.21-.77-6.29-1.23-1.9-.42-3.74-1.06-5.44-2.03-2.93-1.67-4.65-4.15-5.12-7.49-.07-.53-.12-1.06-.17-1.53-.1.19-.21.42-.34.64-1.11 1.86-1.89 3.85-2.13 6.02-.33 2.93.51 5.46 2.63 7.53.08.08.14.2.2.31.3.62.56 1.27.91 1.86 1.01 1.66 2.44 2.92 4.06 3.98 2.14 1.4 4.48 2.38 6.89 3.2C-20.59-1.2-16.67-.36-12.73.39c3.205.618 6.42 1.21 9.63 1.833 2.5.484 4.932 1.17 7.235 2.305 2.89 1.43 5.564 3.13 7.83 5.44.074.08.218.12.332.13 1.51.05 3.02.19 4.504.47 4.17.79 7.99 2.42 11.48 4.81.06.04.12.07.22.128-.02-.124-.03-.2-.05-.27-.29-1.304-.67-2.58-1.17-3.82C24.86 5.34 20.82.688 15.11-2.492zM48.63-34.24c-.102-.996-.31-1.983-.527-2.963-.34-1.508-1.26-2.505-2.753-2.956-.668-.2-1.354-.28-2.05-.28-1.367 0-2.706.22-4.03.55-1.1.28-2.165.65-3.12 1.28-.912.61-1.59 1.39-1.854 2.48-.162.68-.116 1.36-.005 2.04.05.27.17.39.41.49 2.18.87 3.92 2.25 4.96 4.4.14.29.34.43.64.46 1.04.12 2.06.08 3.01-.43.62-.32 1.22-.28 1.83.01.25.12.49.27.71.44.28.21.52.45.83.72.03-.04.05-.08.07-.11 1.51-1.76 2.12-3.8 1.89-6.08zm-16.1-4.448c.166-.11.316-.25.466-.388 1.297-1.21 2.792-2.087 4.45-2.71 1.478-.554 3.015-.803 4.58-.887 1.158-.063 2.324-.053 3.45.254.77.21 1.51.53 2.27.78.162.06.408.09.517.01.185-.14.046-.37-.022-.56 0-.01-.01-.01-.01-.02-.54-1.03-1.25-1.92-2.21-2.6-1.72-1.22-3.67-1.46-5.7-1.23-.33.04-.62-.02-.89-.17-.13-.07-.2-.23-.31-.35l.06-.06c.08.01.15.02.22.02.38.01.76.07 1.13.02 1.19-.16 1.76-1.47 1.08-2.44-.23-.32-.53-.56-.95-.51-.43.06-.65.39-.8.76-.04.09-.05.2-.06.3-.05.38-.07.43-.47.42-.37-.01-.73-.07-1.1-.12-.46-.06-.75.11-.89.55-.11.36-.08.72.1 1.03.19.35.43.66.64.98-.55.23-1.16.44-1.73.74-2.17 1.13-3.64 2.83-4.19 5.24-.06.24-.08.49-.07.73.01.35.2.44.48.25zm1.13 3.025c.162-.512.27-1.03.486-1.495.504-1.076 1.4-1.774 2.447-2.258 2.484-1.142 5.103-1.653 7.83-1.42 1.653.14 3.02.83 3.79 2.41.002.005.012.01.042.033.505-.234.787-.624.855-1.172.062-.504-.153-.894-.577-1.12-.548-.29-1.107-.592-1.697-.77-2.492-.755-5.012-.737-7.53-.127-1.918.465-3.688 1.252-5.232 2.5-.602.485-1.152 1.02-1.495 1.73-.09.177-.17.39-.15.575.04.58.68 1.117 1.23 1.114zm-79.15 12.69c-2.023 3.52-3.076 7.253-3.077 7.826-.006 1.79.132 3.576.4 5.354.063.412.145.82.216 1.232.07-.08.1-.15.12-.23.3-1 .56-2 .9-2.98 1.8-5.13 4.53-9.72 7.92-13.95.12-.16.23-.34.29-.53.73-2.27 1.79-4.33 3.14-6.19-1.52.64-3.25.88-5.31 3.25 2.53-4.88 8.53-6.82 8.53-6.82 3.33-2.99 7.22-4.96 11.52-6.14.34-.1.7-.17 1.05-.26-.08.07-.17.1-.25.14-3.2 1.14-6.15 2.74-8.82 4.84-3.33 2.62-5.84 5.85-7.34 9.83-.16.43-.24.82-.08 1.27.11.3.17.62.26.92.7 2.31 1.81 4.38 3.59 6.05 1.7 1.6 3.74 2.57 5.96 3.23 2.65.77 5.39 1.06 8.12 1.42 1.58.21 3.16.46 4.73.7.42.07.84.17 1.29.26-.04-.05-.05-.08-.06-.1-1.24-1.38-2.26-2.9-3.08-4.57-.05-.1-.16-.2-.27-.24-.73-.23-1.45-.5-2.2-.65-1.11-.22-2.24-.3-3.35-.52-5.95-1.18-7.78-4.37-7.75-4.34 1.81 1.92 4.7 2.46 5.46 2.73 1.78.62 3.62.78 5.49.77.54-.01 1.09-.04 1.65-.07-1.68-5.47-1.46-10.81.82-16.03 0 .1-.02.19-.05.28-.89 3.37-1.25 6.79-.74 10.27.61 4.22 2.45 7.82 5.51 10.78 2.3 2.22 5 3.82 7.9 5.11 2.79 1.25 5.68 2 8.6 2.71 2.19.53 4.4 1.04 6.57 1.68 2.9.85 5.53 2.25 7.77 4.31.34.32.69.64.98 1.02 1.89 2.44 4.19 4.35 7.02 5.6.18.6.49 1.23.98 1.89.69.92 1.54 1.69 2.47 2.37.26.19.6.3.93.37.35.07.57-.1.69-.44.03-.1.05-.2.07-.3.19-.07.37-.17.56-.31.12-.1.25-.21.36-.32.52-.53.88-1.15 1.18-1.82.06-.15.15-.21.3-.22.35-.05.7-.1 1.05-.17C42.18 4.97 46.28.69 46.99-5.47c.068-.555.06-1.13.23-1.65.22-.66.57-1.277.86-1.913.25-.558.54-1.106.76-1.68.23-.587.25-1.2.08-1.816-.06-.21-.19-.27-.35-.17-.24.15-.44.33-.67.5-.27.2-.52.43-.81.59-.24.13-.51.11-.72-.14.05-.03.09-.06.12-.1.58-.51 1.17-1.03 1.74-1.55.07-.06.117-.18.11-.28-.05-.81-.32-1.55-.9-2.14-.75-.75-1.63-1.16-2.72-.9-.03-.4-.056-.47-.29-.6-1.52-.82-3.13-1.31-4.87-1.27-1.28.03-2.436-.38-3.54-1-.344-.19-.71-.36-1.09-.46-1.19-.31-2.41-.4-3.64-.44-.1 0-.2 0-.3-.01.064-.07.127-.1.19-.11.98-.23 1.97-.26 2.974-.19.325.02.69.09.97-.02.828-.34 1.63-.74 2.424-1.15.22-.11.42-.17.644-.08.504.19 1.01.38 1.503.6 1.044.47 2.115.75 3.27.59.63-.09 1.25-.23 1.8-.56.356-.22.64-.5.666-.96.01-.06.06-.13.12-.18.15-.14.31-.26.46-.4.44-.4.63-.91.57-1.5-.04-.5-.19-.58-.63-.36-.21.11-.42.19-.64.03.28-.17.55-.33.81-.51.39-.27.53-.66.52-1.12-.04-1.3-1.56-2.44-2.87-2.15-.43.09-.81.26-1.05.67-.03.05-.12.11-.18.11-.34-.02-.69-.01-1.02-.09-.6-.13-1.2-.28-1.82-.16-.28.06-.57.13-.86.2-.23-.81-.61-1.53-1.12-2.18-1.19-1.5-2.75-2.46-4.54-3.05-2.33-.76-4.73-.85-7.12-.5-3.47.49-5.92 2.38-7.25 5.64-.33.81-.5 1.68-.75 2.52-.4 1.36-.93 2.66-1.63 3.89-1.13 1.98-2.62 3.6-4.66 4.68-2.29 1.2-4.72 1.45-7.24 1-.48-.09-.95-.21-1.47-.33.92-.06 1.77-.07 2.61-.16 2.34-.23 4.53-.94 6.52-2.2 2.37-1.5 4.14-3.47 4.88-6.26.4-1.49.95-2.94 1.65-4.32.46-.93.97-1.82 1.68-2.58 1.19-1.27 2.67-1.98 4.31-2.45.51-.14 1.01-.3 1.5-.46.25-.08.4-.25.5-.5.27-.71.35-1.44.21-2.19-.23-1.18-.8-2.18-1.58-3.07-.66-.77-1.5-1.33-2.33-1.89-.41-.27-.8-.57-1.17-.89-.32-.27-.52-.65-.5-1.08.03-.76.08-.88.84-.63.12.04.24.09.35.14.62.27 1.24.54 1.86.8 1.2.5 2.44.69 3.72.38 1.41-.34 2.41-1.17 2.86-2.59.09-.29.11-.6-.04-.86-.07-.13-.27-.26-.41-.26-.13 0-.28.14-.39.26-.06.07-.06.21-.09.31-.14.55-.38 1.03-.92 1.3-.1.05-.22.06-.33.1.72-.74 1.11-1.58 1.05-2.6-.04-.77-.64-1.27-1.42-1.23-.22.02-.38.12-.41.34-.03.27-.02.54-.02.81-.01.32.01.65-.03.96-.07.52-.39.85-.89 1.01-.24.08-.47.04-.69-.08.31-.06.61-.16.76-.45.15-.28.31-.57.38-.87.16-.65.09-1.29-.52-1.69-.27-.18-.64-.26-.97-.3-.71-.1-1.4.1-2.09.26-.41.1-.84.16-1.27.17-.4 0-.8-.08-1.2-.15-2.42-.43-4.85-.25-7.31-.22-2.67.03-5.33.02-7.99.02h-14.3c-1.97 0-3.94-.02-5.91-.01-2.71.01-5.4.32-8.02 1.01-10 2.61-17.49 8.03-22.42 17.11-2.17 4-3.42 8.28-3.85 12.78-.05.52 2.94-5.05 2.91-4.5z"/><path fill="#E65270" d="M32.72.608c-.838 1.79-.848 2.545.08 4.238.7 1.278 2.56.14 2.308 1.568-.106 1.24-1.405 2.602-1.646 2.898-.296.35-.46.696-.898.607-.4-.09-.78-.28-1.1-.52-1.138-.85-2.192-1.79-3.046-2.93-1.543-2.06-.907-3.31.9-4.95C30.083.83 32.81.41 32.72.6z"/><path fill="#2B2B2B" d="M31.048 7.4c.445.485 1.138.955 1.86 1.437.385.254-.758-2.867-1.09-3.7-1.093-2.73.338-4.42-.056-4.21-.866.46-2.103 2.066-2.19 3.06-.095 1.074.74 2.607 1.476 3.412z" opacity=".2"/><path fill="#0D0D0D" d="M32.375.775c-.84 1.788-.85 2.544.08 4.237.7 1.277 1.023 2.564.77 3.993-.027.16-.058.32-.11.475-.15.43-.412.64-.85.55-.4-.083-.83-.218-1.15-.456-1.136-.845-2.19-1.787-3.044-2.928-1.18-1.58-1.05-2.657-.15-3.854.26-.342.42-.332.75-.394.43-.08.52.515.38.756-.31.554-.52 1.11-.56 1.55-.09 1.075.51 2.243 1.25 3.048.68.746 2.06 1.904 3 2.185.23-.87-.25-2.61-.56-3.453-.37-1.03-1.5-2.912-1.22-4.138 0 0 .4-1.134.83-1.422.43-.286.62-.15.62-.15z"/><path fill="#8B4FBA" d="M-18.607-19.863c-.115-.006-.22.006-.308.053.11.006.212-.014.308-.053z" opacity=".2"/><path fill="#430A1D" d="M33.088-34.854c.98 1.49 2.084 1.994 3.33 3.167 1.185 1.113 2.095 2.456 3.275 3.55.924-.194 1.963-.038 2.91-.086.68-1.674 3.97-.08 4.272 1l.437-.656c.95-1.86-2.455-1.99-4.393-1.8-1.36.14-7.23-1.4-7.04-8.97-.66-1.01-2.22-.02-2.22-1.34 0-1.35.02-3.74 1.19-4.6-.34-1.18-1.5.07-1.82.54-.72 1.06-1.75 2.94-1.98 4.19-.4 2.15.96 3.4 2.03 5.03z" opacity=".2"/></symbol><symbol id="t" viewBox="-3 -3.5 6 7"><path fill="#FFF" d="M0-3.5c-.184 0-.368.05-.53.152l-2 1.25c-.292.183-.47.503-.47.848v2.5c0 .345.178.666.47.848l2 1.25c.162.1.346.152.53.152s.368-.05.53-.152l2-1.25c.292-.182.47-.503.47-.848v-2.5c0-.345-.178-.665-.47-.848l-2-1.25C.368-3.448.184-3.5 0-3.5z"/></symbol><g transform="matrix(.6098 0 0 .5735 -690.61 73.554)"><use width="100.904" height="101.91" x="-50.452" y="-50.955" transform="matrix(3.5035 0 0 -3.5035 1370.342 277.2)" overflow="visible" xlink:href="#u"/><path d="M1566.94 352.545h67.405v16.225h-48.82v28.613h46.02v15.635h-46.02v43.954h-18.584V352.545zm83.925-7.08h17.7v111.507h-17.7V345.465zm37.02 16.667c0-2.85 1.057-5.333 3.172-7.448 2.113-2.112 4.793-3.172 8.04-3.172 3.243 0 5.974 1.012 8.187 3.024 2.213 2.017 3.318 4.55 3.318 7.596 0 3.05-1.105 5.582-3.318 7.597-2.213 2.01-4.94 3.02-8.188 3.02s-5.926-1.06-8.04-3.17c-2.115-2.12-3.17-4.6-3.17-7.45zm2.508 24.042h17.7v70.798h-17.7v-70.798zm39.232 0h16.814v11.356h.29c1.57-3.54 4.3-6.66 8.18-9.365 3.88-2.704 8.48-4.057 13.79-4.057 4.62 0 8.58.812 11.87 2.434 3.29 1.623 5.99 3.762 8.11 6.416 2.11 2.655 3.66 5.704 4.64 9.145.98 3.443 1.47 6.983 1.47 10.62v44.25h-17.7V417.74c0-2.065-.15-4.23-.44-6.49-.3-2.26-.94-4.3-1.92-6.12-.99-1.82-2.34-3.32-4.06-4.5-1.73-1.18-4.01-1.77-6.86-1.77-2.86 0-5.32.566-7.38 1.695-2.07 1.13-3.77 2.58-5.09 4.353-1.33 1.77-2.34 3.812-3.03 6.12-.69 2.312-1.03 4.646-1.03 7.006v38.938h-17.7v-70.798h-.01zm86.135-40.71h17.7v70.504h.442l26.844-29.794h22.714l-30.68 32.007 32.598 38.8h-23.452l-28.02-36.28h-.444v36.29h-17.697V345.47h-.005z"/></g></svg>