<?xml version="1.0" encoding="utf-8"?>
<!-- Generator: Adobe Illustrator 19.1.0, SVG Export Plug-In . SVG Version: 6.00 Build 0)  -->
<svg version="1.1" id="Calque_1" xmlns="http://www.w3.org/2000/svg" xmlns:xlink="http://www.w3.org/1999/xlink" x="0px" y="0px"
	 viewBox="-159.8 21.5 254.8 206.6" enable-background="new -159.8 21.5 254.8 206.6" xml:space="preserve">
<g id="Hadoop">
	<g>
		<path d="M-127.6,166.3c-0.5,2.3-1.1,4.6-1.6,6.8c-0.3,1.4-0.6,2.7-0.9,4.1c-0.1,0.4,0,0.5,0.4,0.4c0.1,0,0.2,0,0.4,0
			c18.6,0,37.1,0,55.7,0c2,0,3.9,0.3,5.5,1.5c0.6,0.4,0.9,0,1.4-0.2c1.3-0.7,2.7-1.3,4.2-1.4c5.7-0.3,11.3-0.1,17-0.1
			c0.5,0,1.1,0,1.6,0c0.2,0,0.3,0,0.3-0.2c0.3-1.7,0.7-3.3,1.1-5c0.4-1.8,0.8-3.6,1.2-5.4c0.1-0.4,0.2-0.4,0.5-0.4
			c2.8,0,5.7,0,8.5,0c3.4,0,6.9,0,10.3,0c0.4,0,0.6,0,0.4,0.6c-0.7,2.8-1.3,5.7-1.9,8.5c-0.1,0.6-0.3,1.2-0.4,1.8
			c-0.1,0.3,0,0.4,0.3,0.4c0.1,0,0.2,0,0.4,0c10,0,19.9,0,29.9,0c1.8,0,3.5,0.4,5,1.5c0.2,0.2,0.4,0.2,0.7,0.1
			c1.2-0.7,2.5-1.1,3.9-1.4c0.5-0.1,1.1-0.1,1.6-0.1c22.6,0,45.3,0,67.9,0c2.4,0,4.7,0.6,6.4,2.5c1,1.2,1.5,2.5,1.7,4
			c0.2,2.2-0.3,4.3-0.8,6.4c-0.6,2.7-1.2,5.5-1.8,8.2c-0.4,2-0.9,4-1.3,6c-0.3,1.5-0.7,3-1.2,4.4c-0.4,1-1,2-1.7,2.8
			c-0.8,1-1.7,1.8-2.7,2.6c-1.4,1-3,1.7-4.7,2.1c-1.1,0.3-2.3,0.3-3.4,0.3c-3,0-6,0.1-9,0c-2.2-0.1-4.5,0-6.7-0.1
			c-0.4,0-0.6,0.2-0.6,0.5c-0.7,3.4-1.5,6.8-2.2,10.3c-0.1,0.3-0.3,0.4-0.5,0.4c-1.1,0-2.3,0-3.4,0c-5.1,0-10.1,0-15.2,0
			c-0.5,0-0.7,0-0.6-0.7c0.6-2.6,1.1-5.2,1.7-7.8c0.2-0.8,0.3-1.6,0.5-2.4c0.1-0.3,0-0.4-0.3-0.4c-2.7,0-5.4-0.1-8.1,0
			c-1.8,0.1-3.6,0.1-5.4,0.1c-2.8,0-5.5-0.1-8.3,0c-2.5,0.1-5.1,0.1-7.6,0.1c-1.6,0-3.2-0.2-4.8-0.9c-0.4-0.2-0.7-0.3-1-0.6
			c-0.4-0.3-0.6-0.2-1-0.1c-1.3,0.6-2.7,1-4.2,1.1s-2.9,0.1-4.4,0.1c-41.9,0-83.9,0-125.8,0c-0.8,0-0.8,0-0.6-0.7
			c0.6-2.8,1.3-5.7,1.9-8.5c0.7-3.3,1.4-6.5,2.2-9.8c0.5-2,0.8-4,1.3-5.9c0.2-0.7,0-0.9-0.7-0.9c-1.9,0-3.9,0-5.8,0
			c-0.5,0-0.6,0.2-0.7,0.5c-0.7,3-1.3,5.9-2,8.9c-0.4,1.7-0.8,3.5-1.2,5.2c-0.6,2.5-1.1,5-1.7,7.5c-0.2,1.1-0.5,2.2-0.7,3.3
			c-0.1,0.4-0.2,0.5-0.7,0.5c-6.2,0-12.4,0-18.5,0c-0.6,0-0.6-0.1-0.5-0.7c0.7-2.9,1.3-5.7,1.9-8.6c0.4-1.9,0.9-3.7,1.3-5.6
			c0.5-2.4,1.1-4.9,1.6-7.3c0.6-2.9,1.3-5.7,1.9-8.6c0.7-3.1,1.4-6.2,2.1-9.3c0.8-3.3,1.5-6.7,2.2-10c0.1-0.5,0.3-0.6,0.8-0.6
			c6.3,0,12.5,0,18.8,0C-127.9,166.3-127.8,166.3-127.6,166.3z M-106.3,188.3c0.3,0,0.5,0,0.7,0c8.2,0,16.3,0,24.5,0
			c1.5,0,2.8,0.6,3.1,2.4c0.1,0.7-0.1,1.3-0.2,1.9c0,0.4-0.3,0.6-0.7,0.6c-6.9,0-13.9,0-20.8,0c-1.6,0-3.2,0.3-4.6,1.1
			c-2,1.1-3.5,2.7-4.3,4.9c-0.6,1.7-0.9,3.5-1.3,5.3c-0.4,1.6-0.9,3.2-0.7,4.8c0.1,1.1,0.6,2.1,1.3,3c1.3,1.5,3,1.8,4.9,1.8
			c10.1,0,20.3,0,30.4,0c0.5,0,0.7-0.1,0.7-0.6c0-0.4,0.2-0.8,0.3-1.2c0.6-2.7,1.2-5.4,1.8-8.1c0.5-2.3,1-4.5,1.5-6.8
			c0.6-2.6,1.1-5.1,1.7-7.7c0.3-1.5,0.8-3,0.7-4.7c-0.1-1.2-0.5-2.2-1.3-3.1c-1.2-1.4-2.9-1.8-4.6-1.9c-10.3,0-20.6,0-30.9,0
			c-0.4,0-0.5,0.1-0.6,0.5C-105.2,183.2-105.8,185.7-106.3,188.3z M-49.7,214.1c4.8,0,9.5,0,14.3,0c0.3,0,0.6,0,0.7-0.4
			c0.5-2.3,1-4.6,1.5-6.9c0.7-3.1,1.4-6.2,2.1-9.2s1.3-6,2-9c0.6-2.9,1.3-5.8,1.9-8.8c0.7-3.5,1.5-6.9,2.3-10.4
			c0.1-0.6-0.1-0.5-0.4-0.5c-2.9,0-5.7,0-8.6,0c-0.5,0-0.6,0.2-0.6,0.6c-0.4,1.6-0.7,3.3-1.1,4.9c-0.4,1.7-0.7,3.5-1.1,5.2
			c-0.1,0.4-0.2,0.6-0.7,0.6c-6.4,0-12.8,0-19.2,0c-0.9,0-1.9,0.2-2.8,0.4c-1.4,0.4-2.6,1.3-3.7,2.3c-1.3,1.3-2.1,2.8-2.5,4.5
			c-0.4,1.6-0.7,3.2-1.1,4.8c-0.5,2-0.9,4.1-1.4,6.1c-0.6,2.6-1.1,5.1-1.7,7.7c-0.3,1.6-0.5,3.1,0.1,4.6c0.5,1.3,1.4,2.2,2.8,2.8
			c1.2,0.5,2.4,0.6,3.7,0.6C-58.7,214.1-54.2,214.1-49.7,214.1z M70.5,180.4c-4.7,0-9.4,0-14.1,0c-0.1,0-0.3,0-0.4,0
			c-0.2,0-0.4,0.1-0.4,0.3c-0.1,0.7-0.3,1.4-0.5,2.1c-0.5,2.5-1.1,5.1-1.6,7.6c-0.5,2.4-1.1,4.8-1.7,7.3c-0.7,3.1-1.3,6.1-2,9.2
			c-0.5,2.4-1,4.7-1.6,7.1c-0.8,3.7-1.7,7.4-2.5,11.1c-0.1,0.3-0.2,0.5,0.3,0.5c2.9,0,5.9,0,8.8,0c0.3,0,0.4-0.1,0.5-0.4
			c0.1-0.6,0.2-1.2,0.4-1.8c0.6-2.8,1.3-5.6,1.9-8.4c0.1-0.6,0.3-0.6,0.8-0.6c6.1,0,12.2,0,18.2,0c1.1,0,2.2-0.1,3.2-0.4
			c3-0.9,5-2.7,6.1-5.6c0.7-1.8,1-3.8,1.4-5.7c0.5-2.3,1-4.5,1.5-6.8c0.5-2.4,1.1-4.7,1.6-7.1c0.3-1.3,0.6-2.7,0.3-4.1
			c-0.4-1.5-1.1-2.6-2.5-3.4c-1.2-0.7-2.4-0.8-3.6-0.8C79.9,180.4,75.2,180.4,70.5,180.4z M-13.6,214.4c3.9,0,7.8,0,11.7,0
			c0.7,0,1.4-0.1,2.1-0.2c1.3-0.3,2.5-0.8,3.6-1.6c1.5-1.1,2.6-2.5,3.2-4.3c0.5-1.4,0.7-2.9,1-4.4c0.5-2.1,0.9-4.1,1.4-6.2
			c0.5-2.3,1.1-4.7,1.5-7c0.4-1.7,1-3.5,0.8-5.3c-0.1-1.2-0.5-2.2-1.3-3.1c-1.3-1.5-3-1.9-4.8-1.9c-7.9,0-15.8,0-23.7,0
			c-0.7,0-1.4,0.1-2.1,0.2c-1.6,0.3-2.9,1.1-4.1,2.1c-1.1,1-1.9,2.1-2.4,3.4c-0.7,1.8-0.9,3.7-1.4,5.6c-0.5,2-0.9,4.1-1.4,6.1
			c-0.6,2.6-1.2,5.1-1.7,7.7c-0.3,1.3-0.7,2.6-0.4,4.1c0.3,1.7,1.1,3,2.6,3.9c1.1,0.6,2.3,0.7,3.5,0.8
			C-21.5,214.4-17.5,214.4-13.6,214.4z M34.4,180.4c-3.9,0-7.8,0-11.8,0c-0.8,0-1.6,0-2.3,0.2c-1.8,0.5-3.4,1.4-4.7,2.8
			c-1,1.1-1.7,2.3-2.1,3.7c-0.4,1.6-0.7,3.2-1.1,4.8c-0.4,1.7-0.7,3.3-1.1,5c-0.5,2.3-1,4.7-1.5,7c-0.4,1.8-1,3.6-0.8,5.5
			s1.5,3.7,3.3,4.4c1,0.4,1.9,0.4,2.9,0.5c2.5,0.1,5,0,7.5,0c5.7-0.1,11.4,0.2,17.1-0.1c2.5-0.1,4.4-1.3,6-3.1
			c1.2-1.4,1.9-3,2.2-4.8c0.6-3.1,1.4-6.2,2.1-9.2c0.5-2.4,1.1-4.8,1.6-7.2c0.3-1.5,0.8-3,0.6-4.7c-0.2-1.9-1.5-3.6-3.2-4.3
			c-1-0.4-2-0.5-3-0.5C42.2,180.4,38.3,180.4,34.4,180.4z M-123.4,214.1c3.1,0,6.2,0,9.3,0c0.4,0,0.3-0.2,0.4-0.4
			c0.3-1.3,0.6-2.6,0.9-4c0.5-2.3,1-4.7,1.5-7c0.5-2.2,1-4.4,1.5-6.6c0.6-2.6,1.2-5.2,1.7-7.7c0.3-1.5,0.5-3-0.1-4.5
			c-0.6-1.4-1.5-2.4-2.9-3c-1.2-0.5-2.4-0.5-3.6-0.5c-3.7,0-7.4,0-11.1,0c-2.4,0-4.7,0-7.1,0c-0.3,0-0.6,0-0.5-0.4
			c0.4-1.9,0.9-3.8,1.3-5.7c0.4-1.6,0.7-3.3,1.1-4.9c0-0.2,0.2-0.5-0.3-0.5c-3,0-5.9,0-8.9,0c-0.3,0-0.4,0.1-0.4,0.4
			c-0.1,0.6-0.2,1.2-0.4,1.9c-0.8,3.3-1.5,6.6-2.2,9.9c-0.9,3.9-1.7,7.7-2.6,11.6c-0.7,3.3-1.5,6.7-2.2,10c-0.8,3.7-1.7,7.3-2.5,11
			c-0.1,0.4,0,0.4,0.3,0.4c2.9,0,5.9,0,8.8,0c0.2,0,0.4,0,0.4-0.3c0.2-1.3,0.6-2.7,0.9-4c0.5-2.1,1-4.1,1.4-6.2
			c0.6-2.7,1.2-5.4,1.8-8.1c0.5-2.2,1-4.3,1.4-6.5c0.1-0.3,0.2-0.5,0.7-0.5c4.3,0,8.6,0,12.9,0c0.4,0,0.8,0.1,1.2,0.2
			c1.6,0.5,2.3,1.9,1.9,3.7c-0.2,1-0.5,1.9-0.7,2.9c-0.5,2.4-1,4.8-1.6,7.2c-0.4,1.7-0.8,3.3-1.1,5
			C-122.5,209.7-123,211.9-123.4,214.1z"/>
		<path fill="#71C8F1" d="M-106.3,188.3c0.6-2.5,1.1-5,1.7-7.5c0.1-0.4,0.2-0.5,0.6-0.5c10.3,0,20.6,0,30.9,0c1.7,0,3.4,0.4,4.6,1.9
			c0.7,0.9,1.2,1.9,1.3,3.1c0.1,1.6-0.3,3.1-0.7,4.7c-0.5,2.6-1.1,5.1-1.7,7.7c-0.5,2.3-1,4.5-1.5,6.8c-0.6,2.7-1.2,5.4-1.8,8.1
			c-0.1,0.4-0.2,0.8-0.3,1.2c0,0.5-0.3,0.6-0.7,0.6c-10.1,0-20.3,0-30.4,0c-1.8,0-3.6-0.4-4.9-1.8c-0.7-0.8-1.1-1.8-1.3-3
			c-0.2-1.7,0.3-3.3,0.7-4.8c0.4-1.8,0.7-3.6,1.3-5.3c0.8-2.2,2.3-3.8,4.3-4.9c1.4-0.8,3-1.1,4.6-1.1c6.9,0,13.9,0,20.8,0
			c0.5,0,0.7-0.2,0.7-0.6c0.1-0.6,0.3-1.2,0.2-1.9c-0.3-1.7-1.6-2.4-3.1-2.4c-8.2,0-16.3,0-24.5,0
			C-105.8,188.3-106.1,188.3-106.3,188.3z M-89.8,206c2.7,0,5.4,0,8.1,0c0.3,0,0.5,0,0.6-0.4c0.2-1.3,0.5-2.5,0.8-3.7
			c0.2-0.7-0.1-0.6-0.5-0.6c-5,0-10,0-14.9,0c-0.6,0-1.1,0-1.7,0.1c-1.1,0.2-2.3,1.5-2.4,2.6c-0.1,0.9,0.7,2.1,1.9,2.1
			C-95.2,205.9-92.5,206-89.8,206z"/>
		<path fill="#71C8F1" d="M-49.7,214.1c-4.5,0-9,0-13.5,0c-1.3,0-2.5-0.1-3.7-0.6c-1.3-0.5-2.2-1.5-2.8-2.8
			c-0.6-1.5-0.4-3.1-0.1-4.6c0.6-2.6,1.1-5.1,1.7-7.7c0.5-2,0.9-4.1,1.4-6.1c0.4-1.6,0.7-3.2,1.1-4.8c0.4-1.7,1.2-3.3,2.5-4.5
			c1.1-1,2.2-1.9,3.7-2.3c0.9-0.3,1.8-0.4,2.8-0.4c6.4,0,12.8,0,19.2,0c0.5,0,0.6-0.2,0.7-0.6c0.4-1.7,0.7-3.5,1.1-5.2
			c0.4-1.6,0.7-3.3,1.1-4.9c0.1-0.4,0.2-0.6,0.6-0.6c2.9,0,5.7,0,8.6,0c0.3,0,0.6-0.1,0.4,0.5c-0.8,3.5-1.6,6.9-2.3,10.4
			c-0.6,2.9-1.3,5.8-1.9,8.8c-0.7,3-1.3,6-2,9c-0.7,3.1-1.4,6.2-2.1,9.2c-0.5,2.3-1,4.6-1.5,6.9c-0.1,0.4-0.4,0.4-0.7,0.4
			C-40.2,214.1-45,214.1-49.7,214.1z M-49.9,206c2.3,0,4.5,0,6.8,0c0.4,0,0.5-0.1,0.6-0.5c0.6-3,1.3-6.1,2-9.1
			c0.6-2.5,1.1-5.1,1.7-7.6c0.1-0.6-0.1-0.5-0.5-0.5c-4,0-8,0-12.1,0c-0.5,0-1.1,0-1.6,0.1c-2,0.3-3.5,1.9-3.9,3.7s-0.8,3.6-1.2,5.5
			c-0.4,1.8-0.9,3.5-1.1,5.3c-0.2,1.7,1,3.1,2.8,3.1C-54.3,206-52.1,206-49.9,206z"/>
		<path fill="#71C8F1" d="M70.5,180.4c4.7,0,9.4,0,14.2,0c1.2,0,2.5,0.1,3.6,0.8c1.4,0.8,2.1,2,2.5,3.4s0,2.7-0.3,4.1
			c-0.5,2.4-1,4.7-1.6,7.1c-0.5,2.3-1,4.5-1.5,6.8c-0.4,1.9-0.7,3.9-1.4,5.7c-1.1,2.9-3.2,4.7-6.1,5.6c-1,0.3-2.1,0.4-3.2,0.4
			c-6.1,0-12.2,0-18.2,0c-0.5,0-0.7,0-0.8,0.6c-0.6,2.8-1.3,5.6-1.9,8.4c-0.1,0.6-0.3,1.2-0.4,1.8c0,0.3-0.2,0.4-0.5,0.4
			c-2.9,0-5.9,0-8.8,0c-0.4,0-0.4-0.2-0.3-0.5c0.8-3.7,1.7-7.4,2.5-11.1c0.5-2.4,1-4.7,1.6-7.1c0.7-3.1,1.3-6.1,2-9.2
			c0.5-2.4,1.1-4.8,1.7-7.3s1.1-5,1.6-7.6c0.2-0.7,0.3-1.4,0.5-2.1c0.1-0.3,0.2-0.3,0.4-0.3c0.1,0,0.3,0,0.4,0
			C61.1,180.4,65.8,180.4,70.5,180.4z M59.5,206.3c0.6,0,1.1,0,1.5,0c4.2-0.1,8.5,0.2,12.7-0.1c1.8-0.1,3.6-1.8,4-3.7
			c0.8-3.4,1.5-6.9,2.3-10.3c0.2-1.1-0.2-2.5-1.1-3.1c-0.6-0.4-1.3-0.5-2-0.5c-1.5,0-3,0-4.6,0c-2.8,0-5.5,0-8.3,0
			c-0.3,0-0.5-0.1-0.6,0.4c-0.6,2.7-1.1,5.3-1.7,8C60.9,200,60.2,203.1,59.5,206.3z"/>
		<path fill="#71C8F1" d="M-13.6,214.4c-3.9,0-7.8,0-11.7,0c-1.2,0-2.4-0.1-3.5-0.8c-1.5-0.9-2.3-2.2-2.6-3.9
			c-0.2-1.4,0.2-2.7,0.4-4.1c0.5-2.6,1.1-5.1,1.7-7.7c0.5-2,0.9-4.1,1.4-6.1c0.5-1.9,0.7-3.8,1.4-5.6c0.5-1.3,1.3-2.5,2.4-3.4
			c1.2-1.1,2.5-1.8,4.1-2.1c0.7-0.2,1.4-0.2,2.1-0.2c7.9,0,15.8,0,23.7,0c1.8,0,3.5,0.4,4.8,1.9c0.7,0.9,1.2,1.9,1.3,3.1
			c0.2,1.8-0.4,3.5-0.8,5.3c-0.5,2.4-1,4.7-1.5,7c-0.5,2.1-0.9,4.1-1.4,6.2c-0.3,1.5-0.5,2.9-1,4.4c-0.6,1.8-1.7,3.2-3.2,4.3
			c-1.1,0.8-2.2,1.4-3.6,1.6c-0.7,0.1-1.4,0.2-2.1,0.2C-5.8,214.4-9.7,214.4-13.6,214.4z M-11.5,206.3c1.8-0.1,4,0.1,6.1-0.1
			c1.3-0.1,2.2-0.8,3-1.7c0.9-1,1.1-2.3,1.3-3.5c0.6-2.9,1.3-5.8,1.9-8.7c0.3-1.4,0.1-2.5-1.3-3.4c-0.5-0.3-1.2-0.4-1.8-0.4
			c-2.1,0-4.2,0-6.3,0c-1.9,0-3.9-0.1-5.8,0.1c-1.9,0.2-3.6,1.8-4,3.6c-0.8,3.4-1.5,6.8-2.3,10.2c-0.2,0.9-0.2,1.7,0.3,2.5
			c0.7,1.1,1.7,1.5,2.9,1.5C-15.6,206.3-13.8,206.3-11.5,206.3z"/>
		<path fill="#71C8F1" d="M34.4,180.4c3.9,0,7.8,0,11.7,0c1,0,2,0.1,3,0.5c1.7,0.7,3,2.4,3.2,4.3c0.2,1.6-0.3,3.1-0.6,4.7
			c-0.5,2.4-1,4.8-1.6,7.2c-0.7,3.1-1.4,6.1-2.1,9.2c-0.4,1.8-1,3.5-2.2,4.8c-1.6,1.8-3.5,3-6,3.1c-5.7,0.3-11.4,0.1-17.1,0.1
			c-2.5,0-5,0-7.5,0c-1,0-2-0.1-2.9-0.5c-1.8-0.7-3.1-2.5-3.3-4.4c-0.2-1.9,0.5-3.7,0.8-5.5c0.5-2.3,1-4.7,1.5-7
			c0.4-1.7,0.7-3.3,1.1-5c0.4-1.6,0.7-3.2,1.1-4.8c0.4-1.4,1.1-2.7,2.1-3.7c1.3-1.4,2.8-2.3,4.7-2.8c0.8-0.2,1.5-0.2,2.3-0.2
			C26.6,180.4,30.5,180.4,34.4,180.4z M32.2,188.5c-1.8,0.1-4-0.2-6.2,0.1c-1.7,0.3-2.9,1.3-3.6,2.9c-0.4,0.9-0.5,1.9-0.7,2.9
			c-0.5,2.4-1.1,4.8-1.6,7.2c-0.2,0.7-0.4,1.4-0.3,2.2c0.4,2.1,1.8,2.5,3.3,2.5c3.7,0,7.5,0,11.2,0c0.5,0,1-0.1,1.5-0.2
			c2.1-0.6,3.2-2,3.6-4c0.7-3.5,1.7-6.9,2.2-10.5c0.1-0.8-0.1-1.4-0.6-2c-0.7-0.9-1.6-1-2.6-1C36.4,188.5,34.5,188.5,32.2,188.5z"/>
		<path fill="#71C8F1" d="M-123.4,214.1c0.5-2.3,1-4.5,1.4-6.6c0.4-1.7,0.8-3.3,1.1-5c0.5-2.4,1-4.8,1.6-7.2c0.2-1,0.4-1.9,0.7-2.9
			c0.4-1.8-0.3-3.2-1.9-3.7c-0.4-0.1-0.8-0.2-1.2-0.2c-4.3,0-8.6,0-12.9,0c-0.5,0-0.6,0.2-0.7,0.5c-0.5,2.2-1,4.3-1.4,6.5
			c-0.6,2.7-1.2,5.4-1.8,8.1c-0.5,2.1-1,4.1-1.4,6.2c-0.3,1.3-0.6,2.7-0.9,4c-0.1,0.3-0.2,0.3-0.4,0.3c-2.9,0-5.9,0-8.8,0
			c-0.3,0-0.4,0-0.3-0.4c0.8-3.7,1.7-7.3,2.5-11c0.7-3.3,1.5-6.7,2.2-10c0.8-3.9,1.7-7.7,2.6-11.6c0.7-3.3,1.4-6.6,2.2-9.9
			c0.1-0.6,0.3-1.2,0.4-1.9c0-0.3,0.2-0.4,0.4-0.4c3,0,5.9,0,8.9,0c0.4,0,0.3,0.3,0.3,0.5c-0.4,1.6-0.7,3.3-1.1,4.9
			c-0.4,1.9-0.9,3.8-1.3,5.7c-0.1,0.4,0.2,0.4,0.5,0.4c2.4,0,4.7,0,7.1,0c3.7,0,7.4,0,11.1,0c1.2,0,2.4,0,3.6,0.5
			c1.4,0.6,2.4,1.5,2.9,3c0.6,1.5,0.4,3,0.1,4.5c-0.6,2.6-1.1,5.2-1.7,7.7c-0.5,2.2-1,4.4-1.5,6.6c-0.5,2.3-1,4.7-1.5,7
			c-0.3,1.3-0.6,2.7-0.9,4c0,0.2,0,0.4-0.4,0.4C-117.2,214.1-120.3,214.1-123.4,214.1z"/>
		<path d="M-89.8,206c-2.7,0-5.4,0-8.1,0c-1.2,0-2-1.1-1.9-2.1c0.1-1.1,1.3-2.4,2.4-2.6c0.6-0.1,1.1-0.1,1.7-0.1c5,0,10,0,14.9,0
			c0.4,0,0.7-0.1,0.5,0.6c-0.4,1.2-0.6,2.5-0.8,3.7c-0.1,0.4-0.3,0.4-0.6,0.4C-84.4,206-87.1,206-89.8,206z"/>
		<path d="M-39.3,188.3c-4,0-8,0-12.1,0c-0.5,0-1.1,0-1.6,0.1c-2,0.3-3.5,1.9-3.9,3.7s-0.8,3.6-1.2,5.5c-0.4,1.8-0.9,3.5-1.1,5.3
			c-0.2,1.7,1,3.1,2.8,3.1c2.2,0,4.4,0,6.6,0c2.3,0,4.5,0,6.8,0c0.4,0,0.5-0.1,0.6-0.5c0.6-3,1.3-6.1,2-9.1c0.6-2.5,1.1-5.1,1.7-7.6
			C-38.7,188.1-39,188.3-39.3,188.3z M-49.4,201.1c-0.1,0.6-0.3,1.2-0.4,1.8c0,0.3-0.2,0.3-0.4,0.3c-1.9,0-3.7,0-5.6,0
			c-0.6,0-0.8-0.3-0.6-1c0.6-2.8,1.2-5.6,1.8-8.4c0.1-0.4,0.2-0.8,0.2-1.2c0.3-1.1,0.7-1.5,1.9-1.5c1.7,0,3.5,0,5.3,0
			C-47.9,194.4-48.6,197.7-49.4,201.1z"/>
		<path d="M78.9,189c-0.6-0.4-1.3-0.5-2-0.5c-1.5,0-3,0-4.6,0c-2.8,0-5.5,0-8.3,0c-0.3,0-0.5-0.1-0.6,0.4c-0.6,2.7-1.1,5.3-1.7,8
			c-0.7,3.2-1.4,6.3-2.2,9.5c0.6,0,1.1,0,1.5,0c4.2-0.1,8.5,0.2,12.7-0.1c1.8-0.1,3.6-1.8,4-3.7c0.8-3.4,1.5-6.9,2.3-10.3
			C80.3,191.1,79.9,189.6,78.9,189z M72.3,192.3c-0.5,2.3-1.1,4.5-1.5,6.8c-0.2,1.1-0.4,2.3-0.8,3.4c-0.3,0.9-0.6,1.2-1.5,1.2
			c-0.8,0-1.6,0-2.4,0c-0.9,0-1.8-0.1-2.7-0.1c-0.4,0-0.4-0.2-0.3-0.5c0.9-3.7,1.6-7.4,2.5-11.1c0.1-0.6,0.3-0.6,0.8-0.6
			c1.5,0,3,0,4.5,0c0.3,0,0.6,0,0.9,0.1C72.2,191.6,72.3,192,72.3,192.3z"/>
		<path d="M-0.4,188.9c-0.5-0.3-1.2-0.4-1.8-0.4c-2.1,0-4.2,0-6.3,0c-1.9,0-3.9-0.1-5.8,0.1c-1.9,0.2-3.6,1.8-4,3.6
			c-0.8,3.4-1.5,6.8-2.3,10.2c-0.2,0.9-0.2,1.7,0.3,2.5c0.7,1.1,1.7,1.5,2.9,1.5c1.9,0,3.7,0,6,0c1.8-0.1,4,0.1,6.1-0.1
			c1.3-0.1,2.2-0.8,3-1.7c0.9-1,1.1-2.3,1.3-3.5c0.6-2.9,1.3-5.8,1.9-8.7C1.2,190.9,1,189.8-0.4,188.9z M-6.8,192.4
			c-0.5,2.1-0.9,4.2-1.4,6.3c-0.3,1.2-0.5,2.5-0.8,3.7c-0.2,1-0.5,1.3-1.5,1.3c-1.1,0-2.2,0-3.3,0s-2.2-0.2-3.4-0.1
			c-0.6,0-0.8-0.3-0.8-0.7c0-0.1,0-0.3,0-0.4c0.2-0.9,0.4-1.9,0.6-2.8c0.5-2.2,1-4.4,1.4-6.5c0.1-0.6,0.3-1,0.4-1.2
			c0.2-0.3,0.4-0.4,0.8-0.5c0.2-0.1,0.5-0.1,0.9-0.1c0.9,0,1.8,0,2.8,0c0.9,0,1.9,0,2.8,0c0.1,0,0.2,0,0.4,0s0.4,0.1,0.6,0.1
			c0.4,0.1,0.5,0.3,0.5,0.6C-6.8,192.2-6.8,192.3-6.8,192.4z"/>
		<path d="M40.9,189.5c-0.7-0.9-1.6-1-2.6-1c-1.9,0-3.8,0-6.1,0c-1.8,0.1-4-0.2-6.2,0.1c-1.7,0.3-2.9,1.3-3.6,2.9
			c-0.4,0.9-0.5,1.9-0.7,2.9c-0.5,2.4-1.1,4.8-1.6,7.2c-0.2,0.7-0.4,1.4-0.3,2.2c0.4,2.1,1.8,2.5,3.3,2.5c3.7,0,7.5,0,11.2,0
			c0.5,0,1-0.1,1.5-0.2c2.1-0.6,3.2-2,3.6-4c0.7-3.5,1.7-6.9,2.2-10.5C41.6,190.8,41.4,190.1,40.9,189.5z M33.8,192.2
			c-0.1,0.4-0.2,0.8-0.2,1.2c-0.6,2.7-1.2,5.4-1.8,8c-0.1,0.2-0.1,0.5-0.1,0.7c-0.2,1-0.7,1.3-1.5,1.3c-1.1-0.1-2.2,0-3.3,0
			s-2.3,0-3.4,0c-0.5,0-0.7-0.2-0.7-0.7c0.1-1.1,0.4-2,0.6-3.1c0.5-2.3,1-4.7,1.6-7c0.2-1,0.5-1.3,1.6-1.3c2,0,4.1,0,6.1,0
			C33.4,191.3,33.9,191.7,33.8,192.2z"/>
	</g>
	<g>
		<path fill="#080B05" d="M-9.9,103.8c-0.3,0.4-0.1,0.8,0,1.2c1.3,3.2,2.7,6.3,3.6,9.7c0.3,1.1,0.4,2.3,0.4,3.5
			c0.1,2.2,0.1,4.3,0.2,6.5c0,0.3,0.1,0.6,0.3,0.9c1.3,2.5,1,5,0,7.4c-0.8,1.7-2.4,2.4-4.2,2.6c-3.7,0.3-7.4,0.2-11.1,0.1
			c-1.1,0-2.2-0.1-3.3-0.4c-0.4-0.1-0.8-0.1-1.1-0.3c-0.8-0.5-1.3-0.3-1.9,0.3c-1.8,1.5-3.6,3-5.5,4.4c-0.4,0.3-0.7,0.8-0.9,1.3
			c-1.6,3.3-4.4,4.7-7.8,5.2c-2.1,0.3-3.9-0.4-5.6-1.6c-1.2-0.9-2.3-2-3.2-3.2c-2.4-3.1-4.6-6.4-6-10.1c-0.4-1-0.6-2.1-0.6-3.2
			c0-1.7,0.8-3,2.3-3.9c0.3-0.2,0.7-0.4,1-0.7c-0.2,0-0.5,0-0.7,0c-2.5,0-4.9,0-7.4-0.3c-0.6-0.1-0.8,0-0.7,0.6
			c0.1,0.2,0.1,0.4,0.1,0.7c0.3,1.8,0,3.5-1,5c-0.9,1.3-1.8,2.7-2.5,4.1c-0.2,0.4-0.3,0.9-0.3,1.3c0.1,1.6,0,3.2-0.4,4.8
			c-0.7,2.6-2.1,3.9-4.8,4.2c-2.6,0.3-5.2-0.1-7.7-0.7c-3-0.7-5.9-1.4-8.8-2.4c-1-0.3-2-0.7-2.9-1.3c-2.6-1.6-3.4-3.7-2.3-6.6
			c0.4-1.2,0.9-2.3,1.4-3.5c-0.9,0-1.8,0.1-2.7-0.1c-7.6-1.4-14.2-8.8-14.8-16.4c-0.1-1,0.4-1.8,1.1-2.5c1.9-1.8,3.7-3.7,5.6-5.5
			c0.4-0.4,0.6-0.8,0.8-1.2c0.5-1.4,1.3-2.8,1.5-4.3s-0.3-3-0.5-4.5c-0.3-4-0.4-7.9,0.3-11.9c-1,0.1-1.9,0.2-2.9,0.1
			c-2.2-0.4-3.8-1.6-4.7-3.6c-0.2-0.3-0.3-0.7-0.4-1.1c-0.5-1.6-1-3.1-2-4.6c-1.2-1.6-1-3.6-0.3-5.4c1-2.4,2.7-4.3,4.7-5.9
			c2.1-1.6,4.2-3.1,6.9-3.7c0.4-0.1,0.8-0.1,1.4-0.2c-0.5,1.2-0.9,2.4-1.3,3.5c-0.1,0.2-0.3,0.5,0,0.7c1.6,1.5,1.7,3.5,1.5,5.5
			c-0.1,1.2-0.4,2.4-0.7,3.7c-0.9-0.9-1.5-1.9-2.3-3c-0.2,1.2-0.2,2.2-0.5,3.2c-0.3,1.1-0.8,2-1.5,2.7c0.2,0.3,0.3,0.1,0.4,0.1
			c3-1.2,5.3-3.3,6.9-6.1c3.5-6.3,8.6-11,14.7-14.8c5.3-3.3,11.3-5,17.4-6.3c1.8-0.4,3.7-0.7,5.5-1c0.4-0.1,0.6-0.3,0.9-0.5
			c2.1-2.1,4.2-4.3,6.7-6.1c1.4-1,2.9-1.6,4.6-1.7c0.5,0,0.8-0.2,1.1-0.6c2.2-2.9,4.5-5.7,7.4-8c3.5-2.7,7.5-4.2,11.6-5.7
			c3.7-1.3,7.4-2.2,11.3-2.3c6.2-0.2,11.7,1.8,16.8,5.4c3,2.1,5.7,4.7,8.5,7c1.9,1.6,3.8,3.1,5.9,4.4c4.2,2.5,6.9,6.1,9,10.4
			c0.3,0.6,0.5,0.8,1.2,0.5c1.8-0.8,3.2-1.9,4.3-3.5c0.7-1,1.4-1.9,2.1-2.9c1.2-1.7,2.9-2,4.8-1.6c3.5,0.8,5.4,3.1,6.5,6.4
			c1.5,4.4,2.5,8.9,3,13.5c0.4,3.7,0.6,7.3,0.3,11c-0.6,7.2-2.6,13.9-7.4,19.5c-3.7,4.3-8.5,6.7-14.1,7.5c-3.8,0.6-7.7,0.5-11.5-0.1
			c-0.4-0.1-0.6,0.1-0.7,0.5c-0.2,0.8-0.5,1.5-0.7,2.3c-1.2,5.3-7.8,9.8-13.6,9c-2-0.3-3.7-1.2-5.3-2.5
			C-6.4,107.3-8.1,105.5-9.9,103.8z M-32.5,63.8c0-0.1,0-0.1,0-0.2c0.1-0.8,0.2-1.6,0.2-2.4c0.3-1.5,0.5-2.9,0.9-4.4
			c0.4,1.3,0.1,2.6,0.4,3.8c0.1,2.9,0.5,5.7,0.9,8.5c0.5,3.3,1.3,6.6,1.6,10c0.6,5.8-0.1,11.3-2.2,16.7c-0.2,0.4-0.4,0.6-0.8,0.6
			c-1.8,0.1-3.6,0.4-5.3,1c-3.8,1.2-7.2,3.1-10.6,5c-2,1.1-3.9,2.3-6.1,2.8c-2.9,0.7-5.7,0.2-8.4-0.9l0,0c-0.1,0-0.1-0.1-0.2-0.1
			c-2.6-1.6-4.7-3.8-6.7-6c-0.2-0.3-0.3-0.5-0.3-0.8c0.2-1.1,0.3-2.2,0.5-3.4c0.2-0.5,0.3-1.1,0.5-1.5c0.7-1.1,0.4-2.1-0.1-3.2
			c-1.4-3.1-3.6-5.6-5.6-8.3c-0.1-0.2-0.1-0.4-0.3-0.5c-0.1-0.2-0.2-0.4-0.3-0.5c0-0.1,0-0.1,0-0.1c0-0.2-0.1-0.3-0.3-0.4
			c0-0.1,0-0.2-0.1-0.2c-0.1-0.2-0.1-0.3-0.3-0.4c0-0.1,0-0.2-0.1-0.2c-0.1-0.2-0.1-0.5-0.3-0.7l0,0c-0.5-2.2,0.1-4.2,1-6.2
			c1.5-3.1,3.1-6.2,5-9c3-3.9,6.3-7.5,9.6-11.4c-2.6,0.4-5,0.8-7.4,1.4c-11.9,3.1-20.8,9.9-26.3,21c-1.8,3.6-3.3,7.4-3.7,11.4
			c-0.5,4.8-0.2,9.6,0.8,14.3c0.6,2.8,1.4,5.6,2.6,8.2c0,0.1,0,0.3,0.1,0.4c1.7,4.3,3.8,8.4,6.4,12.2c0.9,1.3,1.1,2.5,0.8,3.9
			c-0.1,0.4-0.1,0.8-0.2,1.2c0,0.1,0,0.2-0.1,0.4c-0.1,0.2,0,0.3,0.1,0.5c-0.3,0-0.2,0.2-0.3,0.4c-0.5,2.3-1.1,4.5-1.9,6.7
			c-0.5,1.4-0.2,2.6,1.1,3.5c1.1,0.8,2.4,1.3,3.7,1.6c1.7,0.6,3.4,1,5.2,1.4c2.2,0.5,4.3,0.9,6.6,0.7c1.7-0.1,2.4-0.6,2.8-2.3
			c0.3-1.2,0.4-2.4,0.2-3.5c-0.1-0.5,0-0.9,0.3-1.3c0.8-1.7,1.8-3.2,2.9-4.8c0.9-1.3,1.3-2.8,1.3-4.4c0-3.2,0-6.4,0-9.6
			c0-0.3-0.1-0.6,0.1-0.9c0.4,1.8,0.8,3.6,1.1,5.4c-0.1,0.7,0.5,0.7,0.9,0.8c5.7,0.9,11.3,0.8,16.9-0.2c0.7-0.1,0.8-0.4,1-1
			c0.4-1.6,1-3.1,1.8-4.6c-0.3,3.4-0.6,6.7,0,10.1c-0.4-0.4-0.8-0.9-1.1-1.4s-0.5-0.4-1-0.2c-1.9,1.3-3.9,2.6-6,3.7
			c-1.4,0.7-1.8,1.6-1.5,3.2c0.4,1.8,1.2,3.5,2.2,5c1.3,2.3,2.6,4.4,4.5,6.2c0.2,0.2,0.5,0.4,0.7,0.6c1.8,1.4,3.7,1.6,5.7,0.5
			c1-0.5,1.7-1.4,2.3-2.3c0.7-1.1,1.5-2.1,2.6-2.9c2.7-2,5.3-4.2,8-6.2c1-0.8,1.9-1.6,2.7-2.7c3.8-5.2,6.8-10.7,8.6-17
			c0.8-2.9,1.8-5.7,2.2-8.7c0.1-0.5,0.3-1.1-0.5-1.4c-2.8-1.1-5-3-6.9-5.2c-0.1-0.1-0.4-0.2-0.2-0.5c0.2,0,0.3,0.1,0.4,0.2
			c2.4,1.6,4.9,3.1,7.6,3.9c2.1,0.6,3.7,1.8,5.3,3.3c1.7,1.6,3.5,3.3,5.4,4.6c2.1,1.4,4.4,1.9,6.9,1.1c3.2-1,5.6-3,6.6-6.3
			c0.2-0.7,0.4-1.3,0.6-2c0.5-1.6,0.5-1.6-1.1-2c-0.4-0.1-0.6,0-0.7,0.4c-0.3,0.9-0.5,1.9-0.7,2.8c-0.2,1.3-0.9,2.2-2,2.9
			c-1.2,0.7-2.4,1-3.8,0.9c-1.2-0.1-2.4-0.4-3.6-0.8c1.3,2.4,3.6,1.8,5.7,2c-0.6,0.4-1.3,0.5-1.8,0.8c-0.9,0.1-1.7,0-2.5-0.2
			c-2-0.6-3-2.4-2.7-4.9c0.2-1.3,0.4-2.7,0.9-4c0.5-1.7,0.8-3.5,0.5-5.3c-0.1-0.5-0.1-1.1-0.2-1.7c1.8,1.1,3.4,2.2,5.3,2.7
			c1.5,0.7,3.1,1.1,4.6,1.5c4.6,1.4,9.3,2.4,14.2,2.1c5.8-0.3,10.8-2.4,14.6-6.9c3.4-4,5.3-8.6,6.3-13.7c0.8-4,0.8-8,0.5-12
			C45.1,59.1,44.2,54,42.4,49c-0.4-1.2-1-2.4-2.2-3.2c-1.4-1.3-2.6-1.2-3.9,0.2c-0.8,0.9-1.6,1.9-2.4,2.9c-1.3,1.6-2.8,2.9-4.9,3.5
			c-0.6,0.2-1.1,0.4-1.7,0.7c-1.5,0.7-2,1.8-1.8,3.4c0.4,2.3,0.7,4.7,0.5,7c-0.2,2.8-0.9,5.4-1.6,8.1c-0.3,1.1-0.7,2.1-1.4,3.2
			c0.3-1.6,0.5-2.9,0.8-4.3c0.5-2.7,0.8-5.5,0.3-8.3c-0.2-1.2-0.4-1.4-1.6-1c-1.6,0.6-2.7,1.7-3.4,3.2c-0.7,1.7-1.1,3.5-1.7,5.2
			c-0.2,0.5-0.3,1-0.8,1.6c0.5-2.1,0.5-4,0.8-5.9c0.3-2.1,1-3.8,2.9-4.9c0,0,0-0.1,0-0.2c-2.6,0.4-4.9,1.1-6.2,3.7
			c-0.4,0.7-0.7,1.4-1.1,2.1c-0.2,0.4-0.4,0.9-0.9,1.3c0.5-1.4,0.9-2.6,1.4-3.9c1.2-3.5,5.3-5.5,8.9-4.2c0.4,0.4,0.9,0.4,1.3,0.2
			s0-0.6,0-1s-0.1-0.8-0.2-1.1c0-0.3-0.2-0.4-0.5-0.5c-1.4-0.1-2.8-0.3-4.3,0c-0.8,0-1.6,0.2-2.5,0c0.1,0,0.1,0,0.2-0.1
			c0.4,0,0.7-0.2,1-0.4c0.6-0.2,1.1-0.3,1.7-0.5c0.3-0.1,0.8,0,0.9-0.5s0-1.1-0.4-1.5c-0.5-0.4-1-0.6-1.6-0.4
			c-0.8,0.2-1.1,0.8-1.1,1.6c-0.6-1-0.2-2,0.2-3.1c-0.6,0.2-1.2,0.2-1.8,0.2c-0.2,0-0.5,0.1-0.5-0.3c0.3,0,0.6-0.1,0.9-0.2
			c1.5-0.4,2.8-1.2,4.3-1.7c1.4-0.2,2.6,0.5,4.1,0.9c-0.8-1.6-1.6-3.1-2.5-4.5c-1.3-2-2.7-3.9-4.9-5c-0.6-0.3-1.1-0.6-1.7-0.9
			c-0.1-0.3-0.3-0.3-0.5-0.4l0,0c-1.3-0.4-2.7-0.5-4.2-0.5c0.9-0.5,1.7-0.5,2.5-0.7c-1.1-0.9-2.1-1.7-3.2-2.5
			c-2.7-2.2-5.2-4.7-8.2-6.7c-0.2-0.2-0.4-0.4-0.8-0.4c-0.9-0.9-2-1.4-3.1-1.9C-2.7,27.1-2.9,27-3.2,27c-0.1-0.2-0.3-0.2-0.5-0.1
			c-0.1-0.1-0.2-0.1-0.3-0.2c-0.2-0.3-0.5-0.1-0.7-0.3c0,0-0.1-0.1-0.1,0c-0.2-0.3-0.6-0.1-0.9-0.2c0-0.1-0.1-0.2-0.2-0.2
			c-0.6-0.3-1.3-0.4-2-0.5c-1.1-0.2-2.2-0.2-3.3-0.3c-1.6-0.2-3.1-0.1-4.6,0.4c-0.3-0.2-0.6-0.1-0.9-0.1c-3.5,0.6-6.8,1.8-10.1,3.1
			c-4.9,1.8-9.2,4.5-12.3,8.8c-0.4,0.5-0.8,1-1.3,1.7c3.1-0.2,6-0.3,8.9-0.5c0.4,0,0.9-0.2,1.3,0.1c-0.1,0-0.3,0-0.4,0
			c-3.2,0.8-6.5,1.4-9.8,1.9c-1.5,0.2-3,0.3-4.4,0.8c-0.1,0-0.2,0-0.3,0.1c-1.7,0.6-3,1.7-4.2,3c-4.8,4.7-8.9,10.1-13.5,15
			c-3.7,3.9-6.4,8.3-8.6,13.2c-1.1,2.4-1,4.5,0.6,6.6c0.6,0.7,1.1,1.5,1.7,2.2c1.4,2,3,3.8,3.8,6.3c1.4-2,2.7-3.9,4.2-5.6
			c1.4-1.7,2.8-3.4,4.3-5c0,0.1,0,0.2,0,0.3c-0.2,0.1-0.4,0.3-0.3,0.5c-0.3,0.3-0.5,0.7-0.7,1.1c-0.2,0.1-0.3,0.3-0.3,0.5
			c-0.3,0.3-0.5,0.7-0.7,1.1c0,0.1-0.1,0.1-0.1,0.2c-0.3,0.5-0.6,0.9-0.9,1.5c-0.2,0.1-0.3,0.3-0.3,0.5c-0.2,0.2-0.3,0.4-0.3,0.6
			c-0.1,0.1-0.2,0.3-0.3,0.4c-0.4,0.6-0.8,1.3-1.1,2c-1.3,2.3-2.7,4.7-3.5,7.3c-0.6,2-0.6,3.8,1.2,5.2c0.5,0.3,0.8,0.8,1.2,1.2
			c3.4,3.1,7.9,3.7,12,1.5c2.3-1.2,4.5-2.5,6.8-3.7c3.4-1.8,6.9-3.3,10.7-3.7c0.5,0,0.7-0.4,0.9-0.8c1.5-3.1,2-6.4,2-9.8
			c0-5.6-1.6-11-1.8-16.6c0-0.5,0.1-1,0-1.5C-32.4,64.9-32.5,64.4-32.5,63.8z M-92.9,115.9c0-0.1-0.1-0.1-0.1-0.2s0-0.1,0-0.1
			c-1.8-3.7-3.5-7.5-4.7-11.6c-0.6,1.1-0.7,2.2-1.4,3.1c-1.7,1.7-3.4,3.4-5.1,5.1c-0.5,0.5-0.6,1-0.6,1.7c0.3,3,1.7,5.4,3.8,7.4
			c2,2,4.3,3.7,7,4.5c3.1,0.9,4.3-0.8,4.9-3.3c0.1-0.2,0-0.4-0.1-0.5c-1.2-1.8-2.3-3.7-3.4-5.6C-92.7,116.3-92.7,116.1-92.9,115.9
			C-92.8,115.9-92.8,115.9-92.9,115.9z M-23.8,131.6c0.5,0.3,1,0.4,1.4,0.5c3.9,0.5,7.8,0.4,11.7,0.3c0.8,0,1.6-0.3,2-1.1
			c0.6-1.4,1-2.9,0.4-4.3c-0.7-1.4-0.6-2.9-0.7-4.4c-0.1-1.3-0.1-2.6-0.1-3.9c0-2-0.3-4-1.1-5.9c-0.6-1.4-1.1-2.9-1.7-4.5
			C-14.4,116.9-17.5,125.1-23.8,131.6z M-96.9,75.3c-0.4,0.3-0.6,0.4-0.8,0.6c-1.2,0.9-2.6,1.6-4.1,1.9c-1,0.2-1.6,0-2.2-0.9
			c-0.4-0.7-0.7-1.4-1.1-2c-0.2-0.3,0-0.5,0.2-0.7c1.3-1.2,1.8-2.7,1.9-4.4c0.1-1.7,0-3.4,0.7-5c0.3-0.7,0.5-1.3,0.9-2.2
			c-0.4,0.3-0.7,0.4-0.9,0.6c-2.2,1.6-4.3,3.5-5.4,6.1c-0.6,1.6-0.7,3.1,0.4,4.5c0.5,0.7,0.8,1.4,1,2.2c0.3,1,0.6,1.9,1.1,2.8
			c0.5,1,1.3,1.5,2.4,1.6c1.5,0.2,2.8-0.2,4.2-0.7c0.2-0.1,0.3-0.2,0.4-0.4C-97.8,78.1-97.4,76.8-96.9,75.3z M-100.5,64.6
			c-0.1,0.5-0.2,1-0.3,1.4c-0.1,0.2,0,0.4,0.3,0.4c0.5,0,0.8,0.4,1.2,0.6C-99.5,66.1-99.6,65.2-100.5,64.6z M23.4,51.4
			c0.2,0.3,0.4,0.6,0.6,0.9c0.1,0.1,0.1,0.2,0.3,0.1c0.1,0,0.1-0.2,0.1-0.2C24.1,51.9,24.2,51.2,23.4,51.4z"/>
		<path fill="#161907" d="M-108.6,59.1c-4.1,4.2-6.5,9.1-6.8,15c-0.3-3-0.6-5.9,0.6-8.8C-113.6,62.4-111.1,60.7-108.6,59.1z"/>
		<path fill="#161907" d="M-34.1,22c-2.6,1.3-5,2.6-6.9,4.5c-2,1.9-3.3,4.2-4.7,6.5C-44.5,26.7-40.8,22.8-34.1,22z"/>
		<path fill="#161907" d="M-114.1,61.8c-1.2,1.7-2.3,3.5-2.7,5.6c-0.1,0.3-0.1,0.5-0.2,0.8C-117.9,66-116.8,63.5-114.1,61.8
			C-114.2,61.8-114.1,61.8-114.1,61.8z"/>
		<path fill="#161907" d="M-45.4,27.4c0.6-3,2.2-4.6,5.1-4.9C-42.3,23.8-44.1,25.4-45.4,27.4z"/>
		<path fill="#161907" d="M-114.2,61.7c0.1-0.1,0.2-0.1,0.2-0.2C-113.9,61.7-114,61.7-114.2,61.7C-114.1,61.8-114.2,61.8-114.2,61.7
			z"/>
		<path fill="#EBE21D" d="M-50.3,134.5c-1.1-1.5-1.8-3.2-2.2-5c-0.3-1.5,0.1-2.4,1.5-3.2c2.1-1.1,4.1-2.4,6-3.7
			c0.4-0.3,0.7-0.4,1,0.2c0.3,0.5,0.7,0.9,1.1,1.4c-0.6-3.4-0.3-6.8,0-10.1c0.4-1.1,0.9-2.2,1.3-3.3c0-0.1,0.1-0.1,0.1-0.2
			c0,0,0,0-0.1,0c0,0.1,0,0.1-0.1,0.2c-0.3,0-0.5,0.2-0.6,0.4c-1,1.3-2.1,2.6-3,3.9c-0.5,0.8-1.2,1.3-2.1,1.7
			c-1.8,0.7-3.6,1.1-5.5,1.5c0-0.2,0-0.4,0.1-0.5c0.7-0.5,1.2-1.1,1.8-1.6c1.3-1.1,2.6-2.2,3.9-3.3c0.9-0.7,1.8-1.5,2.6-2.2
			c1.7-1.4,3.2-3,5.1-4.1l0.1-0.1c1-1,2.1-2,3.3-2.8c0.6-0.4,0.9-1,0.5-1.7c0.2-0.2,0.5-0.2,0.8-0.3c2.2-0.6,4.4-0.9,6.6-0.8
			c0.5,0,0.8-0.1,1-0.5c1.1-2,1.9-4.1,2.2-6.4c0.4,0,0.9-0.2,0.8-0.5c-0.3-0.8,0.4-1.4,0.2-2.2c-0.1-0.3,0-0.5,0.4-0.3
			c0.2,0.2,0.5,0.3,0.7,0c0.1-0.2,0.1-0.5-0.1-0.7c-0.3-0.3-0.1-0.6,0.2-0.7c0.7-0.3,1.1-1,1.6-1.4c1.3-0.9,2.2-2.3,3.7-3
			c0.1-0.1,0.2-0.2,0.3-0.4c0.2-0.4,0.5-0.6,0.9-0.8c0.6-0.5,1.5-0.6,1.9-1.2c0.5-0.9,1.3-1.4,2-2c1.2-1,2.5-1.8,3.5-3.1
			c0.1-0.1,0.3-0.2,0.4-0.3c1-0.3,1.8-1,2.4-1.7c1.1-1.2,2.6-2,3.6-3.3c0.1-0.1,0.2-0.2,0.3-0.2c1.3-0.6,2-1.7,3.2-2.5
			C2.3,69,3,67.7,4.2,67c0.9-0.5,1.5-1.5,2.5-1.9c0.5-0.2,0.8-0.9,1.4-1.3c1.7-1,2.9-2.6,4.5-3.6c0.2-0.1,0.2-0.3,0.3-0.5
			c0.6-0.8,1.6-1.1,2.5-0.8c0.6,0.2,1.1,0.2,1.3-0.5s-0.1-1-0.8-0.9c-0.1,0-0.3,0-0.2-0.2c0-0.1,0.1-0.1,0.2-0.1
			c0.8,0.2,1.6-0.1,2.5,0s1.8,0.2,2.7,0.4c1,0.2,1.3,0.9,1,2c-3.5-1.2-7.6,0.7-8.9,4.2c-0.4,1.2-0.9,2.5-1.4,3.9
			c0.5-0.4,0.7-0.9,0.9-1.3c0.4-0.7,0.8-1.4,1.1-2.1c1.3-2.6,3.6-3.3,6.2-3.7c0,0.1,0,0.2,0,0.2c-1.9,1.1-2.6,2.9-2.9,4.9
			c-0.3,1.9-0.3,3.8-0.8,5.9c0.6-0.6,0.6-1.1,0.8-1.6c0.6-1.7,1-3.5,1.7-5.2c0.7-1.5,1.8-2.6,3.4-3.2c1.2-0.4,1.4-0.2,1.6,1
			c0.5,2.8,0.1,5.5-0.3,8.3c-0.2,1.4-0.5,2.8-0.8,4.3c0.8-1.1,1.1-2.1,1.4-3.2c0.7-2.7,1.4-5.3,1.6-8.1c0.2-2.4-0.1-4.7-0.5-7
			c-0.3-1.6,0.3-2.7,1.8-3.4c0.5-0.3,1.1-0.5,1.7-0.7c2.1-0.6,3.6-1.9,4.9-3.5c0.8-1,1.5-2,2.4-2.9c1.3-1.4,2.4-1.4,3.9-0.2
			c0,0.2,0,0.4,0,0.7c0.7,3,1.4,6,2,9.1c0.4,2.3,0.8,4.6,0.9,6.9c0.1,2,0,3.9-0.1,5.9c-0.2,3.4-0.6,6.8-1.6,10.1
			c-1.3,4.7-3.4,9-7.3,12.1c-3.7,3-7.9,4.4-12.6,4.7c-1.9,0.1-3.8,0.1-5.7-0.1c-2.3-0.3-4.6-0.6-6.8-1.1c-1.3-0.3-2.5-0.7-3.9-0.8
			c-2-0.4-3.5-1.6-5.3-2.7c0.1,0.6,0.1,1.2,0.2,1.7C0,94.5-0.2,96.3-0.8,98c-0.4,1.3-0.7,2.6-0.9,4c-0.3,2.5,0.7,4.3,2.7,4.9
			c0.8,0.2,1.7,0.3,2.5,0.2c0.5,0.3,0.9,0.7,1,1.3c-2.5,0.8-4.7,0.3-6.9-1.1c-2-1.3-3.7-3-5.4-4.6c-1.6-1.4-3.2-2.6-5.3-3.3
			c-2.7-0.9-5.2-2.3-7.6-3.9c-0.1-0.1-0.2-0.2-0.4-0.2l0,0c-0.1-0.3-0.3-0.4-0.6-0.3c0,0,0,0,0-0.1c0,0,0,0,0,0.1h0.1v0.1
			c-0.1,0.8,0.2,1.5,0.5,2.2c0.6,1.7,1.7,3,2.4,4.6c0.1,0.3,0.2,0.5,0.2,0.9c-1,4.9-2.3,9.8-4,14.5c-1.1,3-2.7,5.7-5.1,7.9
			c-2.1,1.9-4.2,3.7-6.3,5.6c-1.5,1.3-3.2,2.2-5.4,1.6c-2.1-0.5-2.1-0.5-3,1.4c-1,2-3.8,3.9-6.6,2.2
			C-49.1,135.2-49.6,134.7-50.3,134.5z M1.1,87.9c0.1,0,0.3,0,0.3-0.2c0.2-0.2,0.5-0.2,0.7-0.5C0.7,87.5-0.6,87.7-2,88
			c-1.1,0.2-1.7,1-1.9,2c-0.2,1.1-0.4,2.3-0.6,3.4c-0.1,0.3,0.1,0.2,0.2,0.3c0.3-0.1,0.4-0.3,0.5-0.5c1.1-1.5,2.2-2.9,3.6-4.1
			C0.4,88.8,1,88.6,1.1,87.9L1.1,87.9z M39.5,46.4c0.2-0.1,0.2-0.3,0.1-0.5s-0.3,0-0.4,0.1c-1.2,0.4-2.1,1.3-2.8,2.3
			c-2.1,3.2-5,5.3-8.9,5.8c-0.3,0-0.5,0.1-0.6,0.3c-0.1,0-0.2,0-0.2,0c-0.1,0.1,0,0.1,0,0.1c1.6,0.6,3.3,1.2,5.1,0.6
			c1.9-0.7,3.6-1.7,5-3.3C38.1,50.2,38.9,48.3,39.5,46.4z"/>
		<path fill="#F0E406" d="M16.1,57c-0.1,0-0.2,0-0.2,0.1c-0.1,0.2,0.1,0.3,0.2,0.2c0.7-0.1,1,0.2,0.8,0.9c-0.2,0.6-0.7,0.7-1.3,0.5
			c-0.9-0.3-1.9,0.1-2.5,0.8c-0.1,0.2-0.2,0.4-0.3,0.5c-1.7,1-2.9,2.7-4.5,3.6c-0.6,0.4-0.9,1.1-1.4,1.3c-1,0.4-1.6,1.4-2.5,1.9
			c-1.2,0.7-1.9,2-3.1,2.7c-1.1,0.7-1.9,1.9-3.2,2.5c-0.1,0-0.2,0.1-0.3,0.2c-1,1.3-2.5,2.1-3.6,3.3c-0.6,0.7-1.4,1.4-2.4,1.7
			c-0.1,0-0.3,0.1-0.4,0.3c-1,1.3-2.3,2.1-3.5,3.1c-0.7,0.6-1.5,1.2-2,2c-0.4,0.7-1.3,0.8-1.9,1.2c-0.3,0.3-0.7,0.4-0.9,0.8
			c-0.1,0.1-0.2,0.3-0.3,0.4c-1.5,0.6-2.4,2-3.7,3c-0.6,0.4-0.9,1.1-1.6,1.4c-0.3,0.1-0.5,0.4-0.2,0.7c0.2,0.2,0.2,0.5,0.1,0.7
			c-0.2,0.3-0.4,0.1-0.7,0c-0.4-0.3-0.5,0-0.4,0.3c0.2,0.7-0.5,1.4-0.2,2.2c0.1,0.3-0.4,0.6-0.8,0.5c0.2-0.8,0.3-1.7,0.1-2.5
			c-0.3-1.5-0.2-3-0.4-4.5c-0.6-4.2-1.4-8.3-2.3-12.4c-0.3-1.5-0.9-3-1.1-4.6c0.3,0,0.5,0,0.7,0.3c0.3,0.4,0.5,0.2,0.7-0.1
			c0.3-0.9,1.1-1.3,1.7-1.8c0.4-0.3,0.6-0.5,0.2-1c-0.8-1.2-0.8-1.3,0.2-2.2c0.1-0.1,0.3-0.2,0.5-0.3c0.6-0.5,1.4-0.8,1.7-1.5
			c0.5-0.9,1.1-1.2,2.1-1.2c0.8,0,1.1-0.9,1.7-1.2c0.2-0.1-0.1-0.3-0.2-0.4c-0.2-0.2-0.4-0.3-0.3-0.6c0.1-0.2,0.2-0.3,0.4-0.3
			c0.3,0,0.5,0.1,0.6,0.4c0.1,0.5,0.3,0.3,0.5,0.1c0.4-0.4,0.5-0.8,0.5-1.3s0-1.2,0.8-1.2c0.1,0.4,0.2,0.8,0.3,1.2
			c0,0.1,0,0.3,0.2,0.1c0-0.1,0-0.2,0-0.2c0.8-0.1,1.4-0.3,1.2-1.3c0-0.2,0.1-0.4,0.1-0.6c0.1-0.2,0.1-0.4,0.4-0.4
			c0.2,0,0.3,0.2,0.3,0.3c0.1,0.5,0.5,0.6,0.7,0.3c0.6-0.7,1.4-1,2-1.7c0.8-1,1.7-1.8,3-2c0.2-0.1,0.5-0.1,0.6-0.4
			c0.4-0.9,1-1.4,1.9-1.9c1.1-0.5,1.7-1.6,2.7-2.3c0.9-0.6,1.6-1.4,2.5-1.8c0.9-0.4,1.5-0.9,2.2-1.5s1.8-0.8,2.5-1.5
			c0.2-0.2,0.5-0.2,0.8-0.4c1.5-0.7,2.7-2.2,4.5-2.5c0.5-0.1,1.1-0.2,1.6-0.6c0.7,0.1,1.3,0.2,2,0.3c3.6,1.1,6.9,6.8,6.6,9.7
			c-1.4,0.5-2.8,1.3-4.3,1.7c-0.3,0.1-0.6,0.2-0.9,0.2c-0.4,0.3-0.4,0.6,0.1,1c0.6,0.3,0.8,0.7,0.9,1.4c0,0.8,0.2,1.7,0.6,2.4
			C16.3,57,16.2,57,16.1,57z M-12,63c-0.1,0-0.1,0-0.2,0c-0.2,0.1-0.4,0.3-0.6,0.6c0.7,0.2,1.3-0.1,1.8-0.2c0.4-0.1,0.9-0.2,1.1,0.3
			c0.5,1.5,1.5,2.6,2.9,3.3c-0.1,0.3-0.2,0.5-0.3,0.8c-0.4,1.1-0.6,2.2-0.6,3.5c0.2-0.2,0.2-0.3,0.3-0.4c2-3.6,5-6.2,8.4-8.3
			c1.4-0.9,2.8-1.7,4.3-2.6c0.4,0.1,0.5-0.3,0.8-0.3c0.4-0.1,0.4-0.3,0-0.3c-0.6-0.1-1.2-0.1-1.7,0.3c-0.2,0-0.4,0-0.6,0.1
			c-0.4,0-0.6-0.3-0.7-0.6c-0.3-1.1-0.9-2-1.8-2.7c-0.6-0.5-1-1-0.5-1.8v-0.1c0.2,0,0.5-0.2,0.4-0.4c-0.2-0.2-0.4,0-0.6,0.2
			c-0.9,0.4-1.8,0.5-2.7,0.7c-1.8,0.4-3.5,0.7-4.9,2.1C-8.8,58.9-10.4,61-12,63L-12,63z M16.7,58.1c-0.1-0.3-0.4-0.2-0.6-0.2
			c-0.2,0-0.4,0-0.4,0.2c0,0.3,0.2,0.4,0.5,0.4C16.4,58.5,16.6,58.3,16.7,58.1z"/>
		<path fill="#F1E400" d="M-32.6,66.9c0.2,5.6,1.8,11,1.8,16.6c0,3.4-0.5,6.7-2,9.8c-0.2,0.4-0.4,0.7-0.9,0.8
			c-3.9,0.4-7.3,1.9-10.7,3.7c-2.3,1.2-4.5,2.5-6.8,3.7c-4,2.2-8.6,1.6-12-1.5c-0.4-0.4-0.8-0.9-1.2-1.2c-1.9-1.4-1.8-3.2-1.2-5.2
			c0.8-2.6,2.2-4.9,3.5-7.3c0.7,0.3,0.6-0.7,1.2-0.7c0.4,0,0.5-0.2,0.4-0.6c-0.1-0.3,0-0.6,0.4-0.5c0.5,0.2,0.6-0.1,0.9-0.4
			c0.4-0.4,0.7-1.2,1.4-1c0.9,0.3,1.1-0.3,1.3-0.9c0.1-0.3,0.2-0.5,0.5-0.6c1.1-0.6,2.2-0.9,3.1-1.7c0.3-0.3,0.8-0.4,1.1-0.6
			c0.5-0.3,1.3-0.5,1.5-1.1c0.4-1,1.3-1.2,2.2-1.4c0.9-0.2,1.5-0.8,2.2-1.4c0.5-0.4,1-1,1.5-1c1.2-0.2,1.9-1.2,2.9-1.6
			c0.2-0.1,0.6-0.1,0.7-0.4c0.2-0.7,0.8-0.8,1.3-1.1c0.8-0.5,2-0.6,2.5-1.4c0.9-1.4,2.8-1.7,3.7-3.1c0-0.1,0.2-0.1,0.3-0.1
			c0,0.5,0,1.1,0,1.6h0.1C-32.6,67.7-32.6,67.3-32.6,66.9z"/>
		<path fill="#F2E500" d="M-86.6,125.3c0.1-0.4,0.1-0.8,0.2-1.2c0.4-1.4,0.1-2.6-0.8-3.9c-2.6-3.8-4.7-7.9-6.4-12.2
			c-0.1-0.1-0.1-0.3-0.1-0.4c0.1-1.2-0.3-2.3-0.4-3.5c-0.2-1.8-0.6-3.6-0.6-5.4c0.5,0.1,1,0.8,1.4-0.1c0,0,0.1,0,0.2-0.1
			c0.9-0.4,1.7-0.9,2.6-1.2c0.3-0.1,0.7-0.4,0.8-0.8c0.1-0.2,0.2-0.4,0.4-0.5c0.5-0.2,1-0.4,1-1c0-0.2,0.3-0.4,0.4-0.3
			c0.6,0.4,0.9,0,1.3-0.3c0.3-0.3,0.9-0.3,0.9-0.9c0,0,0.2-0.1,0.4-0.1c0.4,0,0.6-0.2,0.8-0.5c0.2-0.3,0.4-0.5,0.8-0.6
			c1.4-0.3,2.3-1.4,3.4-2c0.9-0.5,1.7-1.5,2.9-1.1c0.1-0.3-0.6-0.7,0-0.9c0.6-0.2,1.1-0.8,1.9-0.5c0.2,0.1,0.3,0,0.4-0.2
			s0-0.3-0.2-0.4c-0.1-0.1-0.5,0-0.3-0.4c0.1-0.2,0.3-0.2,0.5-0.2c0.3-0.1,0.7,0.3,0.8,0c0.2-0.7,0.7-0.4,1.1-0.5
			c1.4,2.7,2.9,5.4,4.5,8c-0.2,1.1-0.3,2.2-0.5,3.4c-0.1,0.3,0,0.6,0.3,0.8c2,2.2,4.1,4.4,6.7,6c0.1,0,0.1,0.1,0.2,0.1l0,0
			c0,0.9,0.9,1,1.3,1.5c0,0.2-0.1,0.4-0.4,0.5c-1.1,0.3-2.6-0.1-3.1,1.5c0,0,0,0-0.1,0c-0.8,0.3-1.3,1-1.9,1.5
			c-1.1,0.9-1.8,2.2-3.2,2.8c-0.1,0-0.1,0.1-0.1,0.2c-0.1,1.1-1,1-1.7,1.1c-0.3,0-0.7,0.1-0.8,0.5c0,0.7-0.5,0.8-1,0.8
			c-0.4,0-0.5,0.2-0.5,0.6c-0.1,0.9-1.5,0.7-1.4,1.8c0,0.2-0.3,0.1-0.5,0.2c-0.8,0.3-1.2,1.3-2,1.7v0.2c0,0.7-0.3,1-1.1,0.8
			c-0.4-0.1-1.1-0.2-1.2,0.4c-0.1,0.7-0.5,0.9-1,1c-0.8,0.2-1,0.9-1.4,1.4c-0.6,0.6-1,1.2-1.8,1.5l-0.1,0.1c-0.6,1-1.7,1.2-2.6,1.7
			c-0.1-0.1-0.2-0.3-0.1-0.5C-86.5,125.6-86.3,125.5-86.6,125.3z"/>
		<path fill="#F2E517" d="M-31,60.7c-0.4-1.2,0-2.5-0.4-3.8c-0.4,1.5-0.6,2.9-0.9,4.4c0-0.4-0.3-0.5-0.6-0.4
			c-0.6,0.2-1.2,0.4-1.6,0.8c-0.5,0.5-1,0.9-1.6,1.1c-0.9,0.3-1.1,1.2-0.6,1.6c0.2,0.1,0.5,0.3,0.3,0.5s-0.5,0.1-0.7-0.2
			c-0.3-0.6-0.9-0.5-1.3-0.3c-1,0.6-2,1.3-2.9,2c-0.1,0.1-0.1,0.4-0.4,0.4c-1.1,0.1-2,0.6-2.6,1.5c-0.2,0.3-0.6,0.5-1,0.5
			c-0.6,0-1,0.2-1.4,0.7c-0.8,1-2,1.4-3,2c-0.6,0.4-1.2,0.8-1.7,1.3c-0.6,0.6-1.3,0.9-2,1.1c-0.2,0.1-0.5,0-0.5,0.3
			c-0.1,0.9-0.9,1-1.5,1.2c-0.2,0.1-0.4,0.1-0.4,0.4c0,0.2,0.1,0.3,0.3,0.3c0.5,0.1,0.4,0.4,0.1,0.6c-0.4,0.3-0.8,0.8-1.5,0.7
			c-1.6,1.6-2.9,3.3-4.3,5c-1.5,1.7-2.8,3.6-4.2,5.6c-0.8-2.5-2.4-4.3-3.8-6.3c-0.1-0.9,0.3-1.7,0.4-2.5c0.1-0.6,0.1-1.4,0.6-2
			c0.8,0.1,0.9-0.3,0.7-1c0-0.1-0.1-0.3-0.1-0.4s0-0.2,0-0.3c0.4,0,0.6,0.4,0.8,0.6c0.4,0.5,0.8,0.5,1-0.2c0.1-0.3,0.3-0.5,0.6-0.5
			c0.4,0,0.5-0.3,0.2-0.6c-0.2-0.2-0.5-0.5-0.3-0.8s0.6,0.1,0.8,0c0.1,0,0.2,0,0.3,0.1c0.2,0.1,0.5,0.2,0.6,0s-0.1-0.5-0.4-0.5
			c-0.4-0.1-0.4-0.3-0.1-0.5c0.2-0.2,0.4-0.4,0.6-0.5c0.2-0.2,0.5-0.2,0.8,0s0.1,0.5,0,0.7s-0.2,0.4,0,0.5c0.1,0.2,0.4,0.2,0.4,0.1
			c0.4-0.6,1.3-0.8,1.3-1.7c0-0.7,0.5-0.8,0.9-0.5c0.6,0.4,1,0.1,1.3-0.3c0.3-0.3,0.5-0.6,0.7-0.9c0.2-0.4,0.5-0.5,0.9-0.3
			s0.8,0.1,1-0.3c0.1-0.3,0.3-0.4,0.6-0.5c0.3-0.1,0.5-0.2,0.5-0.6c0-0.3,0.1-0.5,0.3-0.6c0.3-0.2,0.5-0.4,0.5-0.8
			c0-0.3,0.2-0.3,0.5-0.2c0.2,0.1,0.5,0.4,0.2,0.6c-0.7,0.5-0.5,1.2-0.5,1.8c-0.3,0.7-0.6,1.3-1,2s-1,1.3-1,2.2c0,0,0,0,0,0.1
			c0,0,0,0,0-0.1c1.2-1.1,2.2-2.4,3.1-3.7c2.5-3.4,4.6-7,6.2-10.9c0.2-0.6,0.5-1,0.9-1.4c0.5-0.5,1-0.6,1.6-0.4
			c0.6,0.2,0.5,0.8,0.6,1.2c0.2,1.4,0.4,2.9,0.5,4.3c0.4-1.6,0.7-3.1,1.2-4.6c0.1-0.1,0.1-0.1,0.2-0.2c0-0.2-0.1-0.5,0.2-0.7
			c0.5-0.1,0.6-0.8,1.2-0.8c0.8,0,1.4-0.5,2-0.9c0.7-0.6,1.4-1.2,2.1-1.7c0.3-0.2,0.4-0.8,1-0.7c0.4,0.1,0.7-0.1,0.9-0.3
			c0.6-0.7,1.6-0.8,2.3-1.5c0.8-0.8,1.8-1.6,3-1.8c0.1,0,0.2-0.1,0.3-0.2c0.8-0.6,1.6-1.2,2.5-1.7c0.5-0.3,0.9-0.6,1.2-1.1
			c0.2-0.3,0.3-1.1,0.8-0.2c0.1,0.1,0.3,0.1,0.4,0c0.4-0.5,1.1-0.6,1.6-1s0.9-1,1.7-1c0.2,0,0.4-0.3,0.5-0.5c0.7-0.5,1-1.3,2-1.5
			c0.5-0.1,0.9-0.5,1.3-0.8c0.6-0.4,1.1-0.9,1.8-1.1c0.8-0.2,1.4-0.8,2-1.4c0.3-0.4,0.7-0.6,1.2-0.6c0.8-0.1,1.3-0.8,2.2-0.9
			c0.2,0,0.2-0.4,0.3-0.6c0.2-0.5,0.5-1,1-1.3c0.1,0.3-0.3,0.5,0,0.7c0.1,0,0.2,0,0.3,0c0.2-0.1,0.2-0.3,0.2-0.6
			c-0.1-0.5,0.2-0.5,0.5-0.5s0.7,0.1,1-0.2c1-0.9,2.1-1.8,3.4-2.2c0.3-0.1,0.5-0.2,0.6-0.5c0.3-0.7,0.9-0.8,1.6-0.9
			c0.3-0.1,0.6-0.1,0.8-0.3c0.4-0.6,1-0.6,1.7-0.5c1.4,1.4,2.9,2.7,4,4.3c-0.1,0.3-0.4,0.4-0.7,0.5c-1.1,0.5-2.2,0.8-3.2,1.6
			c-1.7,1.6-3.6,3.1-5.7,4.2c-0.5,0.2-1,0.5-1.4,0.9c-0.9,0.9-1.9,1.6-3.2,1.9c-0.3,0.1-0.5,0.1-0.4,0.5c0.2,0.6,0.2,0.6-0.6,0.7
			c0.1-0.1,0.3-0.1,0.2-0.2c0-0.3-0.2-0.2-0.3-0.1c-2.8,0.9-5.5,1.9-6.9,4.8c-0.1-0.4-0.2-0.4-0.5-0.1c-0.5,0.5-1,0.9-1.8,0.9
			c-0.3,0-0.5,0.2-0.3,0.5c0.1,0.3,0.1,0.5-0.2,0.6c-1.1,0.4-2.3,0.5-3.2,1.7c-0.5,0.8-1.5,1.1-2.4,1.6c-0.9,0.4-1.9,0.9-2.4,1.9
			c-0.1,0.1-0.3,0.2-0.5,0.2c-1.9,0.4-2.7,1.3-2.7,3.2c0,0.2,0,0.3,0,0.5C-30.7,60.8-30.6,60.2-31,60.7z"/>
		<path fill="#F0E406" d="M-86.6,126.2c0.9-0.5,2-0.7,2.6-1.7l0.1-0.1c0.8-0.2,1.3-0.9,1.8-1.5c0.5-0.5,0.7-1.2,1.4-1.4
			c0.5-0.1,0.9-0.3,1-1c0.1-0.6,0.7-0.6,1.2-0.4c0.7,0.2,1.1,0,1.1-0.8c0-0.1,0-0.2,0-0.2c0.9-0.4,1.2-1.4,2-1.7
			c0.2-0.1,0.5,0,0.5-0.2c-0.1-1.1,1.4-0.9,1.4-1.8c0-0.4,0.1-0.5,0.5-0.6c0.5,0,1-0.2,1-0.8c0-0.4,0.4-0.4,0.8-0.5
			c0.7-0.1,1.6,0,1.7-1.1c0-0.1,0.1-0.2,0.1-0.2c1.4-0.6,2.1-1.9,3.2-2.8c0.6-0.5,1.1-1.2,1.9-1.5h0.1c0.5-1.6,2-1.2,3.1-1.5
			c0.3-0.1,0.3-0.3,0.4-0.5c0.1,0,0.2,0,0.3,0c0.1,0.1,0.1,0.1,0.2,0.2l0,0c0.1,0.1,0.1,0.1,0.2,0.2c0.2,0.1,0.5,0.2,0.7,0.3
			c1.9,0.7,3.7,1.3,5.8,1.1c4.2-0.4,8-2.2,11.9-3.6c1.6-0.6,3.1-1.2,4.7-1.6c0.3,0.3,0.3,0.1,0.3-0.2c0.4-0.2,0.7-0.3,1.2-0.3
			c0.4,0.7,0.1,1.3-0.5,1.7c-1.2,0.8-2.3,1.8-3.3,2.8l-0.1,0.1c-1.9,1.1-3.4,2.7-5.1,4.1c-0.9,0.7-1.8,1.4-2.6,2.2
			c-1.3,1.1-2.6,2.2-3.9,3.3c-0.6,0.5-1.2,1.1-1.8,1.6c-0.1,0.1-0.1,0.3-0.1,0.5c-0.4,0.1-0.8,0.1-1.2,0.2c0-0.2-0.1-0.4-0.3-0.4
			c-0.3,0-0.3,0.2-0.4,0.4c-0.2,0.1-0.3,0.1-0.5,0.2c0-0.1-0.1-0.2-0.1-0.2c-0.2,0-0.2,0.1-0.2,0.2c-0.5,0.1-0.9,0.1-1.4,0.2
			c-2,0.2-4,0.2-6,0.2c-0.3,0-0.5,0.1-0.8,0.2c-0.4-1.8-0.8-3.6-1.1-5.4c-0.1-0.8-0.2-1.6-0.4-2.6c-0.2,1-0.3,1.8-0.4,2.7
			c-0.3,3-0.7,6-1.5,8.8c-0.5,1.5-0.9,3.1-2,4.3c-1.9,2.2-4.1,4.1-6.8,5.2c-0.4,0.2-0.6,0.5-0.5,0.9c0.2,0.8,0.2,1.7,0.1,2.5
			c0,1.1-0.4,2-1.5,2.4c-0.8,0.3-1.6,0.6-2.4,0.5c-1.3,0-2.6,0-3.9,0c-1.3-0.3-2.6-0.8-3.7-1.6c-1.3-0.9-1.6-2-1.1-3.5
			c0.8-2.2,1.5-4.4,1.9-6.7C-86.8,126.4-86.9,126.2-86.6,126.2z"/>
		<path fill="#FAF5CC" d="M-94.7,98.7c0,1.8,0.4,3.6,0.6,5.4c0.1,1.2,0.6,2.3,0.4,3.5c-1.2-2.6-2-5.4-2.6-8.2
			c-1-4.7-1.3-9.5-0.8-14.3c0.4-4.1,1.9-7.8,3.7-11.4c5.5-11.1,14.4-17.9,26.3-21c2.4-0.6,4.7-1.1,7.4-1.4
			c-3.3,3.9-6.6,7.6-9.6,11.4c-0.2,0-0.5,0-0.7,0.1c-2.2,0.8-4.5,1.6-6.7,2.6c-2.8,1.3-5.5,2.9-7.8,5c-1.5,1.4-2.9,2.8-4.2,4.5
			c-1,1.2-1.8,2.5-2.6,3.9c-1.1,2-2,4.1-2.6,6.3c-0.3,1.3-0.7,2.6-0.7,3.9c0,0.4,0,0.9,0,1.3c-0.3,0.1-0.3,0.4-0.3,0.6
			c0,1,0,2.1,0,3.1c0,0.3,0,0.7,0,1c0,1,0,2.1,0,3.1C-94.9,98.3-94.9,98.6-94.7,98.7L-94.7,98.7z"/>
		<path fill="#CCCB0C" d="M-50.3,134.5c0.7,0.2,1.2,0.7,1.8,1.1c2.8,1.7,5.6-0.2,6.6-2.2c0.9-1.9,1-1.9,3-1.4
			c2.2,0.5,3.8-0.3,5.4-1.6c2.1-1.8,4.3-3.7,6.3-5.6c2.4-2.2,4-4.9,5.1-7.9c1.7-4.7,3-9.6,4-14.5c0.1-0.3,0-0.6-0.2-0.9
			c-0.7-1.6-1.8-3-2.4-4.6c-0.2-0.7-0.6-1.4-0.5-2.2c0.2,0,0.2,0.4,0.5,0.2l0,0c-0.2,0.3,0.1,0.4,0.2,0.5c1.9,2.2,4.1,4.1,6.9,5.2
			c0.8,0.3,0.6,0.9,0.5,1.4c-0.4,3-1.4,5.8-2.2,8.7c-1.8,6.2-4.8,11.8-8.6,17c-0.8,1-1.7,1.9-2.7,2.7c-2.7,2-5.3,4.2-8,6.2
			c-1.1,0.8-1.9,1.8-2.6,2.9c-0.6,0.9-1.3,1.7-2.3,2.3c-2,1.1-3.9,0.9-5.7-0.5c-0.2-0.2-0.5-0.4-0.7-0.6
			C-47.6,138.9-49,136.8-50.3,134.5z"/>
		<path fill="#F3E62F" d="M-94.6,88.9c0-1.4,0.4-2.7,0.7-3.9c0.6-2.2,1.4-4.3,2.6-6.3c0.8-1.4,1.7-2.6,2.6-3.9
			c1.3-1.6,2.7-3.1,4.2-4.5c2.3-2.1,5-3.7,7.8-5c2.2-1,4.4-1.7,6.7-2.6c0.2-0.1,0.4,0,0.7-0.1c-1.9,2.9-3.5,5.9-5,9
			c-0.9,2-1.6,4-1,6.2c-0.4,0-0.3-0.4-0.4-0.6c0-0.2-0.1-0.4-0.3-0.2c-0.4,0.5-1,0.5-1.6,0.6c-0.4,0.1-0.6,0.3-0.5,0.7
			c0.2,0.7,0,0.9-0.8,0.8c-0.4-0.1-0.7,0-0.9,0.4c-0.3,0.6-0.7,0.8-1.3,0.9c-0.2,0-0.4,0.1-0.5,0.3c-0.2,0.6-0.7,0.7-1.1,0.9
			c-0.4,0.2-0.8,0.5-1.1,0.7c-1.1,0.6-1.9,1.6-3.3,1.7c-0.2,0-0.4,0.1-0.4,0.4c-0.2,1.2-0.9,1.4-1.9,1.3c-0.3,0-0.3,0.2-0.5,0.4
			c-0.8,0.7-1.5,1.6-2.7,1.7C-93.5,87.9-94.2,88.1-94.6,88.9z"/>
		<path fill="#CCCB0C" d="M-35.3,101.9c-0.4,0-0.8,0.2-1.2,0.3c-0.1,0-0.3,0-0.3,0.2c-1.6,0.4-3.1,1.1-4.7,1.6
			c-3.9,1.4-7.7,3.1-11.9,3.6c-2.1,0.2-4-0.4-5.8-1.1c-0.2-0.1-0.5-0.2-0.7-0.3c-0.1-0.1-0.1-0.1-0.2-0.2l0,0
			c-0.1-0.1-0.1-0.1-0.2-0.2c-0.1,0-0.2,0-0.3,0c-0.4-0.6-1.3-0.6-1.3-1.5c2.7,1.1,5.5,1.6,8.4,0.9c2.2-0.5,4.1-1.8,6.1-2.8
			c3.5-1.9,6.9-3.8,10.6-5c1.7-0.5,3.5-0.9,5.3-1c0.5,0,0.7-0.2,0.8-0.6c2.1-5.4,2.8-10.9,2.2-16.7c-0.4-3.4-1.1-6.6-1.6-10
			c-0.4-2.8-0.8-5.6-0.9-8.5c0.4-0.5,0.3,0.2,0.5,0.2c0,0.2,0,0.3,0,0.5c0.1,0.3,0.1,0.6,0.3,0.8c0.2,0.8,0.3,1.7,0.5,2.5
			c0.3,1.2,0.5,2.5,1,3.7c0,0.1,0,0.2,0,0.3c0,0.2,0,0.4,0.2,0.5c0,0.2,0,0.5,0.2,0.7c0.2,1.6,0.7,3,1.1,4.6
			c0.9,4.1,1.7,8.2,2.3,12.4c0.2,1.5,0.2,3,0.4,4.5c0.1,0.8,0.1,1.7-0.1,2.5c-0.3,2.3-1.2,4.4-2.2,6.4c-0.2,0.4-0.5,0.6-1,0.5
			c-2.2-0.1-4.4,0.2-6.6,0.8C-34.8,101.7-35.1,101.7-35.3,101.9z"/>
		<path fill="#F2E517" d="M-94.6,88.9c0.4-0.8,1.2-1,2.1-1.1c1.1-0.1,1.8-1,2.7-1.7c0.2-0.1,0.2-0.4,0.5-0.4c1,0.1,1.8-0.2,1.9-1.3
			c0-0.2,0.2-0.3,0.4-0.4c1.3-0.1,2.2-1.2,3.3-1.7c0.4-0.2,0.7-0.5,1.1-0.7s1-0.3,1.1-0.9c0-0.2,0.3-0.3,0.5-0.3
			c0.6-0.1,1-0.4,1.3-0.9c0.2-0.4,0.5-0.4,0.9-0.4c0.7,0.1,1-0.2,0.8-0.8c-0.1-0.4,0.1-0.6,0.5-0.7c0.5-0.2,1.1-0.2,1.6-0.6
			c0.2-0.2,0.3,0,0.3,0.2c0,0.3-0.1,0.6,0.4,0.6l0,0c0,0.3-0.1,0.6,0.3,0.7c0,0.1,0,0.2,0.1,0.2c0,0.2,0,0.4,0.3,0.4
			c0,0.1,0,0.2,0.1,0.2c0,0.2,0,0.4,0.3,0.4c0,0,0.1,0.1,0,0.1c0,0.3,0,0.5,0.3,0.5c0.2,0.1,0.3,0.3,0.3,0.5c-0.2,1.7,0.2,3.4,0.7,5
			c-0.4,0.1-0.9-0.2-1.1,0.5c-0.1,0.3-0.5,0-0.8,0c-0.2,0-0.4,0-0.5,0.2c-0.2,0.3,0.2,0.3,0.3,0.4s0.3,0.2,0.2,0.4
			c-0.1,0.2-0.3,0.2-0.4,0.2c-0.8-0.3-1.3,0.3-1.9,0.5s0.2,0.6,0,0.9c-1.3-0.4-2.1,0.6-2.9,1.1c-1.1,0.7-2.1,1.7-3.4,2
			c-0.3,0.1-0.6,0.3-0.8,0.6c-0.2,0.3-0.5,0.5-0.8,0.5c-0.1,0-0.4,0.1-0.4,0.1c0,0.6-0.6,0.6-0.9,0.9c-0.4,0.3-0.7,0.8-1.3,0.3
			c-0.1-0.1-0.4,0.1-0.4,0.3c-0.1,0.6-0.6,0.8-1,1c-0.2,0.1-0.4,0.2-0.4,0.5c-0.1,0.4-0.4,0.7-0.8,0.8c-0.9,0.3-1.7,0.8-2.6,1.2
			c0,0-0.1,0-0.2,0.1c-0.4,0.9-0.9,0.2-1.4,0.1v-0.1c0-1,0-2.1,0-3.1c0-0.2,0-0.5-0.3-0.6c0-0.3,0-0.7,0-1c0.4-0.1,0.3-0.4,0.3-0.7
			c0-1,0-2,0-3C-94.7,89.8-94.6,89.4-94.6,88.9z"/>
		<path fill="#F3E626" d="M1.6,30.7c-0.6,0-1.2,0-1.7,0.5c-0.2,0.2-0.5,0.3-0.8,0.3c-0.6,0.1-1.3,0.3-1.6,0.9
			c-0.1,0.3-0.4,0.4-0.6,0.5c-1.3,0.5-2.4,1.3-3.4,2.2c-0.3,0.3-0.7,0.1-1,0.2c-0.3,0-0.7,0-0.5,0.5c0.1,0.2,0.1,0.4-0.2,0.6
			c-0.1,0-0.2,0.1-0.3,0c-0.2-0.2,0.2-0.4,0-0.7C-9,36-9.3,36.5-9.5,37c-0.1,0.2-0.1,0.6-0.3,0.6c-0.8,0.1-1.4,0.8-2.2,0.9
			c-0.5,0-0.9,0.2-1.2,0.6c-0.5,0.6-1.1,1.2-2,1.4c-0.7,0.2-1.2,0.7-1.8,1.1c-0.4,0.3-0.9,0.7-1.3,0.8c-0.9,0.2-1.3,1-2,1.5
			c-0.2,0.1-0.3,0.5-0.5,0.5c-0.8,0-1.2,0.5-1.7,1s-1.2,0.5-1.6,1c-0.1,0.1-0.3,0.1-0.4,0c-0.5-0.9-0.6-0.1-0.8,0.2
			c-0.3,0.5-0.7,0.8-1.2,1.1c-0.9,0.5-1.7,1.1-2.5,1.7c-0.1,0.1-0.2,0.2-0.3,0.2c-1.2,0.3-2.2,1.1-3,1.8c-0.7,0.7-1.7,0.8-2.3,1.5
			c-0.2,0.3-0.6,0.4-0.9,0.3c-0.5-0.1-0.6,0.5-1,0.7c-0.8,0.5-1.4,1.1-2.1,1.7c-0.5,0.5-1.1,1-2,0.9c-0.6,0-0.7,0.7-1.2,0.8
			c0.9-2.9,2.5-5.3,4.7-7.3c2.4-2.1,5.1-3.7,8.1-4.8c0.2,0,0.4-0.1,0.1-0.3c-0.2-0.1-0.5-0.1-0.8,0.1c-0.2,0-0.3,0-0.5,0
			c-0.3-0.2-0.5-0.3-0.7,0.2c-0.4,0.2-0.5-0.3-0.8-0.3c-0.3-0.1-0.8,0.3-0.9-0.3c-0.1-0.5,0.3-0.8,0.8-0.9c0.1,0,0.2,0,0.3-0.1
			c0.2,0,0.4,0,0.4-0.2c0-0.3-0.2-0.2-0.4-0.3c-0.6-0.1-1.2,0.1-1.8,0.2c1-0.4,1.6-1.3,2.5-1.6c0.4-0.1,0.9,0,0.9,0.6
			c0,0.2,0,0.4,0.2,0.5c0.5,0.1,0.8-0.1,1.1-0.4c0.3-0.2,0.4-0.6,0.2-0.9c-0.2-0.3-0.2-0.6,0.1-0.7c0.4-0.2,0.5,0.2,0.6,0.4
			c0.1,0.1,0.1,0.3,0.1,0.4c0.1,0.1,0.1,0.4,0.3,0.3c0.2,0,0.3-0.2,0.2-0.4c0-0.4-0.1-0.7-0.1-1.1c0.1,0,0.2,0.1,0.3,0.1
			c0,0.2,0.1,0.3,0.3,0.3l0,0c0,0.4-0.1,1,0.7,0.6c0.7,0.3,1,1,1.6,1.4c0.2,0.4,0.5,0.7,1,0.9c-0.1-0.6-0.2-1-0.6-1.3
			c-0.3-0.6-0.6-1.2-0.9-1.8c0.3,0,0.5,0.1,0.8,0.1c0.4,0,0.8,0.1,1.1-0.1c0.8-0.6,1.3-1.7,2.6-1.4c0.1,0,0.2-0.1,0.3-0.1
			c0.7-0.5,1.4-0.9,1.9-1.6c0.2-0.2,0.4-0.4,0.7-0.5c1.1-0.5,2-1.3,2.9-2c0.4-0.3,0.7-0.8,1.4-0.4c0.4,0.3,0.5,0,0.6-0.4
			c0-0.5,0.3-0.6,0.7-0.5c0.2,0.1,0.4,0.1,0.5-0.1c0.7-1,2-1.1,2.8-2c0.5-0.6,1.2-1.2,2.1-1.5c0.3-0.1,1.1,0.4,0.6-0.6
			c-0.1-0.2,0.2-0.2,0.3-0.2c0.9,0.2,1.5-0.2,1.8-1c0.2-0.3,0.4-0.6,0.6-1c1.1,0.5,2.2,1,3.1,1.9C0.8,30.1,1.2,30.4,1.6,30.7z"/>
		<path fill="#CCCB0C" d="M-23.8,131.6c6.3-6.6,9.4-14.7,11.9-23.2c0.6,1.5,1,3,1.7,4.5c0.8,1.9,1.1,3.9,1.1,5.9
			c0,1.3,0,2.6,0.1,3.9c0.1,1.5,0,2.9,0.7,4.4c0.6,1.3,0.2,2.9-0.4,4.3c-0.4,0.8-1.2,1.1-2,1.1c-3.9,0.1-7.8,0.1-11.7-0.3
			C-22.8,132.1-23.3,132-23.8,131.6z"/>
		<path fill="#CCCB0C" d="M5.2,93.3c1.3,0,2.6,0.5,3.9,0.8c2.3,0.5,4.5,0.8,6.8,1.1c1.9,0.2,3.8,0.2,5.7,0.1
			c4.6-0.3,8.9-1.7,12.6-4.7c3.9-3.2,6-7.4,7.3-12.1c0.9-3.3,1.3-6.7,1.6-10.1c0.1-2,0.2-3.9,0.1-5.9c-0.1-2.3-0.4-4.6-0.9-6.9
			c-0.6-3.1-1.3-6.1-2-9.1c-0.1-0.2,0-0.4,0-0.7c1.1,0.8,1.7,1.9,2.2,3.2c1.8,5,2.7,10.1,3.1,15.4c0.3,4,0.3,8-0.5,12
			c-1,5.1-2.9,9.7-6.3,13.7C35,94.6,30,96.6,24.2,97c-4.9,0.3-9.6-0.7-14.2-2.1C8.3,94.3,6.7,93.9,5.2,93.3z"/>
		<path fill="#F2E500" d="M-57.1,77.5c0.6,0,1-0.4,1.5-0.7c0.2-0.2,0.4-0.5-0.1-0.6c-0.2,0-0.3-0.1-0.3-0.3c0-0.2,0.2-0.3,0.4-0.4
			c0.6-0.3,1.3-0.4,1.5-1.2c0-0.2,0.3-0.2,0.5-0.3c0.8-0.2,1.4-0.6,2-1.1c0.5-0.5,1.1-0.9,1.7-1.3c1-0.6,2.3-1,3-2
			c0.4-0.5,0.8-0.7,1.4-0.7c0.4,0,0.8-0.2,1-0.5c0.7-0.9,1.5-1.4,2.6-1.5c0.3,0,0.2-0.3,0.4-0.4c1-0.7,1.9-1.4,2.9-2
			c0.3-0.2,1-0.3,1.3,0.3c0.2,0.3,0.5,0.4,0.7,0.2c0.3-0.3-0.1-0.4-0.3-0.5c-0.5-0.4-0.2-1.3,0.6-1.6c0.7-0.3,1.2-0.6,1.6-1.1
			c0.4-0.4,1-0.6,1.6-0.8c0.3-0.1,0.5,0,0.6,0.4c-0.1,0.8-0.2,1.6-0.2,2.4c0,0.1-0.1,0.1-0.1,0.2s0,0.1,0,0.2
			c-0.1,0.1-0.1,0.1-0.2,0.2c0,0.8,0,1.6,0,2.3c-0.1,0-0.3,0-0.3,0.1c-0.9,1.4-2.8,1.7-3.7,3.1c-0.5,0.8-1.7,0.9-2.5,1.4
			c-0.5,0.3-1.2,0.4-1.3,1.1c-0.1,0.3-0.5,0.3-0.7,0.4c-1,0.4-1.7,1.4-2.9,1.6c-0.5,0.1-1,0.6-1.5,1c-0.6,0.6-1.2,1.2-2.2,1.4
			c-0.8,0.2-1.8,0.4-2.2,1.4c-0.2,0.6-1,0.8-1.5,1.1c-0.4,0.2-0.8,0.3-1.1,0.6c-0.9,0.8-2.1,1.2-3.1,1.7c-0.3,0.2-0.4,0.3-0.5,0.6
			c-0.1,0.7-0.3,1.2-1.3,0.9c-0.7-0.2-1,0.6-1.4,1c-0.3,0.3-0.5,0.6-0.9,0.4c-0.5-0.2-0.6,0.1-0.4,0.5c0.1,0.4,0,0.6-0.4,0.6
			c-0.6-0.1-0.5,0.9-1.2,0.7c0.3-0.7,0.7-1.3,1.1-2c0.2,0,0.3-0.2,0.3-0.4c0-0.2,0.2-0.5,0.3-0.6c0.4,0,0.3-0.3,0.3-0.5
			c0.2-0.5,0.5-1,0.9-1.5c0-0.1,0.1-0.1,0.1-0.2c0.2-0.4,0.4-0.8,0.7-1.1c0.4,0,0.4-0.3,0.3-0.5c0.1-0.4,0.4-0.8,0.7-1.1
			c0.4,0,0.3-0.3,0.3-0.5C-57.1,77.7-57.1,77.6-57.1,77.5z M-50.8,74.5c0.1-0.3-0.2-0.4-0.4-0.4c-0.3-0.1-0.4,0.1-0.5,0.3
			c-0.1,0.2,0.1,0.4,0.3,0.4C-51.1,74.8-50.9,74.8-50.8,74.5z M-34.5,63.6c0.1-0.1,0.3-0.1,0.3-0.4c-0.1-0.2-0.2-0.4-0.5-0.4
			c-0.2,0-0.3,0.2-0.3,0.3C-34.9,63.5-34.8,63.6-34.5,63.6z M-44,70.1c-0.1-0.2-0.2-0.3-0.5-0.4c-0.2,0-0.3,0-0.2,0.2
			s0.2,0.4,0.5,0.4C-44.1,70.3-44,70.2-44,70.1z M-40.5,67.5c0-0.2-0.2-0.3-0.3-0.3c-0.2,0-0.3,0-0.4,0.2c0,0.2,0.1,0.3,0.3,0.3
			C-40.8,67.6-40.6,67.7-40.5,67.5z M-38,66.4l-0.1-0.1c0,0,0,0.1-0.1,0.1l0.1,0.1C-38.1,66.6-38,66.5-38,66.4z"/>
		<path fill="#FAF5CC" d="M-67.7,75.6c0,0.1,0,0.2,0,0.3c-0.4,0.3-0.6,0.8-0.6,1.4c-0.5,0.6-0.5,1.3-0.6,2c-0.1,0.8-0.5,1.7-0.4,2.5
			c-0.6-0.7-1.1-1.5-1.7-2.2c-1.6-2.1-1.7-4.2-0.6-6.6c2.2-4.9,4.9-9.3,8.6-13.2c4.6-4.9,8.7-10.3,13.5-15c1.2-1.2,2.5-2.4,4.2-3
			c0.1,0,0.2,0,0.3-0.1c0,0.3-0.3,0.5-0.5,0.7c-1.2,1.3-2.5,2.7-3.7,4.1c-1.7,2-3.3,4.1-4.7,6.2c-1.3,2-2.7,4.1-3.7,6.3
			c0,0.1,0,0.2,0,0.3c-0.2,0-0.3,0.2-0.3,0.4v0.1c-0.4,0.3-0.7,0.6-0.7,1.2l0,0c-0.2,0-0.3,0.1-0.3,0.3c0,0.1,0,0.1,0,0.2
			c-0.2,0.3-0.5,0.5-0.6,0.8c0,0.1,0,0.2-0.1,0.3c-0.2,0-0.3,0.1-0.3,0.3c-0.2,0.3-0.4,0.6-0.6,0.9c-1.3,2.2-2.7,4.3-4,6.5
			C-65.6,72.1-66.7,73.9-67.7,75.6z"/>
		<path fill="#F3E738" d="M-57.7,59c1.1-2.2,2.4-4.2,3.7-6.3c1.4-2.2,3-4.3,4.7-6.2c1.2-1.4,2.4-2.7,3.7-4.1
			c0.2-0.2,0.5-0.3,0.5-0.7c1.4-0.5,2.9-0.6,4.4-0.8c3.3-0.5,6.6-1.1,9.8-1.9c0.1,0,0.3,0,0.4,0c0.5,0,1,0.3,1.5,0.4
			c0.8,0.2,1.7,0.4,2.2,1.2c0,0.4,0.1,0.7,0.1,1.1c0,0.2-0.1,0.4-0.2,0.4c-0.2,0.1-0.2-0.2-0.3-0.3c0-0.1-0.1-0.3-0.1-0.4
			c-0.1-0.3-0.3-0.6-0.6-0.4c-0.3,0.2-0.3,0.4-0.1,0.7s0.1,0.7-0.2,0.9c-0.3,0.3-0.7,0.5-1.1,0.4c-0.3-0.1-0.2-0.3-0.2-0.5
			c0-0.6-0.5-0.8-0.9-0.6c-1,0.3-1.6,1.2-2.5,1.6c0.6-0.1,1.2-0.3,1.8-0.2c0.2,0,0.4,0,0.4,0.3c0,0.2-0.2,0.2-0.4,0.2
			c-0.1,0-0.2,0-0.3,0.1c-0.5,0.1-0.9,0.4-0.8,0.9s0.6,0.1,0.9,0.3c0,0.1,0,0.1,0,0.2c-0.1,0-0.2,0-0.3,0c-2.7,0.3-5.5,0.6-8.2,0.8
			c-2,0.2-3.9,0.5-5.3,2.3c-0.5,0.7-1,1.4-1.4,2.1c-0.9,1.6-1.5,3.4-2.3,5.1c0.1-0.4-0.3-0.6-0.3-0.9c0-0.3,0-0.7-0.4-0.6
			c-0.4,0.1-0.3,0.5-0.1,0.7c0.1,0.1,0.1,0.2-0.1,0.3c-0.6-0.4-1.2-0.5-1.8-0.1c-1.1,0.7-1.9,1.7-3,2.4c-0.1,0.1-0.1,0.2-0.1,0.4
			s-0.1,0.4-0.3,0.4C-56.1,58.4-56.8,58.9-57.7,59z"/>
		<path fill="#CCCB0C" d="M-84,138.3c1.3,0,2.6,0,3.9,0c0.8,0,1.6-0.2,2.4-0.5c1.1-0.4,1.5-1.3,1.5-2.4c0-0.8,0.1-1.7-0.1-2.5
			c-0.1-0.4,0.1-0.7,0.5-0.9c2.7-1.2,4.9-3.1,6.8-5.2c1.1-1.2,1.5-2.8,2-4.3c0.9-2.9,1.2-5.9,1.5-8.8c0.1-0.8,0.2-1.6,0.4-2.7
			c0.2,1,0.3,1.8,0.4,2.6c-0.2,0.3-0.1,0.6-0.1,0.9c0,3.2,0,6.4,0,9.6c0,1.6-0.4,3.1-1.3,4.4c-1,1.6-2,3.1-2.9,4.8
			c-0.2,0.4-0.3,0.8-0.3,1.3c0.1,1.2,0,2.4-0.2,3.5c-0.4,1.7-1,2.2-2.8,2.3c-2.2,0.1-4.4-0.2-6.6-0.7
			C-80.6,139.3-82.4,138.9-84,138.3z"/>
		<path fill="#FAF5CC" d="M-26.8,40.7c-0.5-0.8-1.4-1-2.2-1.2c-0.5-0.1-0.9-0.5-1.5-0.4c-0.4-0.3-0.8-0.1-1.3-0.1
			c-2.9,0.1-5.8,0.3-8.9,0.5c0.5-0.7,0.9-1.2,1.3-1.7c3.1-4.3,7.4-7,12.3-8.8c3.3-1.2,6.6-2.5,10.1-3.1c0.3-0.1,0.6-0.1,0.9,0.1
			c-1.7,0.6-3.5,1-5.2,1.8c-1.5,0.7-2.8,1.6-3.7,3.1c-1,1.7-1,3.6-1,5.5c0,0.2,0.1,0.4,0.3,0.4c0,0.3,0,0.6,0,1
			c0,0.3-0.1,0.6,0.3,0.7c0,0.2,0,0.4,0.1,0.6c0,0.2,0.1,0.3,0.3,0.4c0,0.2,0,0.4,0.1,0.6c0,0.2,0.1,0.3,0.3,0.4
			c0,0.2,0,0.4,0.1,0.5c0.3,0.6,0.6,1.2,0.9,1.8c0,0.2-0.1,0.3-0.4,0.4c-0.6-0.4-1-1.1-1.6-1.4c-0.1-0.3-0.4-0.6-0.7-0.6l0,0
			c0-0.2-0.1-0.3-0.3-0.3C-26.6,40.7-26.7,40.7-26.8,40.7z"/>
		<path fill="#F3E62F" d="M-25.5,37.7c0-0.3,0-0.6,0-1c0.1-0.3-0.1-0.6,0.4-0.7c0.9-0.1,1.7-0.5,2.6-0.5c0.6,0,1.3-0.4,1.5-1.1
			c0.2-0.4-0.1-1.1,0.6-1.2c0.5-0.1,0.9-0.4,1.5-0.4c0.7,0.1,1.2-0.6,1.8-0.8c0.1,0,0.1-0.3,0.1-0.4c-0.3-0.7,0.3-0.9,0.6-1.1
			c0.5-0.2,1-0.4,1.6-0.4c0.7,0,1.3-0.3,1.7-0.9c0.2-0.3,0.5-0.6,0.9-0.6c1-0.2,1.6-1,2.5-1.4c0.3-0.1,0.5-0.5,0.9-0.7
			c0.9-0.5,1.8-0.2,2.7-0.3c0.1,0,0.2,0,0.2,0.2c0.2,0.3,0.6,0.1,0.9,0.2c0.1,0,0.1,0,0.1,0c0.1,0.4,0.4,0.3,0.7,0.3
			C-4.1,27-4,27-3.9,27.1c0.1,0.2,0.3,0.1,0.5,0.1c0.3,0,0.5,0.1,0.7,0.3c-0.2,0.3-0.5,0.6-0.6,1c-0.4,0.8-0.9,1.2-1.8,1
			c-0.2,0-0.4,0-0.3,0.2c0.5,0.9-0.3,0.5-0.6,0.6c-0.9,0.3-1.6,0.9-2.1,1.5c-0.8,0.9-2.1,1.1-2.8,2c-0.1,0.1-0.3,0.1-0.5,0.1
			c-0.4-0.1-0.7,0-0.7,0.5c0,0.3-0.1,0.7-0.6,0.4c-0.6-0.4-1,0.1-1.4,0.4c-0.9,0.8-1.8,1.6-2.9,2c-0.2,0.1-0.5,0.3-0.7,0.5
			c-0.6,0.6-1.2,1.1-1.9,1.6c-0.1,0.1-0.2,0.2-0.3,0.1c-1.3-0.3-1.8,0.8-2.6,1.4c-0.4,0.3-0.7,0.2-1.1,0.1c-0.3,0-0.5-0.1-0.8-0.1
			c-0.2-0.1-0.1-0.3-0.1-0.5s-0.1-0.3-0.3-0.4c0-0.2,0-0.4-0.1-0.6c0-0.2,0-0.4-0.3-0.4c0-0.2,0-0.4-0.1-0.6
			C-25.2,38.2-25,37.8-25.5,37.7z"/>
		<path fill="#F1E400" d="M-101,121.2c-2.1-2-3.5-4.4-3.8-7.4c-0.1-0.6,0.1-1.2,0.6-1.7c1.7-1.7,3.4-3.4,5.1-5.1
			c0.5,0.7,0.6,1.5,0.9,2.3c0.9,2.4,1.9,4.7,3.3,6.9c0.8,1.1,1.1,2.2,0.3,3.5c-0.3,0.6-0.7,1.1-1.1,1.7c-0.2,0.2-0.4,0.3-0.7,0.2
			C-98,121.4-99.5,121.3-101,121.2z"/>
		<path fill="#F3E738" d="M-6.1,26.4c-0.9,0.1-1.8-0.2-2.7,0.3c-0.4,0.2-0.6,0.6-0.9,0.7c-0.9,0.3-1.5,1.2-2.5,1.4
			c-0.4,0.1-0.7,0.3-0.9,0.6c-0.4,0.6-1,0.9-1.7,0.9c-0.6,0-1.1,0.2-1.6,0.4c-0.4,0.2-1,0.4-0.6,1.1c0,0.1,0,0.4-0.1,0.4
			c-0.6,0.2-1.1,0.8-1.8,0.8c-0.6-0.1-1,0.3-1.5,0.4c-0.7,0.1-0.5,0.7-0.6,1.2c-0.2,0.7-0.9,1-1.5,1.1c-0.9,0.1-1.7,0.4-2.6,0.5
			c-0.5,0.1-0.3,0.4-0.4,0.7c-0.2-0.1-0.3-0.2-0.3-0.4c0-1.9,0-3.8,1-5.5c0.8-1.5,2.2-2.3,3.7-3.1c1.7-0.8,3.4-1.3,5.2-1.8
			c1.5-0.5,3-0.6,4.6-0.4c1.1,0.1,2.2,0.1,3.3,0.3C-7.4,26-6.7,26.1-6.1,26.4z"/>
		<path fill="#DFDE53" d="M-96.9,75.3c-0.5,1.4-0.9,2.7-1.3,4c-0.1,0.2-0.2,0.3-0.4,0.4c-1.4,0.5-2.7,0.9-4.2,0.7
			c-1.1-0.1-1.9-0.6-2.4-1.6c-0.5-0.9-0.8-1.8-1.1-2.8c-0.2-0.8-0.4-1.5-1-2.2c-1.1-1.4-1.1-2.9-0.4-4.5c1.1-2.6,3.1-4.5,5.4-6.1
			c0.2-0.2,0.5-0.3,0.9-0.6c-0.3,0.8-0.6,1.5-0.9,2.2c-0.6,1.6-0.6,3.3-0.7,5s-0.6,3.2-1.9,4.4c-0.2,0.2-0.4,0.4-0.2,0.7
			c0.4,0.7,0.7,1.4,1.1,2c0.5,0.9,1.1,1.1,2.2,0.9c1.5-0.3,2.9-1,4.1-1.9C-97.5,75.8-97.3,75.6-96.9,75.3z"/>
		<path fill="#CCCB0C" d="M-101,121.2c1.5,0.1,3.1,0.2,4.6,0.4c0.3,0,0.5,0,0.7-0.2c0.4-0.5,0.7-1.1,1.1-1.7
			c0.8-1.3,0.5-2.4-0.3-3.5c0.1-0.2,0.3-0.3,0.3-0.5c0.1-0.7,0.5-0.8,1.1-0.5c0.2,0.1,0.3,0.4,0.5,0.4c0,0,0.1,0.1,0,0.1
			c0,0.1,0.1,0.1,0.1,0.2l0.1,0.1c0,0.2,0,0.3,0.2,0.4c1.1,1.9,2.2,3.8,3.4,5.6c0.1,0.2,0.2,0.3,0.1,0.5c-0.6,2.5-1.8,4.2-4.9,3.3
			C-96.8,125-99,123.3-101,121.2z"/>
		<path fill="#CCCB0C" d="M-55.1,118.5c0.2-0.1,0.3-0.1,0.5-0.2c0.2,0,0.4,0,0.7,0c0.4-0.1,0.8-0.1,1.2-0.2c1.8-0.4,3.7-0.9,5.5-1.5
			c0.9-0.3,1.5-0.9,2.1-1.7c1-1.3,2-2.6,3-3.9c0.2-0.2,0.3-0.4,0.6-0.4l0,0c-0.4,1.1-0.9,2.2-1.3,3.3c-0.8,1.5-1.4,3-1.8,4.6
			c-0.1,0.6-0.3,0.8-1,1c-5.6,1.1-11.3,1.1-16.9,0.2c-0.4-0.1-1-0.1-0.9-0.8c0.2-0.1,0.5-0.2,0.8-0.2c2,0,4,0,6-0.2
			c0.5,0,0.9-0.1,1.4-0.2C-55.3,118.5-55.2,118.5-55.1,118.5z"/>
		<path fill="#CCCB0C" d="M5.1,108c-0.1-0.6-0.5-1-1-1.3c0.6-0.2,1.2-0.3,1.8-0.8c-2.1-0.2-4.3,0.4-5.7-2c1.3,0.4,2.4,0.8,3.6,0.8
			c1.4,0.1,2.6-0.2,3.8-0.9c1.1-0.7,1.8-1.6,2-2.9c0.2-0.9,0.4-1.9,0.7-2.8c0.1-0.4,0.3-0.5,0.7-0.4c1.6,0.4,1.6,0.4,1.1,2
			c-0.2,0.7-0.4,1.3-0.6,2C10.7,105,8.4,107,5.1,108z"/>
		<path fill="#D1D023" d="M-73,86.1c-0.5-1.6-0.8-3.3-0.7-5c2,2.7,4.2,5.2,5.6,8.3c0.5,1.1,0.8,2.1,0.1,3.2c-0.3,0.4-0.4,1-0.5,1.5
			C-70.1,91.5-71.6,88.8-73,86.1z"/>
		<path fill="#D1D023" d="M-93,115.5c-0.3,0-0.3-0.3-0.5-0.4c-0.6-0.3-1-0.2-1.1,0.5c0,0.2-0.2,0.3-0.3,0.5
			c-1.5-2.1-2.4-4.5-3.3-6.9c-0.3-0.8-0.4-1.6-0.9-2.3c0.8-0.8,0.8-2,1.4-3.1C-96.5,108.1-94.9,111.8-93,115.5z"/>
		<path fill="#D1D023" d="M1.6,30.7c-0.4-0.4-0.9-0.7-1.2-1.1C0.8,29.5,1,29.8,1.2,30c2.9,2,5.4,4.4,8.2,6.7c1,0.8,2.1,1.7,3.2,2.5
			c-0.8,0.2-1.7,0.2-2.5,0.7c1.5,0,2.9,0,4.2,0.5c-0.4,0.1-0.8-0.1-1.2,0.2c-0.7-0.1-1.3-0.2-2-0.3c-0.7,0-1.4,0-2.2,0
			c-0.2,0-0.4,0-0.5,0.2c-0.5,0.1-1,0.1-1.5,0.2C6.7,40.4,7,40.3,7.1,40c0.7-0.8,1-1.8,0.4-2.5c-0.7-0.8-1.1-1.7-1.9-2.4
			C4.5,33.4,3,32.1,1.6,30.7z"/>
		<path fill="#CCCB0C" d="M13.1,40.5c0.4-0.3,0.8-0.1,1.2-0.2l0,0c0.1,0.3,0.3,0.4,0.5,0.4c0.6,0.3,1.1,0.6,1.7,0.9
			c2.2,1.1,3.6,3,4.9,5c0.9,1.4,1.7,2.8,2.5,4.5c-1.4-0.3-2.7-1.1-4.1-0.9C20,47.3,16.7,41.7,13.1,40.5z"/>
		<path fill="#FAF5CC" d="M16.8,55.3c0.1-0.7,0.4-1.3,1.1-1.6c0.6-0.2,1.1,0,1.6,0.4c0.4,0.4,0.5,0.9,0.4,1.5
			c-0.1,0.5-0.6,0.4-0.9,0.5c-0.6,0.2-1.1,0.3-1.7,0.5C17.1,56.1,16.9,55.7,16.8,55.3z"/>
		<path fill="#CCCB0C" d="M16.8,55.3c0.2,0.4,0.4,0.8,0.5,1.2c-0.3,0.2-0.7,0.3-1,0.4c-0.4-0.8-0.6-1.6-0.6-2.4
			c0-0.7-0.3-1.1-0.9-1.4c-0.6-0.4-0.6-0.7-0.1-1c0,0.4,0.3,0.3,0.5,0.3c0.6,0,1.1,0.1,1.8-0.2C16.6,53.3,16.2,54.3,16.8,55.3z"/>
		<path fill="#CCCB0C" d="M22.2,59.3c0.4-1.1,0-1.8-1-2c-0.9-0.2-1.8-0.3-2.7-0.4c1.4-0.3,2.8,0,4.3,0c0.3,0,0.4,0.2,0.5,0.5
			c0.1,0.4,0.2,0.8,0.2,1.1s0.4,0.8,0,1C23.1,59.8,22.6,59.8,22.2,59.3z"/>
		<path fill="#DFDE53" d="M-100.5,64.6c0.9,0.6,1,1.5,1.1,2.4c-0.4-0.2-0.7-0.6-1.2-0.6c-0.3,0-0.3-0.2-0.3-0.4
			C-100.7,65.6-100.6,65.1-100.5,64.6z"/>
		<path fill="#F3E738" d="M-32.8,66.5c0-0.8,0-1.6,0-2.3c0.1,0,0.1,0,0.2,0c0,0.4,0,0.8,0,1.3c0.1,0.5,0.1,1,0,1.5
			c0,0.4-0.1,0.8-0.1,1.2h-0.1C-32.8,67.6-32.8,67-32.8,66.5z"/>
		<path fill="#CCCB0C" d="M23.4,51.4c0.8-0.2,0.8,0.5,1,0.8c0,0-0.1,0.1-0.1,0.2c-0.1,0.1-0.2,0-0.3-0.1
			C23.8,52,23.6,51.7,23.4,51.4z"/>
		<path fill="#F1E400" d="M-32.6,65.4c0-0.4,0-0.8,0-1.3c0-0.1,0-0.1,0-0.2s0-0.1,0-0.2h0.1C-32.5,64.4-32.4,64.9-32.6,65.4z"/>
		<path fill="#F3E738" d="M-4.2,27.1c-0.3,0-0.6,0.2-0.7-0.3C-4.7,27-4.3,26.8-4.2,27.1z"/>
		<path fill="#F2E517" d="M-57.1,77.8c0,0.3,0,0.5-0.3,0.5C-57.5,78-57.3,77.9-57.1,77.8z"/>
		<path fill="#F3E62F" d="M-74,80.6c-0.4,0-0.4-0.3-0.3-0.5C-74.2,80.2-74.1,80.4-74,80.6z"/>
		<path fill="#F2E517" d="M-60.1,82.7c0,0.3,0,0.5-0.3,0.5C-60.4,83.1-60.3,82.9-60.1,82.7z"/>
		<path fill="#F3E62F" d="M-75.1,78.6c-0.4-0.1-0.3-0.4-0.3-0.7C-75.2,78.1-75.1,78.4-75.1,78.6z"/>
		<path fill="#F3E738" d="M-5,26.7c-0.3,0-0.6,0.1-0.9-0.2C-5.6,26.6-5.2,26.5-5,26.7z"/>
		<path fill="#F2E517" d="M-58.1,79.4c0,0.3,0,0.5-0.3,0.5C-58.4,79.7-58.3,79.5-58.1,79.4z"/>
		<path fill="#D1D023" d="M14.8,40.7c-0.2,0-0.4-0.1-0.5-0.4C14.5,40.4,14.7,40.4,14.8,40.7z"/>
		<path fill="#F3E62F" d="M-74.8,79.3c-0.3,0-0.3-0.2-0.3-0.4C-74.9,79-74.8,79.1-74.8,79.3z"/>
		<path fill="#F3E738" d="M-3.4,27.4c-0.2,0-0.4,0-0.5-0.1C-3.7,27.2-3.5,27.2-3.4,27.4z"/>
		<path fill="#F3E62F" d="M-74.4,80c-0.3,0-0.3-0.2-0.3-0.4C-74.5,79.6-74.4,79.8-74.4,80z"/>
		<path fill="#F1E400" d="M-60.8,83.9c0,0.2,0,0.4-0.3,0.4C-60.9,84.2-60.9,84-60.8,83.9z"/>
		<path fill="#F0E406" d="M-86.6,125.3c0.3,0.2,0.1,0.3-0.1,0.4C-86.6,125.6-86.6,125.4-86.6,125.3z"/>
		<path fill="#D1D023" d="M-92.6,116.4c-0.2-0.1-0.2-0.2-0.2-0.4C-92.7,116.1-92.7,116.2-92.6,116.4z"/>
		<path fill="#F2E517" d="M-32.5,63.8h-0.1c0-0.1,0.1-0.1,0.1-0.2C-32.5,63.7-32.5,63.8-32.5,63.8z"/>
		<path fill="#CCCB0C" d="M-61.9,104.4c-0.1,0-0.1-0.1-0.2-0.1C-62,104.3-61.9,104.3-61.9,104.4z"/>
		<path fill="#F2E517" d="M-59.1,81.1c0,0.1-0.1,0.1-0.1,0.2C-59.2,81.2-59.1,81.1-59.1,81.1z"/>
		<path fill="#D1D023" d="M-92.9,115.9c0-0.1-0.1-0.1-0.1-0.2C-92.9,115.7-92.9,115.8-92.9,115.9z"/>
		<path fill="#161907" d="M39.5,46.4c-0.7,2-1.5,3.9-2.8,5.5c-1.4,1.6-3,2.6-5,3.3c-1.8,0.6-3.4,0-5.1-0.6c-0.1,0-0.2,0,0-0.1
			c0.1,0,0.2,0,0.2,0c1.4,0.3,2.8,0.3,4.1-0.2c2.5-1.1,4.6-2.8,6.4-4.9c0.7-0.9,1.3-1.8,1.9-2.8C39.4,46.2,39.5,45.9,39.5,46.4z"/>
		<path fill="#CCCB0C" d="M39.5,46.4c-0.1-0.5-0.2-0.1-0.3,0c-0.6,1-1.2,1.9-1.9,2.8c-1.7,2.1-3.8,3.8-6.4,4.9
			c-1.3,0.6-2.7,0.5-4.1,0.2c0.2-0.2,0.4-0.3,0.6-0.3c3.9-0.5,6.8-2.5,8.9-5.8c0.7-1.1,1.6-1.9,2.8-2.3c0.1,0,0.3-0.2,0.4-0.1
			C39.8,46,39.7,46.2,39.5,46.4z"/>
		<path fill="#161907" d="M-4.2,93.8c-0.2,0-0.3,0-0.2-0.3c0.2-1.1,0.4-2.3,0.6-3.4s0.8-1.8,1.9-2c1.3-0.3,2.7-0.5,4.1-0.8
			c-0.2,0.4-0.5,0.3-0.7,0.5c-0.1,0-0.3,0-0.3,0.2l0,0c-2.2,0.8-4.1,1.8-4.8,4.4C-3.8,92.8-4,93.3-4.2,93.8z"/>
		<path fill="#CCCB0C" d="M-4.2,93.8c0.2-0.5,0.5-0.9,0.6-1.5c0.6-2.5,2.5-3.6,4.8-4.4c-0.1,0.7-0.7,0.9-1.2,1.2
			c-1.5,1.2-2.6,2.6-3.6,4.1C-3.8,93.5-4,93.7-4.2,93.8z"/>
		<path fill="#080B05" d="M-20.5,94.9c-0.3,0.2-0.3-0.2-0.5-0.2v-0.1h-0.1l0,0C-20.8,94.5-20.6,94.7-20.5,94.9z"/>
		<path fill="#CCCB0C" d="M-41.6,110.7c0-0.1,0-0.1,0.1-0.2c0,0,0,0,0.1,0C-41.5,110.6-41.6,110.7-41.6,110.7L-41.6,110.7z"/>
		<path fill="#CCCB0C" d="M1.1,87.9c0.1-0.1,0.2-0.2,0.3-0.2C1.4,87.9,1.3,88,1.1,87.9z"/>
		<path fill="#080B05" d="M-21.1,94.6C-21.1,94.6-21,94.6-21.1,94.6C-21,94.6-21.1,94.6-21.1,94.6L-21.1,94.6z"/>
		<path fill="#F2E500" d="M8.9,40.2c0.7,0,1.4,0,2.2,0c-0.4,0.4-1,0.5-1.6,0.6c-1.8,0.4-2.9,1.8-4.5,2.5c-0.3,0.1-0.7,0.2-0.8,0.4
			c-0.7,0.7-1.8,0.9-2.5,1.5s-1.3,1.2-2.2,1.5c-0.9,0.4-1.7,1.2-2.5,1.8c-1,0.7-1.6,1.8-2.7,2.3c-0.9,0.4-1.5,1-1.9,1.9
			C-7.7,52.9-8,53-8.2,53.1c-1.3,0.3-2.2,1.1-3,2c-0.5,0.7-1.4,1-2,1.7c-0.2,0.3-0.6,0.2-0.7-0.3c0-0.2-0.1-0.3-0.3-0.3
			c-0.2,0-0.3,0.2-0.4,0.4s-0.2,0.4-0.1,0.6c0.2,1-0.4,1.2-1.2,1.3c-0.1-3.8,1.2-7.1,3.3-10.1c0.9,0.1,1.1-0.4,1-1.2
			c0.1-0.2,0.3-0.4,0.5-0.5c0.4,0.4,0.8,0.3,1.1-0.1c0.2-0.4,0.5-0.7,0.4-1.2l0,0c0.8,0,0.8,0,0.6-0.7c-0.1-0.4,0.1-0.4,0.4-0.5
			c1.2-0.3,2.3-1,3.2-1.9c0.4-0.4,0.9-0.7,1.4-0.9c2.1-1.1,4-2.6,5.7-4.2c0.9-0.9,2.1-1.2,3.2-1.6c0.3-0.1,0.6-0.2,0.7-0.5
			c0.8,0.7,1.2,1.6,1.9,2.4c0.6,0.7,0.3,1.7-0.4,2.5c-0.5,0.1-0.6,0.5-0.4,0.9c0.1,0.1,0.2,0.3,0.4,0.2c0.3-0.2-0.2-0.3-0.2-0.4
			c0.5-0.1,1-0.1,1.5-0.2C8.6,40.4,8.8,40.4,8.9,40.2z M3.2,39.9c0.3-0.2,0.9,0,0.9-0.6c0-0.3-0.3-0.3-0.4-0.2
			c-0.4,0.1-0.8,0.2-0.9,0.6C2.6,39.9,2.9,39.8,3.2,39.9z M5.6,38.3C5.6,38,5.2,38.1,5,38c-0.1-0.1-0.4-0.1-0.3,0.1
			c0,0.2,0.1,0.5,0.4,0.5C5.3,38.7,5.5,38.6,5.6,38.3z"/>
		<path fill="#F2E500" d="M-28.6,68.7c0-0.1,0-0.2,0-0.3c0.3-0.5,0.6-0.4,0.9-0.1s0.5,0.7,0.9,0.5c0.5-0.2,0.3-0.7,0.3-1.1
			c0-0.3-0.1-0.5-0.2-0.8c-0.4-0.7-0.9-1.4-1.3-2c-0.1-0.2-0.4-0.5-0.6-0.3c-0.4,0.3-0.7,0.1-1.1,0.1c-0.2-0.8-0.3-1.7-0.5-2.5
			c-0.1-0.3,0.2-0.7-0.3-0.8c0-0.2,0-0.3,0-0.5s0-0.3,0-0.5c0-1.9,0.8-2.8,2.7-3.2c0.2,0,0.4-0.1,0.5-0.2c0.5-1,1.5-1.4,2.4-1.9
			c0.9-0.4,1.9-0.8,2.4-1.6c0.8-1.2,2-1.3,3.2-1.7c0.3-0.1,0.3-0.4,0.2-0.6c-0.1-0.3,0-0.5,0.3-0.5c0.7,0,1.3-0.4,1.8-0.9
			c0.2-0.3,0.4-0.3,0.5,0.1c0,0.1,0,0.1,0,0.1c-0.6,0.2-0.2,0.7-0.3,1.1c0,1.1,0,2.3,0.2,3.4c0,0.2,0.1,0.3,0.1,0.5
			c0.1,0.8-0.1,1.7,0.2,2.6c-0.8,0-0.8,0.7-0.8,1.2s-0.1,1-0.5,1.3c-0.3,0.2-0.4,0.4-0.5-0.1c-0.1-0.3-0.3-0.4-0.6-0.4
			c-0.2,0-0.4,0.1-0.4,0.3c-0.2,0.3,0.1,0.5,0.3,0.6c0.1,0.1,0.4,0.3,0.2,0.4c-0.6,0.3-0.9,1.2-1.7,1.2c-1,0-1.6,0.4-2.1,1.2
			c-0.4,0.6-1.1,1-1.7,1.5c-0.1,0.1-0.4,0.2-0.5,0.3c-1,0.9-1.1,1.1-0.2,2.2c0.4,0.5,0.2,0.7-0.2,1c-0.7,0.5-1.4,0.9-1.7,1.8
			c-0.1,0.4-0.4,0.5-0.7,0.1c-0.2-0.2-0.4-0.3-0.7-0.3c-0.1-0.2-0.2-0.4-0.2-0.7C-28.5,69-28.4,68.8-28.6,68.7z M-26.1,64.3
			c0-0.2-0.1-0.5-0.4-0.4c-0.2,0-0.5,0.2-0.4,0.5c0,0.3,0.2,0.5,0.4,0.5C-26.2,64.9-26.2,64.6-26.1,64.3z M-22.2,62.1
			c0-0.2-0.1-0.2-0.3-0.2s-0.3,0-0.4,0.2s0.1,0.2,0.2,0.3C-22.5,62.3-22.3,62.3-22.2,62.1z M-24.9,63.5l-0.1-0.1c0,0,0,0.1-0.1,0.1
			l0.1,0.1C-24.9,63.6-24.9,63.5-24.9,63.5z"/>
		<path fill="#080B05" d="M-7.2,67.8c0.1-0.3,0.2-0.5,0.3-0.8c0.5-0.5,0.7-1.1,1.1-1.6c0.7-0.8,1.4-1.6,2.3-2.2
			c0.5-0.3,0.4-0.7,0.1-1.1c-0.7-0.8-1.9-1.1-2.8-0.5c-1,0.6-1.3,1.7-0.7,3c-1.2-0.8-1.4-2.1-1.7-3.5c-0.6,0.4-1.1,0.8-1.6,1.1
			c-0.6,0.3-1,0.9-1.8,0.9c1.7-2,3.2-4.1,5-5.9c1.3-1.4,3.1-1.7,4.9-2.1c0.9-0.2,1.8-0.3,2.7-0.7c0.1,0.1,0.1,0.1,0.2,0.2v0.1
			c-0.8,0.5-1.5,0.9-2.4,1.4c1.4,0.6,2.2,1.5,2.9,2.7c0.3,0.5,0,1.3,0.7,1.4c0.5,0.1,1.1-0.2,1.7-0.4c0,0,0,0,0.1-0.1
			c0.2,0,0.4,0,0.6-0.1c0.6,0.1,1.1-0.4,1.7,0c-0.3,0.1-0.5,0.4-0.8,0.3c-0.6,0-1.1,0.3-1.6,0.5c-3.9,1.6-7.3,3.9-10.2,7
			C-6.8,67.6-6.8,68.2-7.2,67.8z"/>
		<path fill="#CCCB0C" d="M-7.2,67.8c0.4,0.4,0.5-0.2,0.6-0.3c2.9-3.1,6.3-5.4,10.2-7c0.5-0.2,1-0.5,1.6-0.5
			c-1.4,0.9-2.8,1.8-4.3,2.6c-3.5,2.1-6.4,4.7-8.4,8.3c0,0.1-0.1,0.2-0.3,0.4C-7.9,70-7.6,68.9-7.2,67.8z"/>
		<path fill="#CCCB0C" d="M-12,63c0.7,0,1.2-0.5,1.8-0.9c0.5-0.3,1-0.7,1.6-1.1c0.2,1.3,0.5,2.7,1.7,3.5c0.4,0.3,0.6,0.7,1.1,0.9
			c-0.4,0.5-0.6,1.2-1.1,1.6c-1.4-0.8-2.4-1.8-2.9-3.3c-0.2-0.5-0.7-0.4-1.1-0.3c-0.6,0.1-1.1,0.4-1.8,0.2
			C-12.5,63.3-12.3,63.2-12,63c-0.1,0.1,0,0.1,0,0.1S-12,63.1-12,63L-12,63z"/>
		<path fill="#D1D023" d="M-16.3,57.5c-0.3-0.8-0.1-1.7-0.2-2.6c0-0.2-0.1-0.3-0.1-0.5c0.4-0.2,0.4-0.7,0.5-1.1
			c0.9-3.1,2.5-5.5,5.3-7.2c0,0.2-0.1,0.4-0.1,0.5c-0.2,0.1-0.4,0.3-0.5,0.5c-0.3,0.4-0.7,0.8-1,1.2c-2.1,3-3.4,6.4-3.3,10.1
			c0,0.1,0,0.2,0,0.2c-0.1,0.2-0.1,0-0.2-0.1C-16.1,58.3-16.2,57.9-16.3,57.5z"/>
		<path fill="#CCCB0C" d="M3.7,59.7C3.6,59.7,3.6,59.8,3.7,59.7c-0.6,0.2-1.2,0.5-1.7,0.4c-0.7-0.1-0.4-0.9-0.7-1.4
			c-0.6-1.2-1.5-2.1-2.9-2.7c0.8-0.5,1.6-1,2.4-1.4c-0.5,0.8-0.1,1.3,0.5,1.8c0.8,0.7,1.4,1.6,1.8,2.7C3.1,59.4,3.2,59.7,3.7,59.7z"
			/>
		<path fill="#EBE21D" d="M16.7,58.1c-0.1,0.2-0.2,0.4-0.5,0.4c-0.3,0-0.5-0.2-0.5-0.4s0.2-0.2,0.4-0.2
			C16.3,57.8,16.5,57.8,16.7,58.1z"/>
		<path fill="#D7D634" d="M5.9,59.7c-0.5-0.4-1.1,0.1-1.7,0c0.5-0.4,1.1-0.4,1.7-0.3C6.3,59.4,6.3,59.6,5.9,59.7z"/>
		<path fill="#CCCB0C" d="M0.8,54.5c-0.1-0.1-0.1-0.1-0.2-0.2c0.2-0.1,0.4-0.4,0.6-0.2C1.3,54.4,1,54.5,0.8,54.5z"/>
		<path fill="#080B05" d="M-12,63c0,0.1,0,0.1,0,0.2l-0.1-0.1C-12.1,63-12.1,63-12,63z"/>
		<path fill="#F3E626" d="M-57.7,59c0.9-0.1,1.7-0.6,2.5-0.8c0.2-0.1,0.3-0.2,0.3-0.4c0-0.1,0-0.3,0.1-0.4c1.1-0.7,1.9-1.7,3-2.4
			c0.6-0.4,1.3-0.3,1.8,0.1c0.1-0.1,0.1-0.2,0.1-0.3c-0.2-0.3-0.4-0.6,0.1-0.7c0.4-0.1,0.4,0.3,0.4,0.6s0.4,0.5,0.3,0.9v0.1
			c-0.5,0.1-0.2,0.6-0.3,0.9c0,0.1,0,0.1,0,0.1c-0.5,0.1-0.2,0.6-0.3,0.9c0,0.1,0,0.1,0,0.1c-0.5,0.1-0.2,0.6-0.3,0.9
			c-0.4,1.4-0.8,2.7-1.2,4.1c-0.2,0.2-0.2,0.4-0.1,0.6c0,0.1,0,0.3,0,0.4c-0.1,0.1-0.1,0.2-0.2,0.3c-0.7,1.9-1.5,3.8-2.5,5.7
			c0-0.6-0.2-1.3,0.5-1.8c0.3-0.2,0-0.4-0.2-0.6s-0.5-0.1-0.5,0.2c0,0.4-0.3,0.6-0.5,0.8c-0.2,0.2-0.4,0.3-0.3,0.6
			c0,0.4-0.2,0.5-0.5,0.6s-0.5,0.2-0.6,0.5c-0.2,0.4-0.6,0.6-1,0.3c-0.4-0.3-0.7-0.1-0.9,0.3c-0.2,0.3-0.5,0.6-0.7,0.9
			c-0.4,0.4-0.7,0.8-1.3,0.3c-0.3-0.2-0.9-0.2-0.9,0.5c0,0.9-0.9,1.1-1.3,1.7c-0.1,0.1-0.3,0.1-0.4-0.1s-0.1-0.4,0-0.5
			c0.2-0.2,0.3-0.5,0-0.7s-0.5-0.1-0.8,0c-0.2,0.2-0.4,0.3-0.6,0.5c-0.2,0.2-0.3,0.4,0.1,0.5c0.3,0.1,0.5,0.3,0.4,0.5
			s-0.4,0.1-0.6,0c-0.1,0-0.2-0.1-0.3-0.1c-0.3,0.1-0.6-0.3-0.8,0c-0.2,0.3,0.1,0.6,0.3,0.8c0.3,0.4,0.2,0.6-0.2,0.6
			c-0.4,0-0.5,0.2-0.6,0.5c-0.2,0.6-0.6,0.6-1,0.2c-0.2-0.3-0.4-0.6-0.8-0.6c1-1.8,2-3.5,3.1-5.3c1.3-2.2,2.7-4.3,4-6.5
			c0.2-0.3,0.4-0.6,0.6-0.9c0.2,0,0.3-0.1,0.3-0.3c0-0.1,0-0.2,0.1-0.3c0.2-0.1,0.4-0.1,0.6-0.2c0.4-0.2,0.3-0.4,0-0.6
			c0-0.1,0-0.1,0-0.2c0.2,0,0.3-0.1,0.3-0.3l0,0c0.8-0.1,0.7-0.7,0.7-1.2v-0.1c0.2,0,0.3-0.2,0.3-0.4C-57.7,59.2-57.7,59.1-57.7,59z
			 M-52.8,57.6c0-0.3-0.2-0.4-0.4-0.4c-0.1,0-0.3,0-0.3,0.2s0.1,0.4,0.4,0.5C-53,57.8-52.8,57.8-52.8,57.6z M-56.8,59.8
			c-0.1,0-0.4,0.1-0.4,0.3s0.2,0.2,0.3,0.2c0.2,0,0.4,0,0.4-0.3C-56.5,59.9-56.6,59.9-56.8,59.8z M-54.9,59.2
			c-0.1-0.1-0.1-0.1-0.2-0.1l-0.1,0.1c0,0.1,0,0.2,0.2,0.2C-55,59.4-55,59.3-54.9,59.2z"/>
		<path fill="#D7D634" d="M-54.1,69.6c1-1.8,1.8-3.7,2.5-5.7c0-0.1,0.1-0.3,0.2-0.3c0.8-1.4,1.3-2.9,2-4.4c1.3-2.8,2.5-5.7,4.3-8.2
			c0.8-1,1.7-1.8,2.7-2.2c-1.9,2.4-1.6,4.9-1.1,7.5c0.1-0.1,0.2-0.2,0.2-0.2c0.4-2.9,1.8-5.2,3.5-7.4c0.6-0.8,1.2-1.2,2.2-1.5
			c2.1-0.6,4.2-1.1,6.2-2.1c0-0.1,0-0.1,0-0.2c0.3,0.1,0.5,0.5,0.8,0.3c0.2,0,0.5,0.1,0.7-0.2c0.2,0,0.3,0,0.5,0s0.5-0.1,0.7,0.2
			c-3,1.1-5.7,2.7-8.1,4.8c-2.3,2-3.9,4.4-4.7,7.3c-0.2,0.2-0.1,0.4-0.2,0.7c-0.1,0.1-0.1,0.1-0.2,0.2c-0.4,1.5-0.8,3.1-1.2,4.6
			c-0.2-1.5-0.3-2.9-0.5-4.3c-0.1-0.5,0-1.1-0.6-1.2c-0.6-0.2-1.1-0.1-1.6,0.4c-0.4,0.4-0.7,0.9-0.9,1.4c-1.5,3.9-3.6,7.5-6.2,10.9
			c-1,1.3-1.9,2.6-3.1,3.7l0,0c0-0.9,0.7-1.5,1-2.2C-54.7,71-54.4,70.3-54.1,69.6z"/>
		<path fill="#161907" d="M-10.9,46.2c-2.8,1.7-4.4,4.1-5.3,7.2c-0.1,0.4,0,0.9-0.5,1.1c-0.2-1.1-0.2-2.2-0.2-3.4
			c0.2-0.3,0.2-0.7,0.3-1.1c0,0,0.1-0.1,0-0.1c1.4-2.9,4.1-4,6.9-4.8c0.1,0,0.3-0.1,0.3,0.1c0,0.1-0.2,0.1-0.2,0.2l0,0
			c-0.3,0-0.4,0.2-0.7,0.4C-10.5,45.8-10.7,46-10.9,46.2L-10.9,46.2C-10.8,46-10.9,46.1-10.9,46.2L-10.9,46.2z"/>
		<path fill="#F3E626" d="M-68.4,77.3c0-0.5,0.2-1,0.6-1.4c0,0.1,0.1,0.3,0.1,0.4C-67.4,77-67.6,77.4-68.4,77.3z"/>
		<path fill="#F3E626" d="M-41.9,58.3c0.1-0.1,0.1-0.1,0.2-0.2C-41.8,58.2-41.9,58.3-41.9,58.3z"/>
		<path fill="#D7D634" d="M-56.1,73.8C-56.1,73.8-56.1,73.9-56.1,73.8C-56.1,73.9-56.1,73.8-56.1,73.8L-56.1,73.8z"/>
		<path fill="#EBE21D" d="M-53.9,118.4c-0.2,0-0.4,0-0.7,0c0-0.2,0.1-0.5,0.4-0.4C-54,118-53.9,118.2-53.9,118.4z"/>
		<path fill="#EBE21D" d="M-36.8,102.4c0.1-0.1,0.2-0.2,0.3-0.2C-36.5,102.5-36.5,102.7-36.8,102.4z"/>
		<path fill="#EBE21D" d="M-55.1,118.5c-0.1,0-0.2,0-0.3,0c0-0.1,0-0.3,0.2-0.2C-55.2,118.3-55.1,118.4-55.1,118.5z"/>
		<path fill="#F2E500" d="M-60.2,105.9c0.1,0.1,0.1,0.1,0.2,0.2C-60.1,106-60.2,106-60.2,105.9z"/>
		<path fill="#F2E500" d="M-60.1,106.1c0.1,0.1,0.1,0.1,0.2,0.2C-60,106.2-60,106.1-60.1,106.1z"/>
		<path fill="#F3E62F" d="M-95,94.9c0.3,0.1,0.3,0.3,0.3,0.6c0,1,0,2.1,0,3.1C-95,98.5-95,98.2-95,98C-95,97-95,96-95,94.9z"/>
		<path fill="#F3E62F" d="M-94.7,90.2c0,1,0,2,0,3c0,0.3,0.1,0.6-0.3,0.7c0-1,0-2.1,0-3.1C-95,90.6-95,90.3-94.7,90.2z"/>
		<path fill="#F0E406" d="M-29.6,64.7c0.4,0,0.7,0.2,1.1-0.1c0.2-0.2,0.4,0,0.6,0.3c0.4,0.7,0.9,1.4,1.3,2c0.1,0.2,0.3,0.5,0.2,0.8
			c-0.1,0.4,0.2,0.9-0.3,1.1s-0.7-0.2-0.9-0.5c-0.3-0.3-0.7-0.4-0.9,0.1C-29.2,67.2-29.3,65.9-29.6,64.7z"/>
		<path fill="#F2E517" d="M-30.5,61.3c0.5,0.1,0.3,0.5,0.3,0.8C-30.4,61.9-30.4,61.6-30.5,61.3z"/>
		<path fill="#F0E406" d="M-28.6,68.7c0.2,0.1,0.2,0.3,0.2,0.5C-28.7,69-28.6,68.8-28.6,68.7z"/>
		<path fill="#DFDE53" d="M-23.8,43.1c0.2,0,0.3-0.1,0.4-0.4c0.4,0.3,0.5,0.7,0.6,1.3C-23.3,43.8-23.6,43.5-23.8,43.1z"/>
		<path fill="#F3E738" d="M-26.2,41.1c0.4,0.1,0.6,0.3,0.7,0.6C-26.2,42.1-26.1,41.5-26.2,41.1z"/>
		<path fill="#F3E738" d="M-28.8,45.4c-0.2-0.2-0.4-0.1-0.7-0.2c0.2-0.3,0.5-0.2,0.8-0.1C-28.4,45.2-28.6,45.3-28.8,45.4z"/>
		<path fill="#F3E738" d="M-30,45.2c-0.2,0.2-0.4,0.1-0.7,0.2C-30.5,44.9-30.3,45-30,45.2z"/>
		<path fill="#F3E738" d="M-26.5,40.8c0.2,0,0.3,0.1,0.3,0.3C-26.4,41-26.5,41-26.5,40.8z"/>
		<path fill="#F2E517" d="M-50.8,74.5c-0.1,0.3-0.3,0.3-0.6,0.3c-0.2,0-0.4-0.2-0.3-0.4c0.1-0.2,0.2-0.4,0.5-0.3
			C-51,74.1-50.7,74.2-50.8,74.5z"/>
		<path fill="#F2E517" d="M-34.5,63.6c-0.3,0-0.5-0.1-0.5-0.4c0-0.2,0.1-0.3,0.3-0.3c0.3,0,0.4,0.2,0.5,0.4
			C-34.1,63.5-34.3,63.6-34.5,63.6z"/>
		<path fill="#F2E517" d="M-44,70.1c0,0.2-0.1,0.2-0.2,0.2c-0.2,0-0.4-0.2-0.5-0.4c-0.1-0.2,0.1-0.2,0.2-0.2
			C-44.2,69.7-44.1,69.9-44,70.1z"/>
		<path fill="#F2E517" d="M-40.5,67.5c-0.1,0.2-0.2,0.2-0.4,0.2c-0.2,0-0.3,0-0.3-0.3c0-0.2,0.2-0.2,0.4-0.2
			C-40.7,67.2-40.5,67.3-40.5,67.5z"/>
		<path fill="#F2E517" d="M-38,66.4c0,0,0,0.1-0.1,0.1c0,0-0.1,0-0.1-0.1c0,0,0-0.1,0.1-0.1C-38.1,66.4-38.1,66.4-38,66.4z"/>
		<path fill="#F2E517" d="M-32.6,64c0,0.1,0,0.1,0,0.2c-0.1,0-0.1,0-0.2,0C-32.7,64.1-32.7,64.1-32.6,64z"/>
		<path fill="#F3E738" d="M-58.1,59.8c0,0.5,0.1,1.1-0.7,1.2C-58.8,60.5-58.4,60.1-58.1,59.8z"/>
		<path fill="#F3E738" d="M-59.1,61.5c0.4,0.2,0.4,0.4,0,0.6c-0.2,0.1-0.4,0.1-0.6,0.2C-59.6,62-59.3,61.8-59.1,61.5z"/>
		<path fill="#F3E738" d="M-59.7,62.6c0,0.2-0.1,0.3-0.3,0.3C-60.1,62.8-60,62.7-59.7,62.6z"/>
		<path fill="#F3E738" d="M-57.8,59.3c0,0.2-0.1,0.4-0.3,0.4C-58.1,59.4-58,59.3-57.8,59.3z"/>
		<path fill="#F3E738" d="M-58.8,61c0,0.2-0.1,0.3-0.3,0.3C-59.1,61.1-59,61-58.8,61z"/>
		<path fill="#161907" d="M-31.5,45.2c-2,1-4.1,1.6-6.2,2.1c-0.9,0.2-1.6,0.7-2.2,1.5c-1.7,2.2-3.2,4.5-3.5,7.4
			c0,0.1-0.1,0.1-0.2,0.2c-0.5-2.6-0.8-5.1,1.1-7.5c-1,0.4-1.9,1.1-2.7,2.2c-1.8,2.5-3,5.4-4.3,8.2c-0.7,1.5-1.2,3-2,4.4
			c0-0.1,0-0.3,0-0.4c0.2-0.2,0.1-0.4,0.1-0.6c0.4-1.4,0.8-2.7,1.2-4.1c0.2-0.3,0.3-0.6,0.3-0.9v-0.1c0.2-0.3,0.3-0.5,0.3-0.9v-0.1
			c0.2-0.3,0.3-0.5,0.3-0.9c0,0,0.1-0.1,0-0.1c0.8-1.7,1.4-3.5,2.3-5.1c0.4-0.7,0.9-1.4,1.4-2.1c1.4-1.7,3.3-2.1,5.3-2.3
			c2.7-0.2,5.5-0.5,8.2-0.8C-31.7,45.2-31.6,45.2-31.5,45.2z"/>
		<path fill="#F3E738" d="M-25.5,37.7c0.4,0.1,0.3,0.4,0.3,0.7C-25.6,38.3-25.5,38-25.5,37.7z"/>
		<path fill="#F3E738" d="M-25.1,39.1c0.2,0,0.3,0.2,0.3,0.4C-25.1,39.4-25.2,39.3-25.1,39.1z"/>
		<path fill="#F3E738" d="M-24.8,40.1c0.2,0,0.3,0.2,0.3,0.4C-24.7,40.4-24.8,40.3-24.8,40.1z"/>
		<path fill="#F0E406" d="M6.9,40.6c0,0.2,0.4,0.2,0.2,0.4c-0.2,0.1-0.3,0-0.4-0.2c-0.3-0.4-0.1-0.8,0.4-0.9
			C7.1,40.1,6.7,40.3,6.9,40.6z"/>
		<path fill="#F0E406" d="M8.9,40.2c-0.1,0.2-0.3,0.2-0.5,0.2C8.6,40.2,8.7,40.2,8.9,40.2z"/>
		<path fill="#F2E517" d="M-10.2,45.7c0.2-0.1,0.4-0.4,0.7-0.4c0.1,0.5-0.2,0.9-0.4,1.2c-0.3,0.4-0.7,0.6-1.1,0.1
			c0.1-0.2,0.2-0.3,0.1-0.5l0,0c0.1,0,0.1-0.1,0.2-0.1l0,0C-10.4,46.1-10.2,46-10.2,45.7z"/>
		<path fill="#F2E517" d="M3.2,39.9c-0.2,0-0.6,0-0.4-0.2c0.1-0.3,0.5-0.5,0.9-0.6c0.2,0,0.5,0,0.4,0.2C4,39.9,3.4,39.7,3.2,39.9z"
			/>
		<path fill="#F2E517" d="M5.6,38.3c-0.1,0.2-0.3,0.3-0.5,0.3c-0.3,0-0.4-0.3-0.4-0.5c0-0.3,0.2-0.2,0.3-0.1
			C5.2,38.1,5.5,38,5.6,38.3z"/>
		<path fill="#F2E517" d="M-12.5,48.4c0.3-0.4,0.7-0.8,1-1.2C-11.5,47.9-11.6,48.4-12.5,48.4z"/>
		<path fill="#F0E406" d="M-26.1,64.3c-0.1,0.3-0.1,0.6-0.4,0.6c-0.2,0-0.4-0.3-0.4-0.5c0-0.3,0.2-0.5,0.4-0.5
			C-26.3,63.9-26.2,64.1-26.1,64.3z"/>
		<path fill="#F0E406" d="M-22.2,62.1c-0.1,0.2-0.3,0.3-0.5,0.2c-0.1,0-0.3-0.1-0.2-0.3s0.2-0.2,0.4-0.2
			C-22.3,61.8-22.2,61.9-22.2,62.1z"/>
		<path fill="#F2E517" d="M-16.5,50c-0.1,0.4-0.1,0.8-0.3,1.1C-16.7,50.8-17.1,50.3-16.5,50z"/>
		<path fill="#F0E406" d="M-24.9,63.5c0,0,0,0.1-0.1,0.1c0,0-0.1,0-0.1-0.1c0,0,0-0.1,0.1-0.1C-25,63.4-24.9,63.4-24.9,63.5z"/>
		<path fill="#FAF5CC" d="M-5.9,65.4c-0.5-0.2-0.8-0.6-1.1-0.9c-0.6-1.2-0.3-2.3,0.7-3c0.9-0.6,2.2-0.3,2.8,0.5
			c0.3,0.4,0.4,0.7-0.1,1.1C-4.5,63.7-5.1,64.6-5.9,65.4z"/>
		<path fill="#F3E738" d="M-52.8,57.6c0,0.2-0.2,0.3-0.4,0.2c-0.3,0-0.4-0.2-0.4-0.5c0-0.2,0.2-0.2,0.3-0.2
			C-53,57.2-52.8,57.3-52.8,57.6z"/>
		<path fill="#F3E738" d="M-56.8,59.8c0.2,0,0.3,0,0.3,0.2c0,0.3-0.2,0.3-0.4,0.3c-0.1,0-0.3,0-0.3-0.2
			C-57.2,59.9-56.9,59.9-56.8,59.8z"/>
		<path fill="#F3E738" d="M-49.1,55.7c0,0.3-0.1,0.6-0.3,0.9C-49.4,56.2-49.6,55.8-49.1,55.7z"/>
		<path fill="#F3E738" d="M-49.5,56.7c0,0.3-0.1,0.6-0.3,0.9C-49.7,57.2-50,56.8-49.5,56.7z"/>
		<path fill="#F3E738" d="M-49.8,57.7c0,0.3-0.1,0.6-0.3,0.9C-50,58.2-50.3,57.8-49.8,57.7z"/>
		<path fill="#F3E738" d="M-54.9,59.2c-0.1,0.1-0.1,0.2-0.1,0.2c-0.1,0-0.2-0.1-0.2-0.2c0-0.1,0.1-0.1,0.1-0.1
			C-55,59.1-55,59.2-54.9,59.2z"/>
		<path fill="#D7D634" d="M-51.2,62.7c0,0.2,0,0.4-0.1,0.6C-51.4,63-51.5,62.8-51.2,62.7z"/>
		<path fill="#D1D023" d="M-10.2,45.7c0,0.3-0.2,0.3-0.5,0.3C-10.5,45.9-10.4,45.7-10.2,45.7z"/>
		<path fill="#D1D023" d="M-10.7,46c-0.1,0-0.1,0.1-0.2,0.1C-10.9,46.1-10.8,46-10.7,46z"/>
	</g>
</g>
</svg>
