<svg xmlns="http://www.w3.org/2000/svg" viewBox="-159.8 21.5 254.8 206.6"><path d="M-127.6 166.3c-.5 2.3-1.1 4.6-1.6 6.8-.3 1.4-.6 2.7-.9 4.1-.1.4 0 .5.4.4h56.1c2 0 3.9.3 5.5 1.5.6.4.9 0 1.4-.2 1.3-.7 2.7-1.3 4.2-1.4 5.7-.3 11.3-.1 17-.1h1.6c.2 0 .3 0 .3-.2.3-1.7.7-3.3 1.1-5l1.2-5.4c.1-.4.2-.4.5-.4H-22c.4 0 .6 0 .4.6-.7 2.8-1.3 5.7-1.9 8.5-.1.6-.3 1.2-.4 1.8-.1.3 0 .4.3.4H6.7c1.8 0 3.5.4 5 1.5.2.2.4.2.7.1 1.2-.7 2.5-1.1 3.9-1.4.5-.1 1.1-.1 1.6-.1h67.9c2.4 0 4.7.6 6.4 2.5 1 1.2 1.5 2.5 1.7 4 .2 2.2-.3 4.3-.8 6.4-.6 2.7-1.2 5.5-1.8 8.2-.4 2-.9 4-1.3 6-.3 1.5-.7 3-1.2 4.4-.4 1-1 2-1.7 2.8-.8 1-1.7 1.8-2.7 2.6-1.4 1-3 1.7-4.7 2.1-1.1.3-2.3.3-3.4.3-3 0-6 .1-9 0-2.2-.1-4.5 0-6.7-.1-.4 0-.6.2-.6.5-.7 3.4-1.5 6.8-2.2 10.3-.1.3-.3.4-.5.4H38.7c-.5 0-.7 0-.6-.7.6-2.6 1.1-5.2 1.7-7.8.2-.8.3-1.6.5-2.4.1-.3 0-.4-.3-.4-2.7 0-5.4-.1-8.1 0-1.8.1-3.6.1-5.4.1-2.8 0-5.5-.1-8.3 0-2.5.1-5.1.1-7.6.1-1.6 0-3.2-.2-4.8-.9-.4-.2-.7-.3-1-.6-.4-.3-.6-.2-1-.1-1.3.6-2.7 1-4.2 1.1s-2.9.1-4.4.1h-125.8c-.8 0-.8 0-.6-.7.6-2.8 1.3-5.7 1.9-8.5.7-3.3 1.4-6.5 2.2-9.8.5-2 .8-4 1.3-5.9.2-.7 0-.9-.7-.9h-5.8c-.5 0-.6.2-.7.5-.7 3-1.3 5.9-2 8.9-.4 1.7-.8 3.5-1.2 5.2-.6 2.5-1.1 5-1.7 7.5-.2 1.1-.5 2.2-.7 3.3-.1.4-.2.5-.7.5h-18.5c-.6 0-.6-.1-.5-.7.7-2.9 1.3-5.7 1.9-8.6.4-1.9.9-3.7 1.3-5.6.5-2.4 1.1-4.9 1.6-7.3.6-2.9 1.3-5.7 1.9-8.6l2.1-9.3c.8-3.3 1.5-6.7 2.2-10 .1-.5.3-.6.8-.6h18.8c-.2.2-.1.2.1.2zm21.3 22h25.2c1.5 0 2.8.6 3.1 2.4.1.7-.1 1.3-.2 1.9 0 .4-.3.6-.7.6h-20.8c-1.6 0-3.2.3-4.6 1.1-2 1.1-3.5 2.7-4.3 4.9-.6 1.7-.9 3.5-1.3 5.3-.4 1.6-.9 3.2-.7 4.8.1 1.1.6 2.1 1.3 3 1.3 1.5 3 1.8 4.9 1.8H-74c.5 0 .7-.1.7-.6 0-.4.2-.8.3-1.2l1.8-8.1c.5-2.3 1-4.5 1.5-6.8.6-2.6 1.1-5.1 1.7-7.7.3-1.5.8-3 .7-4.7-.1-1.2-.5-2.2-1.3-3.1-1.2-1.4-2.9-1.8-4.6-1.9h-30.9c-.4 0-.5.1-.6.5-.5 2.7-1.1 5.2-1.6 7.8zm56.6 25.8h14.3c.3 0 .6 0 .7-.4l1.5-6.9c.7-3.1 1.4-6.2 2.1-9.2s1.3-6 2-9c.6-2.9 1.3-5.8 1.9-8.8.7-3.5 1.5-6.9 2.3-10.4.1-.6-.1-.5-.4-.5h-8.6c-.5 0-.6.2-.6.6-.4 1.6-.7 3.3-1.1 4.9-.4 1.7-.7 3.5-1.1 5.2-.1.4-.2.6-.7.6h-19.2c-.9 0-1.9.2-2.8.4-1.4.4-2.6 1.3-3.7 2.3-1.3 1.3-2.1 2.8-2.5 4.5-.4 1.6-.7 3.2-1.1 4.8-.5 2-.9 4.1-1.4 6.1-.6 2.6-1.1 5.1-1.7 7.7-.3 1.6-.5 3.1.1 4.6.5 1.3 1.4 2.2 2.8 2.8 1.2.5 2.4.6 3.7.6 4.5.1 9 .1 13.5.1zm120.2-33.7H56c-.2 0-.4.1-.4.3-.1.7-.3 1.4-.5 2.1-.5 2.5-1.1 5.1-1.6 7.6-.5 2.4-1.1 4.8-1.7 7.3-.7 3.1-1.3 6.1-2 9.2-.5 2.4-1 4.7-1.6 7.1-.8 3.7-1.7 7.4-2.5 11.1-.1.3-.2.5.3.5h8.8c.3 0 .4-.1.5-.4.1-.6.2-1.2.4-1.8.6-2.8 1.3-5.6 1.9-8.4.1-.6.3-.6.8-.6h18.2c1.1 0 2.2-.1 3.2-.4 3-.9 5-2.7 6.1-5.6.7-1.8 1-3.8 1.4-5.7.5-2.3 1-4.5 1.5-6.8.5-2.4 1.1-4.7 1.6-7.1.3-1.3.6-2.7.3-4.1-.4-1.5-1.1-2.6-2.5-3.4-1.2-.7-2.4-.8-3.6-.8-4.7-.1-9.4-.1-14.1-.1zm-84.1 34h11.7c.7 0 1.4-.1 2.1-.2 1.3-.3 2.5-.8 3.6-1.6 1.5-1.1 2.6-2.5 3.2-4.3.5-1.4.7-2.9 1-4.4.5-2.1.9-4.1 1.4-6.2.5-2.3 1.1-4.7 1.5-7 .4-1.7 1-3.5.8-5.3-.1-1.2-.5-2.2-1.3-3.1-1.3-1.5-3-1.9-4.8-1.9h-23.7c-.7 0-1.4.1-2.1.2-1.6.3-2.9 1.1-4.1 2.1-1.1 1-1.9 2.1-2.4 3.4-.7 1.8-.9 3.7-1.4 5.6-.5 2-.9 4.1-1.4 6.1-.6 2.6-1.2 5.1-1.7 7.7-.3 1.3-.7 2.6-.4 4.1.3 1.7 1.1 3 2.6 3.9 1.1.6 2.3.7 3.5.8 4 .1 8 .1 11.9.1zm48-34H22.6c-.8 0-1.6 0-2.3.2-1.8.5-3.4 1.4-4.7 2.8-1 1.1-1.7 2.3-2.1 3.7-.4 1.6-.7 3.2-1.1 4.8-.4 1.7-.7 3.3-1.1 5-.5 2.3-1 4.7-1.5 7-.4 1.8-1 3.6-.8 5.5s1.5 3.7 3.3 4.4c1 .4 1.9.4 2.9.5 2.5.1 5 0 7.5 0 5.7-.1 11.4.2 17.1-.1 2.5-.1 4.4-1.3 6-3.1 1.2-1.4 1.9-3 2.2-4.8.6-3.1 1.4-6.2 2.1-9.2.5-2.4 1.1-4.8 1.6-7.2.3-1.5.8-3 .6-4.7-.2-1.9-1.5-3.6-3.2-4.3-1-.4-2-.5-3-.5H34.4zm-157.8 33.7h9.3c.4 0 .3-.2.4-.4.3-1.3.6-2.6.9-4 .5-2.3 1-4.7 1.5-7l1.5-6.6c.6-2.6 1.2-5.2 1.7-7.7.3-1.5.5-3-.1-4.5-.6-1.4-1.5-2.4-2.9-3-1.2-.5-2.4-.5-3.6-.5h-18.2c-.3 0-.6 0-.5-.4.4-1.9.9-3.8 1.3-5.7.4-1.6.7-3.3 1.1-4.9 0-.2.2-.5-.3-.5h-8.9c-.3 0-.4.1-.4.4-.1.6-.2 1.2-.4 1.9-.8 3.3-1.5 6.6-2.2 9.9-.9 3.9-1.7 7.7-2.6 11.6-.7 3.3-1.5 6.7-2.2 10-.8 3.7-1.7 7.3-2.5 11-.1.4 0 .4.3.4h8.8c.2 0 .4 0 .4-.3.2-1.3.6-2.7.9-4 .5-2.1 1-4.1 1.4-6.2l1.8-8.1c.5-2.2 1-4.3 1.4-6.5.1-.3.2-.5.7-.5h12.9c.4 0 .8.1 1.2.2 1.6.5 2.3 1.9 1.9 3.7-.2 1-.5 1.9-.7 2.9-.5 2.4-1 4.8-1.6 7.2-.4 1.7-.8 3.3-1.1 5-.3 2.2-.8 4.4-1.2 6.6z"/><path fill="#71C8F1" d="M-106.3 188.3c.6-2.5 1.1-5 1.7-7.5.1-.4.2-.5.6-.5h30.9c1.7 0 3.4.4 4.6 1.9.7.9 1.2 1.9 1.3 3.1.1 1.6-.3 3.1-.7 4.7-.5 2.6-1.1 5.1-1.7 7.7-.5 2.3-1 4.5-1.5 6.8l-1.8 8.1-.3 1.2c0 .5-.3.6-.7.6h-30.4c-1.8 0-3.6-.4-4.9-1.8-.7-.8-1.1-1.8-1.3-3-.2-1.7.3-3.3.7-4.8.4-1.8.7-3.6 1.3-5.3.8-2.2 2.3-3.8 4.3-4.9 1.4-.8 3-1.1 4.6-1.1h20.8c.5 0 .7-.2.7-.6.1-.6.3-1.2.2-1.9-.3-1.7-1.6-2.4-3.1-2.4h-24.5c-.3-.3-.6-.3-.8-.3zm16.5 17.7h8.1c.3 0 .5 0 .6-.4.2-1.3.5-2.5.8-3.7.2-.7-.1-.6-.5-.6h-14.9c-.6 0-1.1 0-1.7.1-1.1.2-2.3 1.5-2.4 2.6-.1.9.7 2.1 1.9 2.1 2.7-.2 5.4-.1 8.1-.1zm40.1 8.1h-13.5c-1.3 0-2.5-.1-3.7-.6-1.3-.5-2.2-1.5-2.8-2.8-.6-1.5-.4-3.1-.1-4.6.6-2.6 1.1-5.1 1.7-7.7.5-2 .9-4.1 1.4-6.1.4-1.6.7-3.2 1.1-4.8.4-1.7 1.2-3.3 2.5-4.5 1.1-1 2.2-1.9 3.7-2.3.9-.3 1.8-.4 2.8-.4h19.2c.5 0 .6-.2.7-.6.4-1.7.7-3.5 1.1-5.2.4-1.6.7-3.3 1.1-4.9.1-.4.2-.6.6-.6h8.6c.3 0 .6-.1.4.5-.8 3.5-1.6 6.9-2.3 10.4-.6 2.9-1.3 5.8-1.9 8.8-.7 3-1.3 6-2 9-.7 3.1-1.4 6.2-2.1 9.2l-1.5 6.9c-.1.4-.4.4-.7.4-4.8-.1-9.6-.1-14.3-.1zm-.2-8.1h6.8c.4 0 .5-.1.6-.5.6-3 1.3-6.1 2-9.1.6-2.5 1.1-5.1 1.7-7.6.1-.6-.1-.5-.5-.5h-12.1c-.5 0-1.1 0-1.6.1-2 .3-3.5 1.9-3.9 3.7s-.8 3.6-1.2 5.5c-.4 1.8-.9 3.5-1.1 5.3-.2 1.7 1 3.1 2.8 3.1h6.5zm120.4-25.6h14.2c1.2 0 2.5.1 3.6.8 1.4.8 2.1 2 2.5 3.4s0 2.7-.3 4.1c-.5 2.4-1 4.7-1.6 7.1-.5 2.3-1 4.5-1.5 6.8-.4 1.9-.7 3.9-1.4 5.7-1.1 2.9-3.2 4.7-6.1 5.6-1 .3-2.1.4-3.2.4H58.5c-.5 0-.7 0-.8.6-.6 2.8-1.3 5.6-1.9 8.4-.1.6-.3 1.2-.4 1.8 0 .3-.2.4-.5.4h-8.8c-.4 0-.4-.2-.3-.5.8-3.7 1.7-7.4 2.5-11.1.5-2.4 1-4.7 1.6-7.1.7-3.1 1.3-6.1 2-9.2.5-2.4 1.1-4.8 1.7-7.3s1.1-5 1.6-7.6c.2-.7.3-1.4.5-2.1.1-.3.2-.3.4-.3h.4c4.6.1 9.3.1 14 .1zm-11 25.9H61c4.2-.1 8.5.2 12.7-.1 1.8-.1 3.6-1.8 4-3.7.8-3.4 1.5-6.9 2.3-10.3.2-1.1-.2-2.5-1.1-3.1-.6-.4-1.3-.5-2-.5H64c-.3 0-.5-.1-.6.4-.6 2.7-1.1 5.3-1.7 8-.8 3-1.5 6.1-2.2 9.3zm-73.1 8.1h-11.7c-1.2 0-2.4-.1-3.5-.8-1.5-.9-2.3-2.2-2.6-3.9-.2-1.4.2-2.7.4-4.1.5-2.6 1.1-5.1 1.7-7.7.5-2 .9-4.1 1.4-6.1.5-1.9.7-3.8 1.4-5.6.5-1.3 1.3-2.5 2.4-3.4 1.2-1.1 2.5-1.8 4.1-2.1.7-.2 1.4-.2 2.1-.2H5.8c1.8 0 3.5.4 4.8 1.9.7.9 1.2 1.9 1.3 3.1.2 1.8-.4 3.5-.8 5.3-.5 2.4-1 4.7-1.5 7-.5 2.1-.9 4.1-1.4 6.2-.3 1.5-.5 2.9-1 4.4-.6 1.8-1.7 3.2-3.2 4.3-1.1.8-2.2 1.4-3.6 1.6-.7.1-1.4.2-2.1.2-4.1-.1-8-.1-11.9-.1zm2.1-8.1c1.8-.1 4 .1 6.1-.1 1.3-.1 2.2-.8 3-1.7.9-1 1.1-2.3 1.3-3.5.6-2.9 1.3-5.8 1.9-8.7.3-1.4.1-2.5-1.3-3.4-.5-.3-1.2-.4-1.8-.4h-6.3c-1.9 0-3.9-.1-5.8.1s-3.6 1.8-4 3.6c-.8 3.4-1.5 6.8-2.3 10.2-.2.9-.2 1.7.3 2.5.7 1.1 1.7 1.5 2.9 1.5 1.9-.1 3.7-.1 6-.1zm45.9-25.9h11.7c1 0 2 .1 3 .5 1.7.7 3 2.4 3.2 4.3.2 1.6-.3 3.1-.6 4.7-.5 2.4-1 4.8-1.6 7.2-.7 3.1-1.4 6.1-2.1 9.2-.4 1.8-1 3.5-2.2 4.8-1.6 1.8-3.5 3-6 3.1-5.7.3-11.4.1-17.1.1h-7.5c-1 0-2-.1-2.9-.5-1.8-.7-3.1-2.5-3.3-4.4-.2-1.9.5-3.7.8-5.5.5-2.3 1-4.7 1.5-7 .4-1.7.7-3.3 1.1-5 .4-1.6.7-3.2 1.1-4.8.4-1.4 1.1-2.7 2.1-3.7 1.3-1.4 2.8-2.3 4.7-2.8.8-.2 1.5-.2 2.3-.2h11.8zm-2.2 8.1c-1.8.1-4-.2-6.2.1-1.7.3-2.9 1.3-3.6 2.9-.4.9-.5 1.9-.7 2.9-.5 2.4-1.1 4.8-1.6 7.2-.2.7-.4 1.4-.3 2.2.4 2.1 1.8 2.5 3.3 2.5h11.2c.5 0 1-.1 1.5-.2 2.1-.6 3.2-2 3.6-4 .7-3.5 1.7-6.9 2.2-10.5.1-.8-.1-1.4-.6-2-.7-.9-1.6-1-2.6-1-2-.1-3.9-.1-6.2-.1zm-155.6 25.6c.5-2.3 1-4.5 1.4-6.6.4-1.7.8-3.3 1.1-5 .5-2.4 1-4.8 1.6-7.2.2-1 .4-1.9.7-2.9.4-1.8-.3-3.2-1.9-3.7-.4-.1-.8-.2-1.2-.2h-12.9c-.5 0-.6.2-.7.5-.5 2.2-1 4.3-1.4 6.5l-1.8 8.1c-.5 2.1-1 4.1-1.4 6.2-.3 1.3-.6 2.7-.9 4-.1.3-.2.3-.4.3h-8.8c-.3 0-.4 0-.3-.4.8-3.7 1.7-7.3 2.5-11 .7-3.3 1.5-6.7 2.2-10 .8-3.9 1.7-7.7 2.6-11.6.7-3.3 1.4-6.6 2.2-9.9.1-.6.3-1.2.4-1.9 0-.3.2-.4.4-.4h8.9c.4 0 .3.3.3.5-.4 1.6-.7 3.3-1.1 4.9-.4 1.9-.9 3.8-1.3 5.7-.1.4.2.4.5.4h18.2c1.2 0 2.4 0 3.6.5 1.4.6 2.4 1.5 2.9 3 .6 1.5.4 3 .1 4.5-.6 2.6-1.1 5.2-1.7 7.7l-1.5 6.6c-.5 2.3-1 4.7-1.5 7-.3 1.3-.6 2.7-.9 4 0 .2 0 .4-.4.4h-9.5z"/><path d="M-89.8 206h-8.1c-1.2 0-2-1.1-1.9-2.1.1-1.1 1.3-2.4 2.4-2.6.6-.1 1.1-.1 1.7-.1h14.9c.4 0 .7-.1.5.6-.4 1.2-.6 2.5-.8 3.7-.1.4-.3.4-.6.4-2.7.1-5.4.1-8.1.1zm50.5-17.7h-12.1c-.5 0-1.1 0-1.6.1-2 .3-3.5 1.9-3.9 3.7s-.8 3.6-1.2 5.5c-.4 1.8-.9 3.5-1.1 5.3-.2 1.7 1 3.1 2.8 3.1H-43c.4 0 .5-.1.6-.5.6-3 1.3-6.1 2-9.1.6-2.5 1.1-5.1 1.7-7.6 0-.7-.3-.5-.6-.5zm-10.1 12.8c-.1.6-.3 1.2-.4 1.8 0 .3-.2.3-.4.3h-5.6c-.6 0-.8-.3-.6-1l1.8-8.4c.1-.4.2-.8.2-1.2.3-1.1.7-1.5 1.9-1.5h5.3c-.7 3.3-1.4 6.6-2.2 10zM78.9 189c-.6-.4-1.3-.5-2-.5H64c-.3 0-.5-.1-.6.4-.6 2.7-1.1 5.3-1.7 8-.7 3.2-1.4 6.3-2.2 9.5H61c4.2-.1 8.5.2 12.7-.1 1.8-.1 3.6-1.8 4-3.7.8-3.4 1.5-6.9 2.3-10.3.3-1.2-.1-2.7-1.1-3.3zm-6.6 3.3c-.5 2.3-1.1 4.5-1.5 6.8-.2 1.1-.4 2.3-.8 3.4-.3.9-.6 1.2-1.5 1.2h-2.4c-.9 0-1.8-.1-2.7-.1-.4 0-.4-.2-.3-.5.9-3.7 1.6-7.4 2.5-11.1.1-.6.3-.6.8-.6h4.5c.3 0 .6 0 .9.1.4.1.5.5.5.8zm-72.7-3.4c-.5-.3-1.2-.4-1.8-.4h-6.3c-1.9 0-3.9-.1-5.8.1s-3.6 1.8-4 3.6c-.8 3.4-1.5 6.8-2.3 10.2-.2.9-.2 1.7.3 2.5.7 1.1 1.7 1.5 2.9 1.5h6c1.8-.1 4 .1 6.1-.1 1.3-.1 2.2-.8 3-1.7.9-1 1.1-2.3 1.3-3.5.6-2.9 1.3-5.8 1.9-8.7.3-1.5.1-2.6-1.3-3.5zm-6.4 3.5c-.5 2.1-.9 4.2-1.4 6.3-.3 1.2-.5 2.5-.8 3.7-.2 1-.5 1.3-1.5 1.3h-3.3s-2.2-.2-3.4-.1c-.6 0-.8-.3-.8-.7v-.4c.2-.9.4-1.9.6-2.8.5-2.2 1-4.4 1.4-6.5.1-.6.3-1 .4-1.2.2-.3.4-.4.8-.5.2-.1.5-.1.9-.1h6s.4.1.6.1c.4.1.5.3.5.6v.3zm47.7-2.9c-.7-.9-1.6-1-2.6-1h-6.1c-1.8.1-4-.2-6.2.1-1.7.3-2.9 1.3-3.6 2.9-.4.9-.5 1.9-.7 2.9-.5 2.4-1.1 4.8-1.6 7.2-.2.7-.4 1.4-.3 2.2.4 2.1 1.8 2.5 3.3 2.5h11.2c.5 0 1-.1 1.5-.2 2.1-.6 3.2-2 3.6-4 .7-3.5 1.7-6.9 2.2-10.5 0-.8-.2-1.5-.7-2.1zm-7.1 2.7c-.1.4-.2.8-.2 1.2-.6 2.7-1.2 5.4-1.8 8-.1.2-.1.5-.1.7-.2 1-.7 1.3-1.5 1.3-1.1-.1-2.2 0-3.3 0h-3.4c-.5 0-.7-.2-.7-.7.1-1.1.4-2 .6-3.1.5-2.3 1-4.7 1.6-7 .2-1 .5-1.3 1.6-1.3h6.1c.7 0 1.2.4 1.1.9z"/><path fill="#080B05" d="M-9.9 103.8c-.3.4-.1.8 0 1.2 1.3 3.2 2.7 6.3 3.6 9.7.3 1.1.4 2.3.4 3.5.1 2.2.1 4.3.2 6.5 0 .3.1.6.3.9 1.3 2.5 1 5 0 7.4-.8 1.7-2.4 2.4-4.2 2.6-3.7.3-7.4.2-11.1.1-1.1 0-2.2-.1-3.3-.4-.4-.1-.8-.1-1.1-.3-.8-.5-1.3-.3-1.9.3-1.8 1.5-3.6 3-5.5 4.4-.4.3-.7.8-.9 1.3-1.6 3.3-4.4 4.7-7.8 5.2-2.1.3-3.9-.4-5.6-1.6-1.2-.9-2.3-2-3.2-3.2-2.4-3.1-4.6-6.4-6-10.1-.4-1-.6-2.1-.6-3.2 0-1.7.8-3 2.3-3.9.3-.2.7-.4 1-.7h-.7c-2.5 0-4.9 0-7.4-.3-.6-.1-.8 0-.7.6.1.2.1.4.1.7.3 1.8 0 3.5-1 5-.9 1.3-1.8 2.7-2.5 4.1-.2.4-.3.9-.3 1.3.1 1.6 0 3.2-.4 4.8-.7 2.6-2.1 3.9-4.8 4.2-2.6.3-5.2-.1-7.7-.7-3-.7-5.9-1.4-8.8-2.4-1-.3-2-.7-2.9-1.3-2.6-1.6-3.4-3.7-2.3-6.6.4-1.2.9-2.3 1.4-3.5-.9 0-1.8.1-2.7-.1-7.6-1.4-14.2-8.8-14.8-16.4-.1-1 .4-1.8 1.1-2.5 1.9-1.8 3.7-3.7 5.6-5.5.4-.4.6-.8.8-1.2.5-1.4 1.3-2.8 1.5-4.3s-.3-3-.5-4.5c-.3-4-.4-7.9.3-11.9-1 .1-1.9.2-2.9.1-2.2-.4-3.8-1.6-4.7-3.6-.2-.3-.3-.7-.4-1.1-.5-1.6-1-3.1-2-4.6-1.2-1.6-1-3.6-.3-5.4 1-2.4 2.7-4.3 4.7-5.9 2.1-1.6 4.2-3.1 6.9-3.7.4-.1.8-.1 1.4-.2-.5 1.2-.9 2.4-1.3 3.5-.1.2-.3.5 0 .7 1.6 1.5 1.7 3.5 1.5 5.5-.1 1.2-.4 2.4-.7 3.7-.9-.9-1.5-1.9-2.3-3-.2 1.2-.2 2.2-.5 3.2-.3 1.1-.8 2-1.5 2.7.2.3.3.1.4.1 3-1.2 5.3-3.3 6.9-6.1 3.5-6.3 8.6-11 14.7-14.8 5.3-3.3 11.3-5 17.4-6.3 1.8-.4 3.7-.7 5.5-1 .4-.1.6-.3.9-.5 2.1-2.1 4.2-4.3 6.7-6.1 1.4-1 2.9-1.6 4.6-1.7.5 0 .8-.2 1.1-.6 2.2-2.9 4.5-5.7 7.4-8 3.5-2.7 7.5-4.2 11.6-5.7 3.7-1.3 7.4-2.2 11.3-2.3 6.2-.2 11.7 1.8 16.8 5.4 3 2.1 5.7 4.7 8.5 7 1.9 1.6 3.8 3.1 5.9 4.4 4.2 2.5 6.9 6.1 9 10.4.3.6.5.8 1.2.5 1.8-.8 3.2-1.9 4.3-3.5.7-1 1.4-1.9 2.1-2.9 1.2-1.7 2.9-2 4.8-1.6 3.5.8 5.4 3.1 6.5 6.4 1.5 4.4 2.5 8.9 3 13.5.4 3.7.6 7.3.3 11-.6 7.2-2.6 13.9-7.4 19.5-3.7 4.3-8.5 6.7-14.1 7.5-3.8.6-7.7.5-11.5-.1-.4-.1-.6.1-.7.5-.2.8-.5 1.5-.7 2.3-1.2 5.3-7.8 9.8-13.6 9-2-.3-3.7-1.2-5.3-2.5-1.9-1.4-3.6-3.2-5.4-4.9zm-22.6-40v-.2c.1-.8.2-1.6.2-2.4.3-1.5.5-2.9.9-4.4.4 1.3.1 2.6.4 3.8.1 2.9.5 5.7.9 8.5.5 3.3 1.3 6.6 1.6 10 .6 5.8-.1 11.3-2.2 16.7-.2.4-.4.6-.8.6-1.8.1-3.6.4-5.3 1-3.8 1.2-7.2 3.1-10.6 5-2 1.1-3.9 2.3-6.1 2.8-2.9.7-5.7.2-8.4-.9-.1 0-.1-.1-.2-.1-2.6-1.6-4.7-3.8-6.7-6-.2-.3-.3-.5-.3-.8.2-1.1.3-2.2.5-3.4.2-.5.3-1.1.5-1.5.7-1.1.4-2.1-.1-3.2-1.4-3.1-3.6-5.6-5.6-8.3-.1-.2-.1-.4-.3-.5-.1-.2-.2-.4-.3-.5v-.1c0-.2-.1-.3-.3-.4 0-.1 0-.2-.1-.2-.1-.2-.1-.3-.3-.4 0-.1 0-.2-.1-.2-.1-.2-.1-.5-.3-.7-.5-2.2.1-4.2 1-6.2 1.5-3.1 3.1-6.2 5-9 3-3.9 6.3-7.5 9.6-11.4-2.6.4-5 .8-7.4 1.4-11.9 3.1-20.8 9.9-26.3 21-1.8 3.6-3.3 7.4-3.7 11.4-.5 4.8-.2 9.6.8 14.3.6 2.8 1.4 5.6 2.6 8.2 0 .1 0 .3.1.4 1.7 4.3 3.8 8.4 6.4 12.2.9 1.3 1.1 2.5.8 3.9-.1.4-.1.8-.2 1.2 0 .1 0 .2-.1.4s0 .3.1.5c-.3 0-.2.2-.3.4-.5 2.3-1.1 4.5-1.9 6.7-.5 1.4-.2 2.6 1.1 3.5 1.1.8 2.4 1.3 3.7 1.6 1.7.6 3.4 1 5.2 1.4 2.2.5 4.3.9 6.6.7 1.7-.1 2.4-.6 2.8-2.3.3-1.2.4-2.4.2-3.5-.1-.5 0-.9.3-1.3.8-1.7 1.8-3.2 2.9-4.8.9-1.3 1.3-2.8 1.3-4.4v-9.6c0-.3-.1-.6.1-.9.4 1.8.8 3.6 1.1 5.4-.1.7.5.7.9.8 5.7.9 11.3.8 16.9-.2.7-.1.8-.4 1-1 .4-1.6 1-3.1 1.8-4.6-.3 3.4-.6 6.7 0 10.1-.4-.4-.8-.9-1.1-1.4s-.5-.4-1-.2c-1.9 1.3-3.9 2.6-6 3.7-1.4.7-1.8 1.6-1.5 3.2.4 1.8 1.2 3.5 2.2 5 1.3 2.3 2.6 4.4 4.5 6.2.2.2.5.4.7.6 1.8 1.4 3.7 1.6 5.7.5 1-.5 1.7-1.4 2.3-2.3.7-1.1 1.5-2.1 2.6-2.9 2.7-2 5.3-4.2 8-6.2 1-.8 1.9-1.6 2.7-2.7 3.8-5.2 6.8-10.7 8.6-17 .8-2.9 1.8-5.7 2.2-8.7.1-.5.3-1.1-.5-1.4-2.8-1.1-5-3-6.9-5.2-.1-.1-.4-.2-.2-.5.2 0 .3.1.4.2 2.4 1.6 4.9 3.1 7.6 3.9 2.1.6 3.7 1.8 5.3 3.3 1.7 1.6 3.5 3.3 5.4 4.6 2.1 1.4 4.4 1.9 6.9 1.1 3.2-1 5.6-3 6.6-6.3.2-.7.4-1.3.6-2 .5-1.6.5-1.6-1.1-2-.4-.1-.6 0-.7.4-.3.9-.5 1.9-.7 2.8-.2 1.3-.9 2.2-2 2.9-1.2.7-2.4 1-3.8.9-1.2-.1-2.4-.4-3.6-.8 1.3 2.4 3.6 1.8 5.7 2-.6.4-1.3.5-1.8.8-.9.1-1.7 0-2.5-.2-2-.6-3-2.4-2.7-4.9.2-1.3.4-2.7.9-4 .5-1.7.8-3.5.5-5.3-.1-.5-.1-1.1-.2-1.7 1.8 1.1 3.4 2.2 5.3 2.7 1.5.7 3.1 1.1 4.6 1.5 4.6 1.4 9.3 2.4 14.2 2.1 5.8-.3 10.8-2.4 14.6-6.9 3.4-4 5.3-8.6 6.3-13.7.8-4 .8-8 .5-12-.4-5.3-1.3-10.4-3.1-15.4-.4-1.2-1-2.4-2.2-3.2-1.4-1.3-2.6-1.2-3.9.2-.8.9-1.6 1.9-2.4 2.9-1.3 1.6-2.8 2.9-4.9 3.5-.6.2-1.1.4-1.7.7-1.5.7-2 1.8-1.8 3.4.4 2.3.7 4.7.5 7-.2 2.8-.9 5.4-1.6 8.1-.3 1.1-.7 2.1-1.4 3.2.3-1.6.5-2.9.8-4.3.5-2.7.8-5.5.3-8.3-.2-1.2-.4-1.4-1.6-1-1.6.6-2.7 1.7-3.4 3.2-.7 1.7-1.1 3.5-1.7 5.2-.2.5-.3 1-.8 1.6.5-2.1.5-4 .8-5.9.3-2.1 1-3.8 2.9-4.9v-.2c-2.6.4-4.9 1.1-6.2 3.7-.4.7-.7 1.4-1.1 2.1-.2.4-.4.9-.9 1.3.5-1.4.9-2.6 1.4-3.9 1.2-3.5 5.3-5.5 8.9-4.2.4.4.9.4 1.3.2s0-.6 0-1-.1-.8-.2-1.1c0-.3-.2-.4-.5-.5-1.4-.1-2.8-.3-4.3 0-.8 0-1.6.2-2.5 0 .1 0 .1 0 .2-.1.4 0 .7-.2 1-.4.6-.2 1.1-.3 1.7-.5.3-.1.8 0 .9-.5s0-1.1-.4-1.5c-.5-.4-1-.6-1.6-.4-.8.2-1.1.8-1.1 1.6-.6-1-.2-2 .2-3.1-.6.2-1.2.2-1.8.2-.2 0-.5.1-.5-.3.3 0 .6-.1.9-.2 1.5-.4 2.8-1.2 4.3-1.7 1.4-.2 2.6.5 4.1.9-.8-1.6-1.6-3.1-2.5-4.5-1.3-2-2.7-3.9-4.9-5-.6-.3-1.1-.6-1.7-.9-.1-.3-.3-.3-.5-.4-1.3-.4-2.7-.5-4.2-.5.9-.5 1.7-.5 2.5-.7-1.1-.9-2.1-1.7-3.2-2.5-2.7-2.2-5.2-4.7-8.2-6.7-.2-.2-.4-.4-.8-.4-.9-.9-2-1.4-3.1-1.9-.2-.2-.4-.3-.7-.3-.1-.2-.3-.2-.5-.1-.1-.1-.2-.1-.3-.2-.2-.3-.5-.1-.7-.3 0 0-.1-.1-.1 0-.2-.3-.6-.1-.9-.2 0-.1-.1-.2-.2-.2-.6-.3-1.3-.4-2-.5-1.1-.2-2.2-.2-3.3-.3-1.6-.2-3.1-.1-4.6.4-.3-.2-.6-.1-.9-.1-3.5.6-6.8 1.8-10.1 3.1-4.9 1.8-9.2 4.5-12.3 8.8-.4.5-.8 1-1.3 1.7 3.1-.2 6-.3 8.9-.5.4 0 .9-.2 1.3.1h-.4c-3.2.8-6.5 1.4-9.8 1.9-1.5.2-3 .3-4.4.8-.1 0-.2 0-.3.1-1.7.6-3 1.7-4.2 3-4.8 4.7-8.9 10.1-13.5 15-3.7 3.9-6.4 8.3-8.6 13.2-1.1 2.4-1 4.5.6 6.6.6.7 1.1 1.5 1.7 2.2 1.4 2 3 3.8 3.8 6.3 1.4-2 2.7-3.9 4.2-5.6 1.4-1.7 2.8-3.4 4.3-5v.3c-.2.1-.4.3-.3.5-.3.3-.5.7-.7 1.1-.2.1-.3.3-.3.5-.3.3-.5.7-.7 1.1 0 .1-.1.1-.1.2-.3.5-.6.9-.9 1.5-.2.1-.3.3-.3.5-.2.2-.3.4-.3.6-.1.1-.2.3-.3.4-.4.6-.8 1.3-1.1 2-1.3 2.3-2.7 4.7-3.5 7.3-.6 2-.6 3.8 1.2 5.2.5.3.8.8 1.2 1.2 3.4 3.1 7.9 3.7 12 1.5 2.3-1.2 4.5-2.5 6.8-3.7 3.4-1.8 6.9-3.3 10.7-3.7.5 0 .7-.4.9-.8 1.5-3.1 2-6.4 2-9.8 0-5.6-1.6-11-1.8-16.6 0-.5.1-1 0-1.5-.1-.1-.2-.6-.2-1.2zm-60.4 52.1c0-.1-.1-.1-.1-.2v-.1c-1.8-3.7-3.5-7.5-4.7-11.6-.6 1.1-.7 2.2-1.4 3.1l-5.1 5.1c-.5.5-.6 1-.6 1.7.3 3 1.7 5.4 3.8 7.4 2 2 4.3 3.7 7 4.5 3.1.9 4.3-.8 4.9-3.3.1-.2 0-.4-.1-.5-1.2-1.8-2.3-3.7-3.4-5.6-.1-.1-.1-.3-.3-.5.1 0 .1 0 0 0zm69.1 15.7c.5.3 1 .4 1.4.5 3.9.5 7.8.4 11.7.3.8 0 1.6-.3 2-1.1.6-1.4 1-2.9.4-4.3-.7-1.4-.6-2.9-.7-4.4-.1-1.3-.1-2.6-.1-3.9 0-2-.3-4-1.1-5.9-.6-1.4-1.1-2.9-1.7-4.5-2.5 8.6-5.6 16.8-11.9 23.3zm-73.1-56.3c-.4.3-.6.4-.8.6-1.2.9-2.6 1.6-4.1 1.9-1 .2-1.6 0-2.2-.9-.4-.7-.7-1.4-1.1-2-.2-.3 0-.5.2-.7 1.3-1.2 1.8-2.7 1.9-4.4.1-1.7 0-3.4.7-5 .3-.7.5-1.3.9-2.2-.4.3-.7.4-.9.6-2.2 1.6-4.3 3.5-5.4 6.1-.6 1.6-.7 3.1.4 4.5.5.7.8 1.4 1 2.2.3 1 .6 1.9 1.1 2.8.5 1 1.3 1.5 2.4 1.6 1.5.2 2.8-.2 4.2-.7.2-.1.3-.2.4-.4.4-1.2.8-2.5 1.3-4zm-3.6-10.7c-.1.5-.2 1-.3 1.4-.1.2 0 .4.3.4.5 0 .8.4 1.2.6-.2-.9-.3-1.8-1.2-2.4zM23.4 51.4l.6.9c.1.1.1.2.3.1.1 0 .1-.2.1-.2-.3-.3-.2-1-1-.8z"/><path fill="#161907" d="M-108.6 59.1c-4.1 4.2-6.5 9.1-6.8 15-.3-3-.6-5.9.6-8.8 1.2-2.9 3.7-4.6 6.2-6.2zM-34.1 22c-2.6 1.3-5 2.6-6.9 4.5-2 1.9-3.3 4.2-4.7 6.5 1.2-6.3 4.9-10.2 11.6-11zm-80 39.8c-1.2 1.7-2.3 3.5-2.7 5.6-.1.3-.1.5-.2.8-.9-2.2.2-4.7 2.9-6.4-.1 0 0 0 0 0z"/><path fill="#161907" d="M-45.4 27.4c.6-3 2.2-4.6 5.1-4.9-2 1.3-3.8 2.9-5.1 4.9zm-68.8 34.3c.1-.1.2-.1.2-.2.1.2 0 .2-.2.2.1.1 0 .1 0 0z"/><path fill="#EBE21D" d="M-50.3 134.5c-1.1-1.5-1.8-3.2-2.2-5-.3-1.5.1-2.4 1.5-3.2 2.1-1.1 4.1-2.4 6-3.7.4-.3.7-.4 1 .2.3.5.7.9 1.1 1.4-.6-3.4-.3-6.8 0-10.1.4-1.1.9-2.2 1.3-3.3 0-.1.1-.1.1-.2h-.1c0 .1 0 .1-.1.2-.3 0-.5.2-.6.4-1 1.3-2.1 2.6-3 3.9-.5.8-1.2 1.3-2.1 1.7-1.8.7-3.6 1.1-5.5 1.5 0-.2 0-.4.1-.5.7-.5 1.2-1.1 1.8-1.6l3.9-3.3c.9-.7 1.8-1.5 2.6-2.2 1.7-1.4 3.2-3 5.1-4.1l.1-.1c1-1 2.1-2 3.3-2.8.6-.4.9-1 .5-1.7.2-.2.5-.2.8-.3 2.2-.6 4.4-.9 6.6-.8.5 0 .8-.1 1-.5 1.1-2 1.9-4.1 2.2-6.4.4 0 .9-.2.8-.5-.3-.8.4-1.4.2-2.2-.1-.3 0-.5.4-.3.2.2.5.3.7 0 .1-.2.1-.5-.1-.7-.3-.3-.1-.6.2-.7.7-.3 1.1-1 1.6-1.4 1.3-.9 2.2-2.3 3.7-3 .1-.1.2-.2.3-.4.2-.4.5-.6.9-.8.6-.5 1.5-.6 1.9-1.2.5-.9 1.3-1.4 2-2 1.2-1 2.5-1.8 3.5-3.1.1-.1.3-.2.4-.3 1-.3 1.8-1 2.4-1.7 1.1-1.2 2.6-2 3.6-3.3.1-.1.2-.2.3-.2 1.3-.6 2-1.7 3.2-2.5 1.2-.7 1.9-2 3.1-2.7.9-.5 1.5-1.5 2.5-1.9.5-.2.8-.9 1.4-1.3 1.7-1 2.9-2.6 4.5-3.6.2-.1.2-.3.3-.5.6-.8 1.6-1.1 2.5-.8.6.2 1.1.2 1.3-.5s-.1-1-.8-.9c-.1 0-.3 0-.2-.2 0-.1.1-.1.2-.1.8.2 1.6-.1 2.5 0s1.8.2 2.7.4c1 .2 1.3.9 1 2-3.5-1.2-7.6.7-8.9 4.2-.4 1.2-.9 2.5-1.4 3.9.5-.4.7-.9.9-1.3.4-.7.8-1.4 1.1-2.1 1.3-2.6 3.6-3.3 6.2-3.7v.2c-1.9 1.1-2.6 2.9-2.9 4.9-.3 1.9-.3 3.8-.8 5.9.6-.6.6-1.1.8-1.6.6-1.7 1-3.5 1.7-5.2.7-1.5 1.8-2.6 3.4-3.2 1.2-.4 1.4-.2 1.6 1 .5 2.8.1 5.5-.3 8.3-.2 1.4-.5 2.8-.8 4.3.8-1.1 1.1-2.1 1.4-3.2.7-2.7 1.4-5.3 1.6-8.1.2-2.4-.1-4.7-.5-7-.3-1.6.3-2.7 1.8-3.4.5-.3 1.1-.5 1.7-.7 2.1-.6 3.6-1.9 4.9-3.5.8-1 1.5-2 2.4-2.9 1.3-1.4 2.4-1.4 3.9-.2v.7c.7 3 1.4 6 2 9.1.4 2.3.8 4.6.9 6.9.1 2 0 3.9-.1 5.9-.2 3.4-.6 6.8-1.6 10.1-1.3 4.7-3.4 9-7.3 12.1-3.7 3-7.9 4.4-12.6 4.7-1.9.1-3.8.1-5.7-.1-2.3-.3-4.6-.6-6.8-1.1-1.3-.3-2.5-.7-3.9-.8-2-.4-3.5-1.6-5.3-2.7.1.6.1 1.2.2 1.7.3 1.8.1 3.6-.5 5.3-.4 1.3-.7 2.6-.9 4-.3 2.5.7 4.3 2.7 4.9.8.2 1.7.3 2.5.2.5.3.9.7 1 1.3-2.5.8-4.7.3-6.9-1.1-2-1.3-3.7-3-5.4-4.6-1.6-1.4-3.2-2.6-5.3-3.3-2.7-.9-5.2-2.3-7.6-3.9-.1-.1-.2-.2-.4-.2-.1-.3-.3-.4-.6-.3v-.1.1h.1v.1c-.1.8.2 1.5.5 2.2.6 1.7 1.7 3 2.4 4.6.1.3.2.5.2.9-1 4.9-2.3 9.8-4 14.5-1.1 3-2.7 5.7-5.1 7.9-2.1 1.9-4.2 3.7-6.3 5.6-1.5 1.3-3.2 2.2-5.4 1.6-2.1-.5-2.1-.5-3 1.4-1 2-3.8 3.9-6.6 2.2-.2-.8-.7-1.3-1.4-1.5zM1.1 87.9c.1 0 .3 0 .3-.2.2-.2.5-.2.7-.5-1.4.3-2.7.5-4.1.8-1.1.2-1.7 1-1.9 2-.2 1.1-.4 2.3-.6 3.4-.1.3.1.2.2.3.3-.1.4-.3.5-.5 1.1-1.5 2.2-2.9 3.6-4.1.6-.3 1.2-.5 1.3-1.2zm38.4-41.5c.2-.1.2-.3.1-.5s-.3 0-.4.1c-1.2.4-2.1 1.3-2.8 2.3-2.1 3.2-5 5.3-8.9 5.8-.3 0-.5.1-.6.3h-.2c-.1.1 0 .1 0 .1 1.6.6 3.3 1.2 5.1.6 1.9-.7 3.6-1.7 5-3.3 1.3-1.6 2.1-3.5 2.7-5.4z"/><path fill="#F0E406" d="M16.1 57c-.1 0-.2 0-.2.1-.1.2.1.3.2.2.7-.1 1 .2.8.9-.2.6-.7.7-1.3.5-.9-.3-1.9.1-2.5.8-.1.2-.2.4-.3.5-1.7 1-2.9 2.7-4.5 3.6-.6.4-.9 1.1-1.4 1.3-1 .4-1.6 1.4-2.5 1.9-1.2.7-1.9 2-3.1 2.7-1.1.7-1.9 1.9-3.2 2.5-.1 0-.2.1-.3.2-1 1.3-2.5 2.1-3.6 3.3-.6.7-1.4 1.4-2.4 1.7-.1 0-.3.1-.4.3-1 1.3-2.3 2.1-3.5 3.1-.7.6-1.5 1.2-2 2-.4.7-1.3.8-1.9 1.2-.3.3-.7.4-.9.8-.1.1-.2.3-.3.4-1.5.6-2.4 2-3.7 3-.6.4-.9 1.1-1.6 1.4-.3.1-.5.4-.2.7.2.2.2.5.1.7-.2.3-.4.1-.7 0-.4-.3-.5 0-.4.3.2.7-.5 1.4-.2 2.2.1.3-.4.6-.8.5.2-.8.3-1.7.1-2.5-.3-1.5-.2-3-.4-4.5-.6-4.2-1.4-8.3-2.3-12.4-.3-1.5-.9-3-1.1-4.6.3 0 .5 0 .7.3.3.4.5.2.7-.1.3-.9 1.1-1.3 1.7-1.8.4-.3.6-.5.2-1-.8-1.2-.8-1.3.2-2.2.1-.1.3-.2.5-.3.6-.5 1.4-.8 1.7-1.5.5-.9 1.1-1.2 2.1-1.2.8 0 1.1-.9 1.7-1.2.2-.1-.1-.3-.2-.4-.2-.2-.4-.3-.3-.6.1-.2.2-.3.4-.3.3 0 .5.1.6.4.1.5.3.3.5.1.4-.4.5-.8.5-1.3s0-1.2.8-1.2l.3 1.2c0 .1 0 .3.2.1v-.2c.8-.1 1.4-.3 1.2-1.3 0-.2.1-.4.1-.6.1-.2.1-.4.4-.4.2 0 .3.2.3.3.1.5.5.6.7.3.6-.7 1.4-1 2-1.7.8-1 1.7-1.8 3-2 .2-.1.5-.1.6-.4.4-.9 1-1.4 1.9-1.9 1.1-.5 1.7-1.6 2.7-2.3.9-.6 1.6-1.4 2.5-1.8.9-.4 1.5-.9 2.2-1.5s1.8-.8 2.5-1.5c.2-.2.5-.2.8-.4 1.5-.7 2.7-2.2 4.5-2.5.5-.1 1.1-.2 1.6-.6.7.1 1.3.2 2 .3 3.6 1.1 6.9 6.8 6.6 9.7-1.4.5-2.8 1.3-4.3 1.7-.3.1-.6.2-.9.2-.4.3-.4.6.1 1 .6.3.8.7.9 1.4 0 .8.2 1.7.6 2.4h.2zM-12 63h-.2c-.2.1-.4.3-.6.6.7.2 1.3-.1 1.8-.2.4-.1.9-.2 1.1.3.5 1.5 1.5 2.6 2.9 3.3-.1.3-.2.5-.3.8-.4 1.1-.6 2.2-.6 3.5.2-.2.2-.3.3-.4 2-3.6 5-6.2 8.4-8.3 1.4-.9 2.8-1.7 4.3-2.6.4.1.5-.3.8-.3.4-.1.4-.3 0-.3-.6-.1-1.2-.1-1.7.3-.2 0-.4 0-.6.1-.4 0-.6-.3-.7-.6-.3-1.1-.9-2-1.8-2.7-.6-.5-1-1-.5-1.8v-.1c.2 0 .5-.2.4-.4-.2-.2-.4 0-.6.2-.9.4-1.8.5-2.7.7-1.8.4-3.5.7-4.9 2.1-1.6 1.7-3.2 3.8-4.8 5.8zm28.7-4.9c-.1-.3-.4-.2-.6-.2-.2 0-.4 0-.4.2 0 .3.2.4.5.4.2 0 .4-.2.5-.4z"/><path fill="#F1E400" d="M-32.6 66.9c.2 5.6 1.8 11 1.8 16.6 0 3.4-.5 6.7-2 9.8-.2.4-.4.7-.9.8-3.9.4-7.3 1.9-10.7 3.7-2.3 1.2-4.5 2.5-6.8 3.7-4 2.2-8.6 1.6-12-1.5-.4-.4-.8-.9-1.2-1.2-1.9-1.4-1.8-3.2-1.2-5.2.8-2.6 2.2-4.9 3.5-7.3.7.3.6-.7 1.2-.7.4 0 .5-.2.4-.6-.1-.3 0-.6.4-.5.5.2.6-.1.9-.4.4-.4.7-1.2 1.4-1 .9.3 1.1-.3 1.3-.9.1-.3.2-.5.5-.6 1.1-.6 2.2-.9 3.1-1.7.3-.3.8-.4 1.1-.6.5-.3 1.3-.5 1.5-1.1.4-1 1.3-1.2 2.2-1.4.9-.2 1.5-.8 2.2-1.4.5-.4 1-1 1.5-1 1.2-.2 1.9-1.2 2.9-1.6.2-.1.6-.1.7-.4.2-.7.8-.8 1.3-1.1.8-.5 2-.6 2.5-1.4.9-1.4 2.8-1.7 3.7-3.1 0-.1.2-.1.3-.1v1.6h.1c.3-.6.3-1 .3-1.4z"/><path fill="#F2E500" d="M-86.6 125.3c.1-.4.1-.8.2-1.2.4-1.4.1-2.6-.8-3.9-2.6-3.8-4.7-7.9-6.4-12.2-.1-.1-.1-.3-.1-.4.1-1.2-.3-2.3-.4-3.5-.2-1.8-.6-3.6-.6-5.4.5.1 1 .8 1.4-.1 0 0 .1 0 .2-.1.9-.4 1.7-.9 2.6-1.2.3-.1.7-.4.8-.8.1-.2.2-.4.4-.5.5-.2 1-.4 1-1 0-.2.3-.4.4-.3.6.4.9 0 1.3-.3.3-.3.9-.3.9-.9 0 0 .2-.1.4-.1.4 0 .6-.2.8-.5.2-.3.4-.5.8-.6 1.4-.3 2.3-1.4 3.4-2 .9-.5 1.7-1.5 2.9-1.1.1-.3-.6-.7 0-.9.6-.2 1.1-.8 1.9-.5.2.1.3 0 .4-.2s0-.3-.2-.4c-.1-.1-.5 0-.3-.4.1-.2.3-.2.5-.2.3-.1.7.3.8 0 .2-.7.7-.4 1.1-.5 1.4 2.7 2.9 5.4 4.5 8-.2 1.1-.3 2.2-.5 3.4-.1.3 0 .6.3.8 2 2.2 4.1 4.4 6.7 6 .1 0 .1.1.2.1 0 .9.9 1 1.3 1.5 0 .2-.1.4-.4.5-1.1.3-2.6-.1-3.1 1.5h-.1c-.8.3-1.3 1-1.9 1.5-1.1.9-1.8 2.2-3.2 2.8-.1 0-.1.1-.1.2-.1 1.1-1 1-1.7 1.1-.3 0-.7.1-.8.5 0 .7-.5.8-1 .8-.4 0-.5.2-.5.6-.1.9-1.5.7-1.4 1.8 0 .2-.3.1-.5.2-.8.3-1.2 1.3-2 1.7v.2c0 .7-.3 1-1.1.8-.4-.1-1.1-.2-1.2.4-.1.7-.5.9-1 1-.8.2-1 .9-1.4 1.4-.6.6-1 1.2-1.8 1.5l-.1.1c-.6 1-1.7 1.2-2.6 1.7-.1-.1-.2-.3-.1-.5.2-.1.4-.2.1-.4z"/><path fill="#F2E517" d="M-31 60.7c-.4-1.2 0-2.5-.4-3.8-.4 1.5-.6 2.9-.9 4.4 0-.4-.3-.5-.6-.4-.6.2-1.2.4-1.6.8-.5.5-1 .9-1.6 1.1-.9.3-1.1 1.2-.6 1.6.2.1.5.3.3.5s-.5.1-.7-.2c-.3-.6-.9-.5-1.3-.3-1 .6-2 1.3-2.9 2-.1.1-.1.4-.4.4-1.1.1-2 .6-2.6 1.5-.2.3-.6.5-1 .5-.6 0-1 .2-1.4.7-.8 1-2 1.4-3 2-.6.4-1.2.8-1.7 1.3-.6.6-1.3.9-2 1.1-.2.1-.5 0-.5.3-.1.9-.9 1-1.5 1.2-.2.1-.4.1-.4.4 0 .2.1.3.3.3.5.1.4.4.1.6-.4.3-.8.8-1.5.7-1.6 1.6-2.9 3.3-4.3 5-1.5 1.7-2.8 3.6-4.2 5.6-.8-2.5-2.4-4.3-3.8-6.3-.1-.9.3-1.7.4-2.5.1-.6.1-1.4.6-2 .8.1.9-.3.7-1 0-.1-.1-.3-.1-.4v-.3c.4 0 .6.4.8.6.4.5.8.5 1-.2.1-.3.3-.5.6-.5.4 0 .5-.3.2-.6-.2-.2-.5-.5-.3-.8s.6.1.8 0c.1 0 .2 0 .3.1.2.1.5.2.6 0s-.1-.5-.4-.5c-.4-.1-.4-.3-.1-.5.2-.2.4-.4.6-.5.2-.2.5-.2.8 0s.1.5 0 .7-.2.4 0 .5c.1.2.4.2.4.1.4-.6 1.3-.8 1.3-1.7 0-.7.5-.8.9-.5.6.4 1 .1 1.3-.3.3-.3.5-.6.7-.9.2-.4.5-.5.9-.3s.8.1 1-.3c.1-.3.3-.4.6-.5.3-.1.5-.2.5-.6 0-.3.1-.5.3-.6.3-.2.5-.4.5-.8 0-.3.2-.3.5-.2.2.1.5.4.2.6-.7.5-.5 1.2-.5 1.8-.3.7-.6 1.3-1 2s-1 1.3-1 2.2c1.2-1.1 2.2-2.4 3.1-3.7 2.5-3.4 4.6-7 6.2-10.9.2-.6.5-1 .9-1.4.5-.5 1-.6 1.6-.4.6.2.5.8.6 1.2.2 1.4.4 2.9.5 4.3.4-1.6.7-3.1 1.2-4.6l.2-.2c0-.2-.1-.5.2-.7.5-.1.6-.8 1.2-.8.8 0 1.4-.5 2-.9.7-.6 1.4-1.2 2.1-1.7.3-.2.4-.8 1-.7.4.1.7-.1.9-.3.6-.7 1.6-.8 2.3-1.5.8-.8 1.8-1.6 3-1.8.1 0 .2-.1.3-.2.8-.6 1.6-1.2 2.5-1.7.5-.3.9-.6 1.2-1.1.2-.3.3-1.1.8-.2.1.1.3.1.4 0 .4-.5 1.1-.6 1.6-1s.9-1 1.7-1c.2 0 .4-.3.5-.5.7-.5 1-1.3 2-1.5.5-.1.9-.5 1.3-.8.6-.4 1.1-.9 1.8-1.1.8-.2 1.4-.8 2-1.4.3-.4.7-.6 1.2-.6.8-.1 1.3-.8 2.2-.9.2 0 .2-.4.3-.6.2-.5.5-1 1-1.3.1.3-.3.5 0 .7h.3c.2-.1.2-.3.2-.6-.1-.5.2-.5.5-.5s.7.1 1-.2c1-.9 2.1-1.8 3.4-2.2.3-.1.5-.2.6-.5.3-.7.9-.8 1.6-.9.3-.1.6-.1.8-.3.4-.6 1-.6 1.7-.5 1.4 1.4 2.9 2.7 4 4.3-.1.3-.4.4-.7.5-1.1.5-2.2.8-3.2 1.6-1.7 1.6-3.6 3.1-5.7 4.2-.5.2-1 .5-1.4.9-.9.9-1.9 1.6-3.2 1.9-.3.1-.5.1-.4.5.2.6.2.6-.6.7.1-.1.3-.1.2-.2 0-.3-.2-.2-.3-.1-2.8.9-5.5 1.9-6.9 4.8-.1-.4-.2-.4-.5-.1-.5.5-1 .9-1.8.9-.3 0-.5.2-.3.5.1.3.1.5-.2.6-1.1.4-2.3.5-3.2 1.7-.5.8-1.5 1.1-2.4 1.6-.9.4-1.9.9-2.4 1.9-.1.1-.3.2-.5.2-1.9.4-2.7 1.3-2.7 3.2v.5c-.3-.1-.2-.7-.6-.2z"/><path fill="#F0E406" d="M-86.6 126.2c.9-.5 2-.7 2.6-1.7l.1-.1c.8-.2 1.3-.9 1.8-1.5.5-.5.7-1.2 1.4-1.4.5-.1.9-.3 1-1 .1-.6.7-.6 1.2-.4.7.2 1.1 0 1.1-.8v-.2c.9-.4 1.2-1.4 2-1.7.2-.1.5 0 .5-.2-.1-1.1 1.4-.9 1.4-1.8 0-.4.1-.5.5-.6.5 0 1-.2 1-.8 0-.4.4-.4.8-.5.7-.1 1.6 0 1.7-1.1 0-.1.1-.2.1-.2 1.4-.6 2.1-1.9 3.2-2.8.6-.5 1.1-1.2 1.9-1.5h.1c.5-1.6 2-1.2 3.1-1.5.3-.1.3-.3.4-.5h.3l.2.2.2.2c.2.1.5.2.7.3 1.9.7 3.7 1.3 5.8 1.1 4.2-.4 8-2.2 11.9-3.6 1.6-.6 3.1-1.2 4.7-1.6.3.3.3.1.3-.2.4-.2.7-.3 1.2-.3.4.7.1 1.3-.5 1.7-1.2.8-2.3 1.8-3.3 2.8l-.1.1c-1.9 1.1-3.4 2.7-5.1 4.1-.9.7-1.8 1.4-2.6 2.2l-3.9 3.3c-.6.5-1.2 1.1-1.8 1.6-.1.1-.1.3-.1.5-.4.1-.8.1-1.2.2 0-.2-.1-.4-.3-.4-.3 0-.3.2-.4.4-.2.1-.3.1-.5.2 0-.1-.1-.2-.1-.2-.2 0-.2.1-.2.2-.5.1-.9.1-1.4.2-2 .2-4 .2-6 .2-.3 0-.5.1-.8.2-.4-1.8-.8-3.6-1.1-5.4-.1-.8-.2-1.6-.4-2.6-.2 1-.3 1.8-.4 2.7-.3 3-.7 6-1.5 8.8-.5 1.5-.9 3.1-2 4.3-1.9 2.2-4.1 4.1-6.8 5.2-.4.2-.6.5-.5.9.2.8.2 1.7.1 2.5 0 1.1-.4 2-1.5 2.4-.8.3-1.6.6-2.4.5h-3.9c-1.3-.3-2.6-.8-3.7-1.6-1.3-.9-1.6-2-1.1-3.5.8-2.2 1.5-4.4 1.9-6.7.2-.4.1-.6.4-.6z"/><path fill="#FAF5CC" d="M-94.7 98.7c0 1.8.4 3.6.6 5.4.1 1.2.6 2.3.4 3.5-1.2-2.6-2-5.4-2.6-8.2-1-4.7-1.3-9.5-.8-14.3.4-4.1 1.9-7.8 3.7-11.4 5.5-11.1 14.4-17.9 26.3-21 2.4-.6 4.7-1.1 7.4-1.4-3.3 3.9-6.6 7.6-9.6 11.4-.2 0-.5 0-.7.1-2.2.8-4.5 1.6-6.7 2.6-2.8 1.3-5.5 2.9-7.8 5-1.5 1.4-2.9 2.8-4.2 4.5-1 1.2-1.8 2.5-2.6 3.9-1.1 2-2 4.1-2.6 6.3-.3 1.3-.7 2.6-.7 3.9v1.3c-.3.1-.3.4-.3.6v7.2c0 .2 0 .5.2.6z"/><path fill="#CCCB0C" d="M-50.3 134.5c.7.2 1.2.7 1.8 1.1 2.8 1.7 5.6-.2 6.6-2.2.9-1.9 1-1.9 3-1.4 2.2.5 3.8-.3 5.4-1.6 2.1-1.8 4.3-3.7 6.3-5.6 2.4-2.2 4-4.9 5.1-7.9 1.7-4.7 3-9.6 4-14.5.1-.3 0-.6-.2-.9-.7-1.6-1.8-3-2.4-4.6-.2-.7-.6-1.4-.5-2.2.2 0 .2.4.5.2-.2.3.1.4.2.5 1.9 2.2 4.1 4.1 6.9 5.2.8.3.6.9.5 1.4-.4 3-1.4 5.8-2.2 8.7-1.8 6.2-4.8 11.8-8.6 17-.8 1-1.7 1.9-2.7 2.7-2.7 2-5.3 4.2-8 6.2-1.1.8-1.9 1.8-2.6 2.9-.6.9-1.3 1.7-2.3 2.3-2 1.1-3.9.9-5.7-.5-.2-.2-.5-.4-.7-.6-1.7-1.8-3.1-3.9-4.4-6.2z"/><path fill="#F3E62F" d="M-94.6 88.9c0-1.4.4-2.7.7-3.9.6-2.2 1.4-4.3 2.6-6.3.8-1.4 1.7-2.6 2.6-3.9 1.3-1.6 2.7-3.1 4.2-4.5 2.3-2.1 5-3.7 7.8-5 2.2-1 4.4-1.7 6.7-2.6.2-.1.4 0 .7-.1-1.9 2.9-3.5 5.9-5 9-.9 2-1.6 4-1 6.2-.4 0-.3-.4-.4-.6 0-.2-.1-.4-.3-.2-.4.5-1 .5-1.6.6-.4.1-.6.3-.5.7.2.7 0 .9-.8.8-.4-.1-.7 0-.9.4-.3.6-.7.8-1.3.9-.2 0-.4.1-.5.3-.2.6-.7.7-1.1.9-.4.2-.8.5-1.1.7-1.1.6-1.9 1.6-3.3 1.7-.2 0-.4.1-.4.4-.2 1.2-.9 1.4-1.9 1.3-.3 0-.3.2-.5.4-.8.7-1.5 1.6-2.7 1.7-.9.1-1.6.3-2 1.1z"/><path fill="#CCCB0C" d="M-35.3 101.9c-.4 0-.8.2-1.2.3-.1 0-.3 0-.3.2-1.6.4-3.1 1.1-4.7 1.6-3.9 1.4-7.7 3.1-11.9 3.6-2.1.2-4-.4-5.8-1.1-.2-.1-.5-.2-.7-.3l-.2-.2-.2-.2h-.3c-.4-.6-1.3-.6-1.3-1.5 2.7 1.1 5.5 1.6 8.4.9 2.2-.5 4.1-1.8 6.1-2.8 3.5-1.9 6.9-3.8 10.6-5 1.7-.5 3.5-.9 5.3-1 .5 0 .7-.2.8-.6 2.1-5.4 2.8-10.9 2.2-16.7-.4-3.4-1.1-6.6-1.6-10-.4-2.8-.8-5.6-.9-8.5.4-.5.3.2.5.2v.5c.1.3.1.6.3.8.2.8.3 1.7.5 2.5.3 1.2.5 2.5 1 3.7v.3c0 .2 0 .4.2.5 0 .2 0 .5.2.7.2 1.6.7 3 1.1 4.6.9 4.1 1.7 8.2 2.3 12.4.2 1.5.2 3 .4 4.5.1.8.1 1.7-.1 2.5-.3 2.3-1.2 4.4-2.2 6.4-.2.4-.5.6-1 .5-2.2-.1-4.4.2-6.6.8-.4.2-.7.2-.9.4z"/><path fill="#F2E517" d="M-94.6 88.9c.4-.8 1.2-1 2.1-1.1 1.1-.1 1.8-1 2.7-1.7.2-.1.2-.4.5-.4 1 .1 1.8-.2 1.9-1.3 0-.2.2-.3.4-.4 1.3-.1 2.2-1.2 3.3-1.7.4-.2.7-.5 1.1-.7s1-.3 1.1-.9c0-.2.3-.3.5-.3.6-.1 1-.4 1.3-.9.2-.4.5-.4.9-.4.7.1 1-.2.8-.8-.1-.4.1-.6.5-.7.5-.2 1.1-.2 1.6-.6.2-.2.3 0 .3.2 0 .3-.1.6.4.6 0 .3-.1.6.3.7 0 .1 0 .2.1.2 0 .2 0 .4.3.4 0 .1 0 .2.1.2 0 .2 0 .4.3.4 0 0 .1.1 0 .1 0 .3 0 .5.3.5.2.1.3.3.3.5-.2 1.7.2 3.4.7 5-.4.1-.9-.2-1.1.5-.1.3-.5 0-.8 0-.2 0-.4 0-.5.2-.2.3.2.3.3.4s.3.2.2.4c-.1.2-.3.2-.4.2-.8-.3-1.3.3-1.9.5s.2.6 0 .9c-1.3-.4-2.1.6-2.9 1.1-1.1.7-2.1 1.7-3.4 2-.3.1-.6.3-.8.6-.2.3-.5.5-.8.5-.1 0-.4.1-.4.1 0 .6-.6.6-.9.9-.4.3-.7.8-1.3.3-.1-.1-.4.1-.4.3-.1.6-.6.8-1 1-.2.1-.4.2-.4.5-.1.4-.4.7-.8.8-.9.3-1.7.8-2.6 1.2 0 0-.1 0-.2.1-.4.9-.9.2-1.4.1v-3.2c0-.2 0-.5-.3-.6v-1c.4-.1.3-.4.3-.7v-3c-.4-.1-.3-.5-.3-1z"/><path fill="#F3E626" d="M1.6 30.7c-.6 0-1.2 0-1.7.5-.2.2-.5.3-.8.3-.6.1-1.3.3-1.6.9-.1.3-.4.4-.6.5-1.3.5-2.4 1.3-3.4 2.2-.3.3-.7.1-1 .2-.3 0-.7 0-.5.5.1.2.1.4-.2.6-.1 0-.2.1-.3 0-.2-.2.2-.4 0-.7-.5.3-.8.8-1 1.3-.1.2-.1.6-.3.6-.8.1-1.4.8-2.2.9-.5 0-.9.2-1.2.6-.5.6-1.1 1.2-2 1.4-.7.2-1.2.7-1.8 1.1-.4.3-.9.7-1.3.8-.9.2-1.3 1-2 1.5-.2.1-.3.5-.5.5-.8 0-1.2.5-1.7 1s-1.2.5-1.6 1c-.1.1-.3.1-.4 0-.5-.9-.6-.1-.8.2-.3.5-.7.8-1.2 1.1-.9.5-1.7 1.1-2.5 1.7-.1.1-.2.2-.3.2-1.2.3-2.2 1.1-3 1.8-.7.7-1.7.8-2.3 1.5-.2.3-.6.4-.9.3-.5-.1-.6.5-1 .7-.8.5-1.4 1.1-2.1 1.7-.5.5-1.1 1-2 .9-.6 0-.7.7-1.2.8.9-2.9 2.5-5.3 4.7-7.3 2.4-2.1 5.1-3.7 8.1-4.8.2 0 .4-.1.1-.3-.2-.1-.5-.1-.8.1h-.5c-.3-.2-.5-.3-.7.2-.4.2-.5-.3-.8-.3-.3-.1-.8.3-.9-.3-.1-.5.3-.8.8-.9.1 0 .2 0 .3-.1.2 0 .4 0 .4-.2 0-.3-.2-.2-.4-.3-.6-.1-1.2.1-1.8.2 1-.4 1.6-1.3 2.5-1.6.4-.1.9 0 .9.6 0 .2 0 .4.2.5.5.1.8-.1 1.1-.4.3-.2.4-.6.2-.9-.2-.3-.2-.6.1-.7.4-.2.5.2.6.4.1.1.1.3.1.4.1.1.1.4.3.3.2 0 .3-.2.2-.4 0-.4-.1-.7-.1-1.1.1 0 .2.1.3.1 0 .2.1.3.3.3 0 .4-.1 1 .7.6.7.3 1 1 1.6 1.4.2.4.5.7 1 .9-.1-.6-.2-1-.6-1.3l-.9-1.8c.3 0 .5.1.8.1.4 0 .8.1 1.1-.1.8-.6 1.3-1.7 2.6-1.4.1 0 .2-.1.3-.1.7-.5 1.4-.9 1.9-1.6.2-.2.4-.4.7-.5 1.1-.5 2-1.3 2.9-2 .4-.3.7-.8 1.4-.4.4.3.5 0 .6-.4 0-.5.3-.6.7-.5.2.1.4.1.5-.1.7-1 2-1.1 2.8-2 .5-.6 1.2-1.2 2.1-1.5.3-.1 1.1.4.6-.6-.1-.2.2-.2.3-.2.9.2 1.5-.2 1.8-1 .2-.3.4-.6.6-1 1.1.5 2.2 1 3.1 1.9.8.9 1.2 1.2 1.6 1.5z"/><path fill="#CCCB0C" d="M-23.8 131.6c6.3-6.6 9.4-14.7 11.9-23.2.6 1.5 1 3 1.7 4.5.8 1.9 1.1 3.9 1.1 5.9 0 1.3 0 2.6.1 3.9.1 1.5 0 2.9.7 4.4.6 1.3.2 2.9-.4 4.3-.4.8-1.2 1.1-2 1.1-3.9.1-7.8.1-11.7-.3-.4-.1-.9-.2-1.4-.6zm29-38.3c1.3 0 2.6.5 3.9.8 2.3.5 4.5.8 6.8 1.1 1.9.2 3.8.2 5.7.1 4.6-.3 8.9-1.7 12.6-4.7 3.9-3.2 6-7.4 7.3-12.1.9-3.3 1.3-6.7 1.6-10.1.1-2 .2-3.9.1-5.9-.1-2.3-.4-4.6-.9-6.9-.6-3.1-1.3-6.1-2-9.1-.1-.2 0-.4 0-.7 1.1.8 1.7 1.9 2.2 3.2 1.8 5 2.7 10.1 3.1 15.4.3 4 .3 8-.5 12-1 5.1-2.9 9.7-6.3 13.7C35 94.6 30 96.6 24.2 97c-4.9.3-9.6-.7-14.2-2.1-1.7-.6-3.3-1-4.8-1.6z"/><path fill="#F2E500" d="M-57.1 77.5c.6 0 1-.4 1.5-.7.2-.2.4-.5-.1-.6-.2 0-.3-.1-.3-.3 0-.2.2-.3.4-.4.6-.3 1.3-.4 1.5-1.2 0-.2.3-.2.5-.3.8-.2 1.4-.6 2-1.1.5-.5 1.1-.9 1.7-1.3 1-.6 2.3-1 3-2 .4-.5.8-.7 1.4-.7.4 0 .8-.2 1-.5.7-.9 1.5-1.4 2.6-1.5.3 0 .2-.3.4-.4 1-.7 1.9-1.4 2.9-2 .3-.2 1-.3 1.3.3.2.3.5.4.7.2.3-.3-.1-.4-.3-.5-.5-.4-.2-1.3.6-1.6.7-.3 1.2-.6 1.6-1.1.4-.4 1-.6 1.6-.8.3-.1.5 0 .6.4-.1.8-.2 1.6-.2 2.4 0 .1-.1.1-.1.2v.2l-.2.2v2.3c-.1 0-.3 0-.3.1-.9 1.4-2.8 1.7-3.7 3.1-.5.8-1.7.9-2.5 1.4-.5.3-1.2.4-1.3 1.1-.1.3-.5.3-.7.4-1 .4-1.7 1.4-2.9 1.6-.5.1-1 .6-1.5 1-.6.6-1.2 1.2-2.2 1.4-.8.2-1.8.4-2.2 1.4-.2.6-1 .8-1.5 1.1-.4.2-.8.3-1.1.6-.9.8-2.1 1.2-3.1 1.7-.3.2-.4.3-.5.6-.1.7-.3 1.2-1.3.9-.7-.2-1 .6-1.4 1-.3.3-.5.6-.9.4-.5-.2-.6.1-.4.5.1.4 0 .6-.4.6-.6-.1-.5.9-1.2.7.3-.7.7-1.3 1.1-2 .2 0 .3-.2.3-.4s.2-.5.3-.6c.4 0 .3-.3.3-.5.2-.5.5-1 .9-1.5 0-.1.1-.1.1-.2.2-.4.4-.8.7-1.1.4 0 .4-.3.3-.5.1-.4.4-.8.7-1.1.4 0 .3-.3.3-.5v-.4zm6.3-3c.1-.3-.2-.4-.4-.4-.3-.1-.4.1-.5.3-.1.2.1.4.3.4.3 0 .5 0 .6-.3zm16.3-10.9c.1-.1.3-.1.3-.4-.1-.2-.2-.4-.5-.4-.2 0-.3.2-.3.3.1.4.2.5.5.5zm-9.5 6.5c-.1-.2-.2-.3-.5-.4-.2 0-.3 0-.2.2s.2.4.5.4c.1 0 .2-.1.2-.2zm3.5-2.6c0-.2-.2-.3-.3-.3-.2 0-.3 0-.4.2 0 .2.1.3.3.3.1-.1.3 0 .4-.2zm2.5-1.1l-.1-.1s0 .1-.1.1l.1.1c0 .1.1 0 .1-.1z"/><path fill="#FAF5CC" d="M-67.7 75.6v.3c-.4.3-.6.8-.6 1.4-.5.6-.5 1.3-.6 2-.1.8-.5 1.7-.4 2.5-.6-.7-1.1-1.5-1.7-2.2-1.6-2.1-1.7-4.2-.6-6.6 2.2-4.9 4.9-9.3 8.6-13.2 4.6-4.9 8.7-10.3 13.5-15 1.2-1.2 2.5-2.4 4.2-3 .1 0 .2 0 .3-.1 0 .3-.3.5-.5.7-1.2 1.3-2.5 2.7-3.7 4.1-1.7 2-3.3 4.1-4.7 6.2-1.3 2-2.7 4.1-3.7 6.3v.3c-.2 0-.3.2-.3.4v.1c-.4.3-.7.6-.7 1.2-.2 0-.3.1-.3.3v.2c-.2.3-.5.5-.6.8 0 .1 0 .2-.1.3-.2 0-.3.1-.3.3l-.6.9c-1.3 2.2-2.7 4.3-4 6.5-1.1 1.8-2.2 3.6-3.2 5.3z"/><path fill="#F3E738" d="M-57.7 59c1.1-2.2 2.4-4.2 3.7-6.3 1.4-2.2 3-4.3 4.7-6.2 1.2-1.4 2.4-2.7 3.7-4.1.2-.2.5-.3.5-.7 1.4-.5 2.9-.6 4.4-.8 3.3-.5 6.6-1.1 9.8-1.9h.4c.5 0 1 .3 1.5.4.8.2 1.7.4 2.2 1.2 0 .4.1.7.1 1.1 0 .2-.1.4-.2.4-.2.1-.2-.2-.3-.3 0-.1-.1-.3-.1-.4-.1-.3-.3-.6-.6-.4-.3.2-.3.4-.1.7s.1.7-.2.9c-.3.3-.7.5-1.1.4-.3-.1-.2-.3-.2-.5 0-.6-.5-.8-.9-.6-1 .3-1.6 1.2-2.5 1.6.6-.1 1.2-.3 1.8-.2.2 0 .4 0 .4.3 0 .2-.2.2-.4.2-.1 0-.2 0-.3.1-.5.1-.9.4-.8.9s.6.1.9.3v.2h-.3c-2.7.3-5.5.6-8.2.8-2 .2-3.9.5-5.3 2.3-.5.7-1 1.4-1.4 2.1-.9 1.6-1.5 3.4-2.3 5.1.1-.4-.3-.6-.3-.9 0-.3 0-.7-.4-.6-.4.1-.3.5-.1.7.1.1.1.2-.1.3-.6-.4-1.2-.5-1.8-.1-1.1.7-1.9 1.7-3 2.4-.1.1-.1.2-.1.4s-.1.4-.3.4c-1.2.2-1.9.7-2.8.8z"/><path fill="#CCCB0C" d="M-84 138.3h3.9c.8 0 1.6-.2 2.4-.5 1.1-.4 1.5-1.3 1.5-2.4 0-.8.1-1.7-.1-2.5-.1-.4.1-.7.5-.9 2.7-1.2 4.9-3.1 6.8-5.2 1.1-1.2 1.5-2.8 2-4.3.9-2.9 1.2-5.9 1.5-8.8.1-.8.2-1.6.4-2.7.2 1 .3 1.8.4 2.6-.2.3-.1.6-.1.9v9.6c0 1.6-.4 3.1-1.3 4.4-1 1.6-2 3.1-2.9 4.8-.2.4-.3.8-.3 1.3.1 1.2 0 2.4-.2 3.5-.4 1.7-1 2.2-2.8 2.3-2.2.1-4.4-.2-6.6-.7-1.7-.4-3.5-.8-5.1-1.4z"/><path fill="#FAF5CC" d="M-26.8 40.7c-.5-.8-1.4-1-2.2-1.2-.5-.1-.9-.5-1.5-.4-.4-.3-.8-.1-1.3-.1-2.9.1-5.8.3-8.9.5.5-.7.9-1.2 1.3-1.7 3.1-4.3 7.4-7 12.3-8.8 3.3-1.2 6.6-2.5 10.1-3.1.3-.1.6-.1.9.1-1.7.6-3.5 1-5.2 1.8-1.5.7-2.8 1.6-3.7 3.1-1 1.7-1 3.6-1 5.5 0 .2.1.4.3.4v1c0 .3-.1.6.3.7 0 .2 0 .4.1.6 0 .2.1.3.3.4 0 .2 0 .4.1.6 0 .2.1.3.3.4 0 .2 0 .4.1.5l.9 1.8c0 .2-.1.3-.4.4-.6-.4-1-1.1-1.6-1.4-.1-.3-.4-.6-.7-.6 0-.2-.1-.3-.3-.3 0-.2-.1-.2-.2-.2z"/><path fill="#F3E62F" d="M-25.5 37.7v-1c.1-.3-.1-.6.4-.7.9-.1 1.7-.5 2.6-.5.6 0 1.3-.4 1.5-1.1.2-.4-.1-1.1.6-1.2.5-.1.9-.4 1.5-.4.7.1 1.2-.6 1.8-.8.1 0 .1-.3.1-.4-.3-.7.3-.9.6-1.1.5-.2 1-.4 1.6-.4.7 0 1.3-.3 1.7-.9.2-.3.5-.6.9-.6 1-.2 1.6-1 2.5-1.4.3-.1.5-.5.9-.7.9-.5 1.8-.2 2.7-.3.1 0 .2 0 .2.2.2.3.6.1.9.2h.1c.1.4.4.3.7.3.1.1.2.1.3.2.1.2.3.1.5.1.3 0 .5.1.7.3-.2.3-.5.6-.6 1-.4.8-.9 1.2-1.8 1-.2 0-.4 0-.3.2.5.9-.3.5-.6.6-.9.3-1.6.9-2.1 1.5-.8.9-2.1 1.1-2.8 2-.1.1-.3.1-.5.1-.4-.1-.7 0-.7.5 0 .3-.1.7-.6.4-.6-.4-1 .1-1.4.4-.9.8-1.8 1.6-2.9 2-.2.1-.5.3-.7.5-.6.6-1.2 1.1-1.9 1.6-.1.1-.2.2-.3.1-1.3-.3-1.8.8-2.6 1.4-.4.3-.7.2-1.1.1-.3 0-.5-.1-.8-.1-.2-.1-.1-.3-.1-.5s-.1-.3-.3-.4c0-.2 0-.4-.1-.6 0-.2 0-.4-.3-.4 0-.2 0-.4-.1-.6.1-.1.3-.5-.2-.6z"/><path fill="#F1E400" d="M-101 121.2c-2.1-2-3.5-4.4-3.8-7.4-.1-.6.1-1.2.6-1.7l5.1-5.1c.5.7.6 1.5.9 2.3.9 2.4 1.9 4.7 3.3 6.9.8 1.1 1.1 2.2.3 3.5-.3.6-.7 1.1-1.1 1.7-.2.2-.4.3-.7.2-1.6-.2-3.1-.3-4.6-.4z"/><path fill="#F3E738" d="M-6.1 26.4c-.9.1-1.8-.2-2.7.3-.4.2-.6.6-.9.7-.9.3-1.5 1.2-2.5 1.4-.4.1-.7.3-.9.6-.4.6-1 .9-1.7.9-.6 0-1.1.2-1.6.4-.4.2-1 .4-.6 1.1 0 .1 0 .4-.1.4-.6.2-1.1.8-1.8.8-.6-.1-1 .3-1.5.4-.7.1-.5.7-.6 1.2-.2.7-.9 1-1.5 1.1-.9.1-1.7.4-2.6.5-.5.1-.3.4-.4.7-.2-.1-.3-.2-.3-.4 0-1.9 0-3.8 1-5.5.8-1.5 2.2-2.3 3.7-3.1 1.7-.8 3.4-1.3 5.2-1.8 1.5-.5 3-.6 4.6-.4 1.1.1 2.2.1 3.3.3.6 0 1.3.1 1.9.4z"/><path fill="#DFDE53" d="M-96.9 75.3c-.5 1.4-.9 2.7-1.3 4-.1.2-.2.3-.4.4-1.4.5-2.7.9-4.2.7-1.1-.1-1.9-.6-2.4-1.6-.5-.9-.8-1.8-1.1-2.8-.2-.8-.4-1.5-1-2.2-1.1-1.4-1.1-2.9-.4-4.5 1.1-2.6 3.1-4.5 5.4-6.1.2-.2.5-.3.9-.6-.3.8-.6 1.5-.9 2.2-.6 1.6-.6 3.3-.7 5s-.6 3.2-1.9 4.4c-.2.2-.4.4-.2.7.4.7.7 1.4 1.1 2 .5.9 1.1 1.1 2.2.9 1.5-.3 2.9-1 4.1-1.9.2-.1.4-.3.8-.6z"/><path fill="#CCCB0C" d="M-101 121.2c1.5.1 3.1.2 4.6.4.3 0 .5 0 .7-.2.4-.5.7-1.1 1.1-1.7.8-1.3.5-2.4-.3-3.5.1-.2.3-.3.3-.5.1-.7.5-.8 1.1-.5.2.1.3.4.5.4 0 0 .1.1 0 .1 0 .1.1.1.1.2l.1.1c0 .2 0 .3.2.4 1.1 1.9 2.2 3.8 3.4 5.6.1.2.2.3.1.5-.6 2.5-1.8 4.2-4.9 3.3-2.8-.8-5-2.5-7-4.6zm45.9-2.7c.2-.1.3-.1.5-.2h.7c.4-.1.8-.1 1.2-.2 1.8-.4 3.7-.9 5.5-1.5.9-.3 1.5-.9 2.1-1.7l3-3.9c.2-.2.3-.4.6-.4-.4 1.1-.9 2.2-1.3 3.3-.8 1.5-1.4 3-1.8 4.6-.1.6-.3.8-1 1-5.6 1.1-11.3 1.1-16.9.2-.4-.1-1-.1-.9-.8.2-.1.5-.2.8-.2 2 0 4 0 6-.2.5 0 .9-.1 1.4-.2-.1.2 0 .2.1.2zM5.1 108c-.1-.6-.5-1-1-1.3.6-.2 1.2-.3 1.8-.8-2.1-.2-4.3.4-5.7-2 1.3.4 2.4.8 3.6.8 1.4.1 2.6-.2 3.8-.9 1.1-.7 1.8-1.6 2-2.9.2-.9.4-1.9.7-2.8.1-.4.3-.5.7-.4 1.6.4 1.6.4 1.1 2-.2.7-.4 1.3-.6 2-.8 3.3-3.1 5.3-6.4 6.3z"/><path fill="#D1D023" d="M-73 86.1c-.5-1.6-.8-3.3-.7-5 2 2.7 4.2 5.2 5.6 8.3.5 1.1.8 2.1.1 3.2-.3.4-.4 1-.5 1.5-1.6-2.6-3.1-5.3-4.5-8zm-20 29.4c-.3 0-.3-.3-.5-.4-.6-.3-1-.2-1.1.5 0 .2-.2.3-.3.5-1.5-2.1-2.4-4.5-3.3-6.9-.3-.8-.4-1.6-.9-2.3.8-.8.8-2 1.4-3.1 1.2 4.3 2.8 8 4.7 11.7zM1.6 30.7c-.4-.4-.9-.7-1.2-1.1.4-.1.6.2.8.4 2.9 2 5.4 4.4 8.2 6.7 1 .8 2.1 1.7 3.2 2.5-.8.2-1.7.2-2.5.7 1.5 0 2.9 0 4.2.5-.4.1-.8-.1-1.2.2-.7-.1-1.3-.2-2-.3H8.9c-.2 0-.4 0-.5.2-.5.1-1 .1-1.5.2-.2-.3.1-.4.2-.7.7-.8 1-1.8.4-2.5-.7-.8-1.1-1.7-1.9-2.4-1.1-1.7-2.6-3-4-4.4z"/><path fill="#CCCB0C" d="M13.1 40.5c.4-.3.8-.1 1.2-.2.1.3.3.4.5.4.6.3 1.1.6 1.7.9 2.2 1.1 3.6 3 4.9 5 .9 1.4 1.7 2.8 2.5 4.5-1.4-.3-2.7-1.1-4.1-.9.2-2.9-3.1-8.5-6.7-9.7z"/><path fill="#FAF5CC" d="M16.8 55.3c.1-.7.4-1.3 1.1-1.6.6-.2 1.1 0 1.6.4.4.4.5.9.4 1.5-.1.5-.6.4-.9.5-.6.2-1.1.3-1.7.5-.2-.5-.4-.9-.5-1.3z"/><path fill="#CCCB0C" d="M16.8 55.3c.2.4.4.8.5 1.2-.3.2-.7.3-1 .4-.4-.8-.6-1.6-.6-2.4 0-.7-.3-1.1-.9-1.4-.6-.4-.6-.7-.1-1 0 .4.3.3.5.3.6 0 1.1.1 1.8-.2-.4 1.1-.8 2.1-.2 3.1zm5.4 4c.4-1.1 0-1.8-1-2-.9-.2-1.8-.3-2.7-.4 1.4-.3 2.8 0 4.3 0 .3 0 .4.2.5.5.1.4.2.8.2 1.1s.4.8 0 1c-.4.3-.9.3-1.3-.2z"/><path fill="#DFDE53" d="M-100.5 64.6c.9.6 1 1.5 1.1 2.4-.4-.2-.7-.6-1.2-.6-.3 0-.3-.2-.3-.4.2-.4.3-.9.4-1.4z"/><path fill="#F3E738" d="M-32.8 66.5v-2.3h.2v1.3c.1.5.1 1 0 1.5 0 .4-.1.8-.1 1.2h-.1v-1.7z"/><path fill="#CCCB0C" d="M23.4 51.4c.8-.2.8.5 1 .8 0 0-.1.1-.1.2-.1.1-.2 0-.3-.1l-.6-.9z"/><path fill="#F1E400" d="M-32.6 65.4v-1.7h.1c0 .7.1 1.2-.1 1.7z"/><path fill="#F3E738" d="M-4.2 27.1c-.3 0-.6.2-.7-.3.2.2.6 0 .7.3z"/><path fill="#F2E517" d="M-57.1 77.8c0 .3 0 .5-.3.5-.1-.3.1-.4.3-.5z"/><path fill="#F3E62F" d="M-74 80.6c-.4 0-.4-.3-.3-.5.1.1.2.3.3.5z"/><path fill="#F2E517" d="M-60.1 82.7c0 .3 0 .5-.3.5 0-.1.1-.3.3-.5z"/><path fill="#F3E62F" d="M-75.1 78.6c-.4-.1-.3-.4-.3-.7.2.2.3.5.3.7z"/><path fill="#F3E738" d="M-5 26.7c-.3 0-.6.1-.9-.2.3.1.7 0 .9.2z"/><path fill="#F2E517" d="M-58.1 79.4c0 .3 0 .5-.3.5 0-.2.1-.4.3-.5z"/><path fill="#D1D023" d="M14.8 40.7c-.2 0-.4-.1-.5-.4.2.1.4.1.5.4z"/><path fill="#F3E62F" d="M-74.8 79.3c-.3 0-.3-.2-.3-.4.2.1.3.2.3.4z"/><path fill="#F3E738" d="M-3.4 27.4c-.2 0-.4 0-.5-.1.2-.1.4-.1.5.1z"/><path fill="#F3E62F" d="M-74.4 80c-.3 0-.3-.2-.3-.4.2 0 .3.2.3.4z"/><path fill="#F1E400" d="M-60.8 83.9c0 .2 0 .4-.3.4.2-.1.2-.3.3-.4z"/><path fill="#F0E406" d="M-86.6 125.3c.3.2.1.3-.1.4.1-.1.1-.3.1-.4z"/><path fill="#D1D023" d="M-92.6 116.4c-.2-.1-.2-.2-.2-.4.1.1.1.2.2.4z"/><path fill="#F2E517" d="M-32.5 63.8h-.1c0-.1.1-.1.1-.2v.2z"/><path fill="#CCCB0C" d="M-61.9 104.4c-.1 0-.1-.1-.2-.1.1 0 .2 0 .2.1z"/><path fill="#F2E517" d="M-59.1 81.1c0 .1-.1.1-.1.2 0-.1.1-.2.1-.2z"/><path fill="#D1D023" d="M-92.9 115.9c0-.1-.1-.1-.1-.2.1 0 .1.1.1.2z"/><path fill="#161907" d="M39.5 46.4c-.7 2-1.5 3.9-2.8 5.5-1.4 1.6-3 2.6-5 3.3-1.8.6-3.4 0-5.1-.6-.1 0-.2 0 0-.1h.2c1.4.3 2.8.3 4.1-.2 2.5-1.1 4.6-2.8 6.4-4.9.7-.9 1.3-1.8 1.9-2.8.2-.4.3-.7.3-.2z"/><path fill="#CCCB0C" d="M39.5 46.4c-.1-.5-.2-.1-.3 0-.6 1-1.2 1.9-1.9 2.8-1.7 2.1-3.8 3.8-6.4 4.9-1.3.6-2.7.5-4.1.2.2-.2.4-.3.6-.3 3.9-.5 6.8-2.5 8.9-5.8.7-1.1 1.6-1.9 2.8-2.3.1 0 .3-.2.4-.1.3.2.2.4 0 .6z"/><path fill="#161907" d="M-4.2 93.8c-.2 0-.3 0-.2-.3.2-1.1.4-2.3.6-3.4s.8-1.8 1.9-2c1.3-.3 2.7-.5 4.1-.8-.2.4-.5.3-.7.5-.1 0-.3 0-.3.2-2.2.8-4.1 1.8-4.8 4.4-.2.4-.4.9-.6 1.4z"/><path fill="#CCCB0C" d="M-4.2 93.8c.2-.5.5-.9.6-1.5.6-2.5 2.5-3.6 4.8-4.4-.1.7-.7.9-1.2 1.2-1.5 1.2-2.6 2.6-3.6 4.1-.2.3-.4.5-.6.6z"/><path fill="#080B05" d="M-20.5 94.9c-.3.2-.3-.2-.5-.2v-.1h-.1c.3-.1.5.1.6.3z"/><path fill="#CCCB0C" d="M-41.6 110.7c0-.1 0-.1.1-.2h.1l-.2.2zM1.1 87.9c.1-.1.2-.2.3-.2 0 .2-.1.3-.3.2z"/><path fill="#080B05" d="M-21.1 94.6s.1 0 0 0c.1 0 0 0 0 0z"/><path fill="#F2E500" d="M8.9 40.2h2.2c-.4.4-1 .5-1.6.6-1.8.4-2.9 1.8-4.5 2.5-.3.1-.7.2-.8.4-.7.7-1.8.9-2.5 1.5S.4 46.4-.5 46.7c-.9.4-1.7 1.2-2.5 1.8-1 .7-1.6 1.8-2.7 2.3-.9.4-1.5 1-1.9 1.9-.1.2-.4.3-.6.4-1.3.3-2.2 1.1-3 2-.5.7-1.4 1-2 1.7-.2.3-.6.2-.7-.3 0-.2-.1-.3-.3-.3-.2 0-.3.2-.4.4s-.2.4-.1.6c.2 1-.4 1.2-1.2 1.3-.1-3.8 1.2-7.1 3.3-10.1.9.1 1.1-.4 1-1.2.1-.2.3-.4.5-.5.4.4.8.3 1.1-.1.2-.4.5-.7.4-1.2.8 0 .8 0 .6-.7-.1-.4.1-.4.4-.5 1.2-.3 2.3-1 3.2-1.9.4-.4.9-.7 1.4-.9 2.1-1.1 4-2.6 5.7-4.2.9-.9 2.1-1.2 3.2-1.6.3-.1.6-.2.7-.5.8.7 1.2 1.6 1.9 2.4.6.7.3 1.7-.4 2.5-.5.1-.6.5-.4.9.1.1.2.3.4.2.3-.2-.2-.3-.2-.4.5-.1 1-.1 1.5-.2.2-.1.4-.1.5-.3zm-5.7-.3c.3-.2.9 0 .9-.6 0-.3-.3-.3-.4-.2-.4.1-.8.2-.9.6-.2.2.1.1.4.2zm2.4-1.6c0-.3-.4-.2-.6-.3-.1-.1-.4-.1-.3.1 0 .2.1.5.4.5.2.1.4 0 .5-.3zm-34.2 30.4v-.3c.3-.5.6-.4.9-.1s.5.7.9.5c.5-.2.3-.7.3-1.1 0-.3-.1-.5-.2-.8-.4-.7-.9-1.4-1.3-2-.1-.2-.4-.5-.6-.3-.4.3-.7.1-1.1.1-.2-.8-.3-1.7-.5-2.5-.1-.3.2-.7-.3-.8v-1c0-1.9.8-2.8 2.7-3.2.2 0 .4-.1.5-.2.5-1 1.5-1.4 2.4-1.9.9-.4 1.9-.8 2.4-1.6.8-1.2 2-1.3 3.2-1.7.3-.1.3-.4.2-.6-.1-.3 0-.5.3-.5.7 0 1.3-.4 1.8-.9.2-.3.4-.3.5.1v.1c-.6.2-.2.7-.3 1.1 0 1.1 0 2.3.2 3.4 0 .2.1.3.1.5.1.8-.1 1.7.2 2.6-.8 0-.8.7-.8 1.2s-.1 1-.5 1.3c-.3.2-.4.4-.5-.1-.1-.3-.3-.4-.6-.4-.2 0-.4.1-.4.3-.2.3.1.5.3.6.1.1.4.3.2.4-.6.3-.9 1.2-1.7 1.2-1 0-1.6.4-2.1 1.2-.4.6-1.1 1-1.7 1.5-.1.1-.4.2-.5.3-1 .9-1.1 1.1-.2 2.2.4.5.2.7-.2 1-.7.5-1.4.9-1.7 1.8-.1.4-.4.5-.7.1-.2-.2-.4-.3-.7-.3-.1-.2-.2-.4-.2-.7-.2-.2-.1-.4-.3-.5zm2.5-4.4c0-.2-.1-.5-.4-.4-.2 0-.5.2-.4.5 0 .3.2.5.4.5.3 0 .3-.3.4-.6zm3.9-2.2c0-.2-.1-.2-.3-.2s-.3 0-.4.2.1.2.2.3c.2-.1.4-.1.5-.3zm-2.7 1.4l-.1-.1s0 .1-.1.1l.1.1c.1 0 .1-.1.1-.1z"/><path fill="#080B05" d="M-7.2 67.8c.1-.3.2-.5.3-.8.5-.5.7-1.1 1.1-1.6.7-.8 1.4-1.6 2.3-2.2.5-.3.4-.7.1-1.1-.7-.8-1.9-1.1-2.8-.5-1 .6-1.3 1.7-.7 3-1.2-.8-1.4-2.1-1.7-3.5-.6.4-1.1.8-1.6 1.1-.6.3-1 .9-1.8.9 1.7-2 3.2-4.1 5-5.9 1.3-1.4 3.1-1.7 4.9-2.1.9-.2 1.8-.3 2.7-.7l.2.2v.1c-.8.5-1.5.9-2.4 1.4 1.4.6 2.2 1.5 2.9 2.7.3.5 0 1.3.7 1.4.5.1 1.1-.2 1.7-.4l.1-.1c.2 0 .4 0 .6-.1.6.1 1.1-.4 1.7 0-.3.1-.5.4-.8.3-.6 0-1.1.3-1.6.5-3.9 1.6-7.3 3.9-10.2 7-.3.2-.3.8-.7.4z"/><path fill="#CCCB0C" d="M-7.2 67.8c.4.4.5-.2.6-.3 2.9-3.1 6.3-5.4 10.2-7 .5-.2 1-.5 1.6-.5-1.4.9-2.8 1.8-4.3 2.6-3.5 2.1-6.4 4.7-8.4 8.3 0 .1-.1.2-.3.4-.1-1.3.2-2.4.6-3.5zM-12 63c.7 0 1.2-.5 1.8-.9.5-.3 1-.7 1.6-1.1.2 1.3.5 2.7 1.7 3.5.4.3.6.7 1.1.9-.4.5-.6 1.2-1.1 1.6-1.4-.8-2.4-1.8-2.9-3.3-.2-.5-.7-.4-1.1-.3-.6.1-1.1.4-1.8.2.2-.3.4-.4.7-.6-.1.1 0 .1 0 .1V63z"/><path fill="#D1D023" d="M-16.3 57.5c-.3-.8-.1-1.7-.2-2.6 0-.2-.1-.3-.1-.5.4-.2.4-.7.5-1.1.9-3.1 2.5-5.5 5.3-7.2 0 .2-.1.4-.1.5-.2.1-.4.3-.5.5-.3.4-.7.8-1 1.2-2.1 3-3.4 6.4-3.3 10.1v.2c-.1.2-.1 0-.2-.1-.2-.2-.3-.6-.4-1z"/><path fill="#CCCB0C" d="M3.7 59.7c-.1 0-.1.1 0 0-.6.2-1.2.5-1.7.4-.7-.1-.4-.9-.7-1.4-.6-1.2-1.5-2.1-2.9-2.7.8-.5 1.6-1 2.4-1.4-.5.8-.1 1.3.5 1.8.8.7 1.4 1.6 1.8 2.7 0 .3.1.6.6.6z"/><path fill="#EBE21D" d="M16.7 58.1c-.1.2-.2.4-.5.4s-.5-.2-.5-.4.2-.2.4-.2c.2-.1.4-.1.6.2z"/><path fill="#D7D634" d="M5.9 59.7c-.5-.4-1.1.1-1.7 0 .5-.4 1.1-.4 1.7-.3.4 0 .4.2 0 .3z"/><path fill="#CCCB0C" d="M.8 54.5l-.2-.2c.2-.1.4-.4.6-.2.1.3-.2.4-.4.4z"/><path fill="#080B05" d="M-12 63v.2l-.1-.1c0-.1 0-.1.1-.1z"/><path fill="#F3E626" d="M-57.7 59c.9-.1 1.7-.6 2.5-.8.2-.1.3-.2.3-.4 0-.1 0-.3.1-.4 1.1-.7 1.9-1.7 3-2.4.6-.4 1.3-.3 1.8.1.1-.1.1-.2.1-.3-.2-.3-.4-.6.1-.7.4-.1.4.3.4.6s.4.5.3.9v.1c-.5.1-.2.6-.3.9v.1c-.5.1-.2.6-.3.9v.1c-.5.1-.2.6-.3.9-.4 1.4-.8 2.7-1.2 4.1-.2.2-.2.4-.1.6v.4c-.1.1-.1.2-.2.3-.7 1.9-1.5 3.8-2.5 5.7 0-.6-.2-1.3.5-1.8.3-.2 0-.4-.2-.6s-.5-.1-.5.2c0 .4-.3.6-.5.8-.2.2-.4.3-.3.6 0 .4-.2.5-.5.6s-.5.2-.6.5c-.2.4-.6.6-1 .3s-.7-.1-.9.3c-.2.3-.5.6-.7.9-.4.4-.7.8-1.3.3-.3-.2-.9-.2-.9.5 0 .9-.9 1.1-1.3 1.7-.1.1-.3.1-.4-.1s-.1-.4 0-.5c.2-.2.3-.5 0-.7s-.5-.1-.8 0c-.2.2-.4.3-.6.5-.2.2-.3.4.1.5.3.1.5.3.4.5s-.4.1-.6 0c-.1 0-.2-.1-.3-.1-.3.1-.6-.3-.8 0-.2.3.1.6.3.8.3.4.2.6-.2.6s-.5.2-.6.5c-.2.6-.6.6-1 .2-.2-.3-.4-.6-.8-.6 1-1.8 2-3.5 3.1-5.3 1.3-2.2 2.7-4.3 4-6.5l.6-.9c.2 0 .3-.1.3-.3 0-.1 0-.2.1-.3.2-.1.4-.1.6-.2.4-.2.3-.4 0-.6v-.2c.2 0 .3-.1.3-.3.8-.1.7-.7.7-1.2v-.1c.2 0 .3-.2.3-.4-.2-.1-.2-.2-.2-.3zm4.9-1.4c0-.3-.2-.4-.4-.4-.1 0-.3 0-.3.2s.1.4.4.5c.1-.1.3-.1.3-.3zm-4 2.2c-.1 0-.4.1-.4.3s.2.2.3.2c.2 0 .4 0 .4-.3 0-.1-.1-.1-.3-.2zm1.9-.6c-.1-.1-.1-.1-.2-.1l-.1.1c0 .1 0 .2.2.2 0 0 0-.1.1-.2z"/><path fill="#D7D634" d="M-54.1 69.6c1-1.8 1.8-3.7 2.5-5.7 0-.1.1-.3.2-.3.8-1.4 1.3-2.9 2-4.4 1.3-2.8 2.5-5.7 4.3-8.2.8-1 1.7-1.8 2.7-2.2-1.9 2.4-1.6 4.9-1.1 7.5l.2-.2c.4-2.9 1.8-5.2 3.5-7.4.6-.8 1.2-1.2 2.2-1.5 2.1-.6 4.2-1.1 6.2-2.1v-.2c.3.1.5.5.8.3.2 0 .5.1.7-.2h.5s.5-.1.7.2c-3 1.1-5.7 2.7-8.1 4.8-2.3 2-3.9 4.4-4.7 7.3-.2.2-.1.4-.2.7l-.2.2c-.4 1.5-.8 3.1-1.2 4.6-.2-1.5-.3-2.9-.5-4.3-.1-.5 0-1.1-.6-1.2-.6-.2-1.1-.1-1.6.4-.4.4-.7.9-.9 1.4-1.5 3.9-3.6 7.5-6.2 10.9-1 1.3-1.9 2.6-3.1 3.7 0-.9.7-1.5 1-2.2.3-.5.6-1.2.9-1.9z"/><path fill="#161907" d="M-10.9 46.2c-2.8 1.7-4.4 4.1-5.3 7.2-.1.4 0 .9-.5 1.1-.2-1.1-.2-2.2-.2-3.4.2-.3.2-.7.3-1.1 0 0 .1-.1 0-.1 1.4-2.9 4.1-4 6.9-4.8.1 0 .3-.1.3.1 0 .1-.2.1-.2.2-.3 0-.4.2-.7.4-.2 0-.4.2-.6.4.1-.2 0-.1 0 0z"/><path fill="#F3E626" d="M-68.4 77.3c0-.5.2-1 .6-1.4 0 .1.1.3.1.4.3.7.1 1.1-.7 1zm26.5-19l.2-.2-.2.2z"/><path fill="#D7D634" d="M-56.1 73.8s0 .1 0 0c0 .1 0 0 0 0z"/><path fill="#EBE21D" d="M-53.9 118.4h-.7c0-.2.1-.5.4-.4.2 0 .3.2.3.4zm17.1-16c.1-.1.2-.2.3-.2 0 .3 0 .5-.3.2zm-18.3 16.1h-.3c0-.1 0-.3.2-.2 0 0 .1.1.1.2z"/><path fill="#F2E500" d="M-60.2 105.9l.2.2c-.1-.1-.2-.1-.2-.2zm.1.2l.2.2c-.1-.1-.1-.2-.2-.2z"/><path fill="#F3E62F" d="M-95 94.9c.3.1.3.3.3.6v3.1c-.3-.1-.3-.4-.3-.6v-3.1zm.3-4.7v3c0 .3.1.6-.3.7v-3.1c0-.2 0-.5.3-.6z"/><path fill="#F0E406" d="M-29.6 64.7c.4 0 .7.2 1.1-.1.2-.2.4 0 .6.3.4.7.9 1.4 1.3 2 .1.2.3.5.2.8-.1.4.2.9-.3 1.1s-.7-.2-.9-.5c-.3-.3-.7-.4-.9.1-.7-1.2-.8-2.5-1.1-3.7z"/><path fill="#F2E517" d="M-30.5 61.3c.5.1.3.5.3.8-.2-.2-.2-.5-.3-.8z"/><path fill="#F0E406" d="M-28.6 68.7c.2.1.2.3.2.5-.3-.2-.2-.4-.2-.5z"/><path fill="#DFDE53" d="M-23.8 43.1c.2 0 .3-.1.4-.4.4.3.5.7.6 1.3-.5-.2-.8-.5-1-.9z"/><path fill="#F3E738" d="M-26.2 41.1c.4.1.6.3.7.6-.7.4-.6-.2-.7-.6zm-2.6 4.3c-.2-.2-.4-.1-.7-.2.2-.3.5-.2.8-.1.3.1.1.2-.1.3zm-1.2-.2c-.2.2-.4.1-.7.2.2-.5.4-.4.7-.2zm3.5-4.4c.2 0 .3.1.3.3-.2-.1-.3-.1-.3-.3z"/><path fill="#F2E517" d="M-50.8 74.5c-.1.3-.3.3-.6.3-.2 0-.4-.2-.3-.4.1-.2.2-.4.5-.3.2 0 .5.1.4.4zm16.3-10.9c-.3 0-.5-.1-.5-.4 0-.2.1-.3.3-.3.3 0 .4.2.5.4.1.2-.1.3-.3.3zm-9.5 6.5c0 .2-.1.2-.2.2-.2 0-.4-.2-.5-.4-.1-.2.1-.2.2-.2.3 0 .4.2.5.4zm3.5-2.6c-.1.2-.2.2-.4.2s-.3 0-.3-.3c0-.2.2-.2.4-.2.1 0 .3.1.3.3zm2.5-1.1s0 .1-.1.1c0 0-.1 0-.1-.1 0 0 0-.1.1-.1 0 .1 0 .1.1.1zm5.4-2.4v.2h-.2l.2-.2z"/><path fill="#F3E738" d="M-58.1 59.8c0 .5.1 1.1-.7 1.2 0-.5.4-.9.7-1.2zm-1 1.7c.4.2.4.4 0 .6-.2.1-.4.1-.6.2.1-.3.4-.5.6-.8zm-.6 1.1c0 .2-.1.3-.3.3-.1-.1 0-.2.3-.3zm1.9-3.3c0 .2-.1.4-.3.4 0-.3.1-.4.3-.4zm-1 1.7c0 .2-.1.3-.3.3 0-.2.1-.3.3-.3z"/><path fill="#161907" d="M-31.5 45.2c-2 1-4.1 1.6-6.2 2.1-.9.2-1.6.7-2.2 1.5-1.7 2.2-3.2 4.5-3.5 7.4 0 .1-.1.1-.2.2-.5-2.6-.8-5.1 1.1-7.5-1 .4-1.9 1.1-2.7 2.2-1.8 2.5-3 5.4-4.3 8.2-.7 1.5-1.2 3-2 4.4v-.4c.2-.2.1-.4.1-.6.4-1.4.8-2.7 1.2-4.1.2-.3.3-.6.3-.9v-.1c.2-.3.3-.5.3-.9v-.1c.2-.3.3-.5.3-.9 0 0 .1-.1 0-.1.8-1.7 1.4-3.5 2.3-5.1.4-.7.9-1.4 1.4-2.1 1.4-1.7 3.3-2.1 5.3-2.3 2.7-.2 5.5-.5 8.2-.8.4-.1.5-.1.6-.1z"/><path fill="#F3E738" d="M-25.5 37.7c.4.1.3.4.3.7-.4-.1-.3-.4-.3-.7zm.4 1.4c.2 0 .3.2.3.4-.3-.1-.4-.2-.3-.4zm.3 1c.2 0 .3.2.3.4-.2-.1-.3-.2-.3-.4z"/><path fill="#F0E406" d="M6.9 40.6c0 .2.4.2.2.4-.2.1-.3 0-.4-.2-.3-.4-.1-.8.4-.9 0 .2-.4.4-.2.7zm2-.4c-.1.2-.3.2-.5.2.2-.2.3-.2.5-.2z"/><path fill="#F2E517" d="M-10.2 45.7c.2-.1.4-.4.7-.4.1.5-.2.9-.4 1.2-.3.4-.7.6-1.1.1.1-.2.2-.3.1-.5.1 0 .1-.1.2-.1.3.1.5 0 .5-.3zm13.4-5.8c-.2 0-.6 0-.4-.2.1-.3.5-.5.9-.6.2 0 .5 0 .4.2-.1.6-.7.4-.9.6zm2.4-1.6c-.1.2-.3.3-.5.3-.3 0-.4-.3-.4-.5 0-.3.2-.2.3-.1.2.1.5 0 .6.3zm-18.1 10.1c.3-.4.7-.8 1-1.2 0 .7-.1 1.2-1 1.2z"/><path fill="#F0E406" d="M-26.1 64.3c-.1.3-.1.6-.4.6-.2 0-.4-.3-.4-.5 0-.3.2-.5.4-.5s.3.2.4.4zm3.9-2.2c-.1.2-.3.3-.5.2-.1 0-.3-.1-.2-.3s.2-.2.4-.2.3.1.3.3z"/><path fill="#F2E517" d="M-16.5 50c-.1.4-.1.8-.3 1.1.1-.3-.3-.8.3-1.1z"/><path fill="#F0E406" d="M-24.9 63.5s0 .1-.1.1c0 0-.1 0-.1-.1 0 0 0-.1.1-.1 0 0 .1 0 .1.1z"/><path fill="#FAF5CC" d="M-5.9 65.4c-.5-.2-.8-.6-1.1-.9-.6-1.2-.3-2.3.7-3 .9-.6 2.2-.3 2.8.5.3.4.4.7-.1 1.1-.9.6-1.5 1.5-2.3 2.3z"/><path fill="#F3E738" d="M-52.8 57.6c0 .2-.2.3-.4.2-.3 0-.4-.2-.4-.5 0-.2.2-.2.3-.2.3.1.5.2.5.5zm-4 2.2c.2 0 .3 0 .3.2 0 .3-.2.3-.4.3-.1 0-.3 0-.3-.2s.3-.2.4-.3zm7.7-4.1c0 .3-.1.6-.3.9 0-.4-.2-.8.3-.9zm-.4 1c0 .3-.1.6-.3.9.1-.4-.2-.8.3-.9zm-.3 1c0 .3-.1.6-.3.9.1-.4-.2-.8.3-.9zm-5.1 1.5c-.1.1-.1.2-.1.2-.1 0-.2-.1-.2-.2s.1-.1.1-.1c.1 0 .1.1.2.1z"/><path fill="#D7D634" d="M-51.2 62.7c0 .2 0 .4-.1.6-.1-.3-.2-.5.1-.6z"/><path fill="#D1D023" d="M-10.2 45.7c0 .3-.2.3-.5.3.2-.1.3-.3.5-.3zm-.5.3c-.1 0-.1.1-.2.1 0 0 .1-.1.2-.1z"/></svg>