<svg xmlns="http://www.w3.org/2000/svg" width="300" height="550" viewBox="0 0 300 550"><path fill="#5382A1" d="M285.104 430.945h-2.038v-1.14h5.486v1.14h-2.024v5.688h-1.424v-5.688zm10.942.297h-.032l-2.02 5.392h-.923l-2-5.392h-.02v5.392h-1.34v-6.828h1.98l1.86 4.835 1.86-4.83h1.97v6.83h-1.31v-5.39zM102.68 291.324s-14.177 8.245 10.09 11.035c29.4 3.35 44.427 2.87 76.826-3.26 0 0 8.518 5.34 20.414 9.96-72.63 31.13-164.376-1.81-107.33-17.75m-8.874-40.62s-15.902 11.77 8.384 14.28c31.406 3.24 56.208 3.5 99.125-4.76 0 0 5.936 6.02 15.27 9.31-87.814 25.68-185.623 2.02-122.78-18.838"/><path fill="#F8981D" d="M168.625 181.8c17.896 20.603-4.702 39.144-4.702 39.144s45.44-23.458 24.572-52.833c-19.49-27.39-34.438-41 46.48-87.93 0 0-127.014 31.72-66.35 101.62"/><path fill="#5382A1" d="M264.684 321.37s10.492 8.644-11.555 15.332c-41.93 12.7-174.49 16.535-211.32.506-13.24-5.76 11.58-13.75 19.39-15.428 8.14-1.766 12.8-1.437 12.8-1.437-14.73-10.37-95.16 20.364-40.86 29.166 148.08 24.01 269.94-10.82 231.53-28.14M109.5 208.61s-67.432 16.016-23.88 21.832c18.39 2.46 55.047 1.903 89.193-.958 27.906-2.355 55.927-7.36 55.927-7.36s-9.84 4.214-16.96 9.075c-68.474 18.01-200.755 9.63-162.673-8.79 32.206-15.57 58.393-13.8 58.393-13.8m120.96 67.61c69.604-36.17 37.42-70.93 14.96-66.25-5.51 1.14-7.96 2.14-7.96 2.14s2.04-3.21 5.943-4.59c44.44-15.63 78.617 46.08-14.348 70.52 0 0 1.076-.96 1.4-1.83"/><path fill="#F8981D" d="M188.495 4.4s38.55 38.562-36.563 97.86c-60.233 47.57-13.735 74.69-.025 105.68-35.16-31.723-60.96-59.648-43.65-85.638C133.663 84.152 204.05 65.654 188.495 4.4"/><path fill="#5382A1" d="M116.34 374.246c66.814 4.277 169.416-2.373 171.846-33.988 0 0-4.67 11.985-55.22 21.503-57.027 10.74-127.363 9.48-169.08 2.61 0 0 8.54 7.07 52.453 9.89m-10.95 120.8c-6.31 5.47-12.96 8.54-18.94 8.54-8.53 0-13.14-5.11-13.14-13.31 0-8.87 4.93-15.354 24.74-15.354h7.33v20.133m17.39 19.623v-60.74c0-15.517-8.85-25.756-30.19-25.756-12.46 0-23.37 3.08-32.24 7l2.56 10.75c6.98-2.56 16.02-4.945 24.89-4.945 12.29 0 17.58 4.95 17.58 15.18v7.68h-6.13c-29.868 0-43.34 11.593-43.34 28.994 0 15.02 8.875 23.55 25.59 23.55 10.746 0 18.767-4.436 26.265-10.93l1.36 9.22h13.643zm58.04 0h-21.69l-26.11-84.96h18.94l16.2 52.2 3.6 15.7c8.193-22.7 13.99-45.726 16.89-67.9h18.425c-4.938 27.978-13.82 58.686-26.263 84.96m83.216-19.622c-6.316 5.47-12.985 8.54-18.96 8.54-8.51 0-13.13-5.113-13.13-13.314 0-8.87 4.947-15.36 24.75-15.36h7.34v20.135m17.39 19.626v-60.74c0-15.516-8.875-25.755-30.188-25.755-12.466 0-23.382 3.078-32.247 7l2.558 10.75c6.985-2.56 16.04-4.946 24.906-4.946 12.28 0 17.58 4.95 17.58 15.18v7.678h-6.147c-29.875 0-43.34 11.594-43.34 28.995 0 15.02 8.87 23.55 25.583 23.55 10.75 0 18.77-4.43 26.28-10.922l1.364 9.22h13.65zM36.843 529.1c-4.96 7.238-12.965 12.965-21.732 16.205L6.528 535.2c6.673-3.424 12.396-8.954 15.055-14.105 2.3-4.58 3.252-10.485 3.252-24.604V399.5h18.478v95.666c0 18.876-1.51 26.5-6.465 33.937"/></svg>