<svg xmlns="http://www.w3.org/2000/svg" width="120" height="60" viewBox="0 0 120 60" preserveAspectRatio="xMidYMid"><path fill="#231f20" d="M14.89 8.627c-.565-.577-1.35-.933-2.223-.933-.872 0-1.65.356-2.208.933h-.02c-.56.573-.91 1.373-.91 2.258 0 .89.35 1.684.91 2.252l.01.015c.55.573 1.33.924 2.2.924.87 0 1.66-.35 2.22-.924v-.015c.56-.568.91-1.363.91-2.252 0-.884-.35-1.685-.91-2.258h-.01zm-2.223 43.68c.874 0 1.658-.363 2.223-.93l.007-.017c.566-.566.91-1.366.91-2.245 0-.89-.344-1.686-.91-2.262h-.007c-.565-.583-1.35-.935-2.223-.935-.872 0-1.65.352-2.208.935h-.02c-.57.576-.92 1.373-.92 2.262 0 .88.35 1.68.91 2.245l.01.017c.55.567 1.33.93 2.2.93zm17.084-9.67c.78-.207 1.48-.714 1.91-1.48l.06-.113c.38-.726.45-1.566.25-2.312-.2-.796-.71-1.502-1.46-1.94l-.04-.03c-.73-.41-1.57-.5-2.33-.287-.78.198-1.48.726-1.91 1.487-.43.756-.52 1.624-.31 2.424.22.787.72 1.498 1.47 1.942.75.44 1.6.517 2.39.31zM15.89 26.73c-.823-.835-1.96-1.36-3.216-1.36-1.256 0-2.39.525-3.21 1.36-.82.834-1.324 1.985-1.324 3.265s.505 2.435 1.324 3.28c.82.83 1.952 1.348 3.21 1.348 1.255 0 2.39-.52 3.214-1.35.82-.843 1.326-2 1.326-3.278 0-1.28-.505-2.43-1.326-3.265zm-1.81-5.438c1.826.306 3.465 1.195 4.718 2.48h.01c.2.2.393.424.573.646l3.13-1.842c-.42-1.295-.44-2.648-.1-3.917.45-1.7 1.53-3.22 3.15-4.18l.06-.04c1.61-.93 3.43-1.12 5.08-.66 1.67.45 3.18 1.56 4.11 3.21V17c.93 1.64 1.12 3.523.68 5.217-.44 1.7-1.53 3.23-3.15 4.18l-.42.254h-.04c-1.5.73-3.15.84-4.66.44-1.24-.33-2.382-1.04-3.275-2.04l-3.13 1.84c.36.97.56 2.01.56 3.12 0 1.1-.2 2.16-.56 3.13l3.13 1.84c.895-1.02 2.036-1.71 3.28-2.044 1.67-.466 3.517-.27 5.133.69l.105.05v.004c1.56.963 2.61 2.45 3.05 4.13.447 1.683.26 3.566-.674 5.21l-.06.114-.01-.01c-.935 1.58-2.41 2.656-4.04 3.11-1.67.45-3.52.257-5.135-.69v-.01c-1.62-.956-2.704-2.48-3.15-4.177-.34-1.26-.32-2.612.1-3.91l-3.13-1.84c-.18.228-.373.44-.572.64l-.01.01c-1.25 1.28-2.89 2.17-4.717 2.468v3.68c1.3.28 2.465.94 3.377 1.87l.007.01c1.22 1.238 1.98 2.96 1.98 4.86 0 1.89-.76 3.606-1.98 4.85l-.008.02c-1.25 1.24-2.94 2.01-4.8 2.01-1.853 0-3.546-.77-4.774-2.012H7.9v-.02c-1.23-1.243-1.988-2.96-1.988-4.85 0-1.896.757-3.62 1.982-4.86v-.01h.003c.914-.93 2.08-1.59 3.376-1.866v-3.7c-1.83-.297-3.46-1.186-4.71-2.466l-.02-.01C4.98 34.63 4 32.43 4 29.998c0-2.43.978-4.63 2.54-6.224h.013c1.25-1.283 2.886-2.172 4.71-2.478V17.63c-1.295-.288-2.46-.95-3.372-1.873v-.01c-1.22-1.25-1.98-2.963-1.98-4.86 0-1.887.76-3.617 1.99-4.86V6.02C9.12 4.77 10.82 4 12.67 4c1.864 0 3.553.77 4.784 2.02v.004h.01c1.226 1.245 1.98 2.974 1.98 4.86 0 1.898-.754 3.61-1.98 4.86l-.002.01c-.91.925-2.075 1.586-3.376 1.873v3.665zm17.587-2.445l-.026-.04c-.43-.74-1.12-1.234-1.88-1.447-.78-.213-1.63-.124-2.38.317h.01c-.75.434-1.25 1.145-1.46 1.94-.2.79-.11 1.664.32 2.425l.02.02c.437.75 1.12 1.255 1.897 1.457.77.22 1.634.12 2.377-.32l.04-.02c.734-.45 1.22-1.15 1.424-1.92.204-.8.12-1.67-.31-2.43m13.887 1.08h3.497v10.85l5.038-5.67h4.19l-6.08 6.57 6.1 8.33h-4l-5.255-7.44V40h-3.5V19.925m16.77 12.692c0 1.848 1.306 4.534 4.453 4.534 1.95 0 3.23-1.03 3.9-2.38.35-.65.51-1.36.56-2.09.03-.7-.1-1.44-.4-2.09-.61-1.4-1.97-2.62-4.08-2.62-2.82 0-4.42 2.33-4.42 4.64v.03zM74.7 40h-3.494v-2.14c-.93 1.733-2.878 2.603-4.932 2.603-4.693 0-7.438-3.72-7.438-7.92 0-4.694 3.332-7.895 7.438-7.895 2.667 0 4.293 1.438 4.932 2.633v-2.17H74.7V40m3.956-12.154h-1.81v-2.74h1.81v-.84c0-4.427 3.308-4.693 5.816-4.723v2.736c-.882 0-2.32 0-2.32 2.09v.73h2.32v2.74h-2.32V40h-3.496V27.847m8.19-7.923h3.493v10.85l5.03-5.67h4.19l-6.09 6.57L99.59 40h-4l-5.25-7.437V40h-3.493V19.925m16.778 12.692c0 1.848 1.305 4.534 4.452 4.534 1.944 0 3.226-1.03 3.89-2.38.35-.65.51-1.36.564-2.09.03-.7-.1-1.44-.4-2.09-.61-1.4-1.97-2.62-4.07-2.62-2.82 0-4.42 2.33-4.42 4.64v.03zM115.995 40h-3.493v-2.14c-.933 1.733-2.88 2.603-4.93 2.603-4.695 0-7.438-3.72-7.438-7.92 0-4.694 3.33-7.895 7.437-7.895 2.67 0 4.3 1.438 4.94 2.633v-2.17H116V40"/></svg>