<svg xmlns="http://www.w3.org/2000/svg" width="467.36" height="155.8" viewBox="0 0 467.35715 155.79802"><g transform="translate(-166.3 -222.1)"><path fill="#636466" d="M421.64 272.27c0 3.62-2.973 6.85-6.85 6.85-2.973 0-5.557.775-7.754 2.455-2.455 1.552-4.394 3.748-5.944 6.203-3.102 4.136-4.65 9.046-5.298 10.854v24.554c0 3.748-3.23 6.85-7.107 6.85-3.748 0-6.85-3.102-6.85-6.85V272.27c0-3.748 3.102-6.72 6.85-6.72 3.877 0 7.107 2.973 7.107 6.72v.905c.775-.905 1.81-1.938 2.714-2.585 4.265-2.842 9.82-5.17 16.282-5.04 3.877 0 6.85 2.973 6.85 6.72zm-3.79 25.46c.13-17.575 13.828-32.307 31.53-32.307 16.8 0 30.11 12.535 31.146 29.98v.646c0 .25 0 .9-.13 1.16-.388 3.1-3.1 5.17-6.72 5.17h-41.094c.646 2.97 2.067 6.33 4.394 8.53 2.714 3.1 7.883 5.42 12.405 5.81 4.66.38 10.21-.78 13.44-3.23 2.72-2.85 8.02-2.46 9.7-.39 1.68 1.81 2.97 5.69 0 8.4-6.33 5.81-13.95 8.53-23.13 8.53-17.7-.13-31.4-14.73-31.53-32.31zm14.086-6.332h36.57c-1.29-5.17-7.882-12.793-19.125-13.698-10.98.516-16.41 8.4-17.44 13.698zM546.36 323.06c0 3.748-3.102 6.98-6.98 6.98-3.488 0-6.2-2.456-6.848-5.558-4.91 3.36-11.113 5.557-17.575 5.557-17.445 0-31.402-14.74-31.402-32.18 0-17.71 13.957-32.44 31.402-32.44 6.333 0 12.535 2.06 17.316 5.42v-24.29c0-3.75 3.102-6.98 7.107-6.98 3.877 0 6.98 3.23 6.98 6.98v76.5zm-31.402-43.55c-4.652 0-8.917 1.938-12.146 5.298-3.23 3.23-5.17 7.882-5.17 13.052 0 4.91 1.938 9.562 5.17 12.793 3.23 3.36 7.494 5.3 12.146 5.3 4.78 0 8.917-1.94 12.147-5.3 3.23-3.23 5.17-7.883 5.17-12.793 0-5.17-1.94-9.82-5.17-13.052-3.23-3.36-7.366-5.298-12.147-5.298zm55.992-30.24c0 3.877-2.972 7.107-6.98 7.107-3.876 0-6.977-3.23-6.977-7.107v-2.714c0-3.877 3.1-6.98 6.978-6.98 4.01 0 6.98 3.103 6.98 6.98v2.714zm0 23.39v50.4c0 3.876-2.972 6.978-6.98 6.978-3.876 0-6.977-3.102-6.977-6.98V272.66c0-4.135 3.1-7.108 6.978-7.108 4.01 0 6.98 2.973 6.98 7.108zm8.88 38.89c2.326-3.1 6.85-3.488 9.692-1.033 3.36 2.844 9.176 5.814 14.215 5.686 3.49 0 6.72-1.162 8.788-2.455 1.81-1.55 2.325-2.842 2.325-3.877 0-.64-.13-.9-.387-1.29-.13-.38-.646-.9-1.68-1.55-1.81-1.29-5.687-2.71-10.34-3.62h-.128c-4.007-.77-7.884-1.81-11.243-3.36-3.49-1.68-6.59-4-8.917-7.49-1.42-2.32-2.196-5.17-2.196-8.14 0-5.94 3.36-10.98 7.62-14.21 4.52-3.1 9.95-4.78 15.89-4.78 8.91 0 15.24 4.27 19.38 7.11 3.1 2.07 4 6.337 2.06 9.56-2.068 3.108-6.33 4.01-9.56 1.81-4.137-2.71-7.756-4.78-11.89-4.78-3.23 0-6.075 1.038-7.755 2.33-1.68 1.166-2.068 2.33-2.068 2.975 0 .516 0 .646.255 1.033.13.26.52.776 1.422 1.293 1.68 1.16 5.04 2.323 9.435 3.1l.13.13h.13c4.26.773 8.27 1.94 12.013 3.746 3.49 1.55 6.98 4.007 9.177 7.625 1.55 2.586 2.457 5.56 2.457 8.53 0 6.333-3.49 11.63-8.14 14.99-4.65 3.23-10.47 5.17-16.8 5.17-10.08-.13-17.835-4.78-23-8.915-2.848-2.326-3.23-6.72-.91-9.564z"/><path fill="#a41e11" d="M334.77 339.54c-9.078 4.732-56.106 24.068-66.118 29.287-10.012 5.22-15.574 5.17-23.483 1.39s-57.96-23.997-66.97-28.307c-4.51-2.15-6.88-3.97-6.88-5.685V319.03s65.15-14.185 75.67-17.958c10.52-3.773 14.16-3.91 23.12-.63 8.95 3.28 62.47 12.936 71.32 16.176l-.01 16.95c0 1.7-2.04 3.566-6.66 5.974z"/><path fill="#d82c20" d="M334.77 322.34c-9.078 4.73-56.106 24.068-66.118 29.287-10.012 5.22-15.574 5.17-23.483 1.39-7.91-3.78-57.96-24-66.97-28.306-9.02-4.3-9.21-7.27-.35-10.74 8.85-3.47 58.62-22.99 69.14-26.77 10.52-3.77 14.16-3.91 23.12-.63 8.95 3.28 55.7 21.89 64.54 25.13 8.84 3.25 9.18 5.92.11 10.65z"/><path fill="#a41e11" d="M334.77 311.5c-9.078 4.732-56.106 24.068-66.118 29.29-10.012 5.218-15.574 5.167-23.483 1.386-7.91-3.78-57.96-23.996-66.97-28.305-4.51-2.15-6.88-3.96-6.88-5.68v-17.2s65.15-14.18 75.67-17.95c10.52-3.77 14.16-3.91 23.12-.63 8.95 3.28 62.47 12.94 71.32 16.18l-.01 16.956c0 1.7-2.04 3.565-6.66 5.973z"/><path fill="#d82c20" d="M334.77 294.3c-9.078 4.732-56.106 24.068-66.118 29.29-10.012 5.218-15.574 5.167-23.483 1.386-7.91-3.78-57.96-23.997-66.97-28.305s-9.21-7.27-.35-10.74c8.85-3.46 58.62-22.99 69.14-26.77 10.52-3.77 14.16-3.91 23.12-.63 8.95 3.28 55.7 21.89 64.54 25.13 8.84 3.24 9.18 5.92.11 10.65z"/><path fill="#a41e11" d="M334.77 282.42c-9.078 4.732-56.106 24.07-66.118 29.29-10.012 5.22-15.574 5.168-23.483 1.387-7.91-3.78-57.96-23.997-66.97-28.305-4.51-2.154-6.88-3.97-6.88-5.686V261.91s65.15-14.184 75.67-17.957c10.52-3.774 14.16-3.91 23.12-.63 8.95 3.278 62.47 12.933 71.32 16.174l-.01 16.952c0 1.69-2.04 3.56-6.66 5.97z"/><path fill="#d82c20" d="M334.77 265.22c-9.078 4.732-56.106 24.07-66.118 29.29-10.012 5.218-15.574 5.167-23.483 1.387s-57.96-23.997-66.97-28.305-9.21-7.275-.35-10.743c8.85-3.47 58.62-23 69.14-26.77 10.52-3.78 14.16-3.91 23.12-.63 8.95 3.28 55.7 21.88 64.54 25.12 8.84 3.24 9.18 5.91.11 10.64z"/><path fill="#FFF" d="M278.67 248.66l-14.74 1.53-3.3 7.94-5.33-8.86-17.02-1.53 12.7-4.58-3.81-7.03 11.89 4.65 11.21-3.67-3.03 7.27m-7.49 42.8l-27.51-11.41 39.42-6.05"/><ellipse cx="221.61" cy="261.24" fill="#FFF" rx="21.069" ry="8.167"/><path fill="#7a0c00" d="M296.09 250.83l23.33 9.22-23.31 9.21"/><path fill="#ad2115" d="M270.28 261.04l25.81-10.21.02 18.43-2.53.99"/></g></svg>